<?xml version="1.0" encoding="UTF-8" standalone="no"?>
<!DOCTYPE svg PUBLIC "-//W3C//DTD SVG 1.1//EN" "http://www.w3.org/Graphics/SVG/1.1/DTD/svg11.dtd">
<svg width="100%" height="100%" viewBox="0 0 1000 1000" version="1.1" xmlns="http://www.w3.org/2000/svg" xmlns:xlink="http://www.w3.org/1999/xlink" xml:space="preserve" xmlns:serif="http://www.serif.com/" style="fill-rule:evenodd;clip-rule:evenodd;stroke-linejoin:round;stroke-miterlimit:2;">
    <g id="Artboard">
        <circle id="Oval" cx="500" cy="500" r="500" style="fill:rgb(235,100,52);"/>
        <g transform="matrix(1,0,0,1,20.1648,34.6154)">
            <path d="M317.484,316.636C312.719,312.222 311.096,305.366 313.376,299.284C315.657,293.203 321.388,289.105 327.88,288.912C448.563,285.499 569.77,286.144 691.19,290.443C712.691,291.205 729.236,308.227 730.428,329.709C734.927,410.788 734.64,501.899 730.294,601.774C729.37,622.996 713.103,640.296 691.878,641.135C549.427,646.575 407.663,646.516 266.57,641.088C245.814,640.262 229.145,623.685 228.204,602.935C224.75,523.708 224.074,444.879 226.585,366.506C226.793,360.396 230.465,354.939 236.047,352.445C241.628,349.951 248.143,350.856 252.834,354.777C321.965,411.472 432.443,479.785 478.252,479.176C512.533,478.721 640.601,373.983 629.383,362.71C613.548,346.798 505.911,444.139 478.252,439.229C456.496,435.367 374.354,368.903 317.484,316.636Z" style="fill:white;"/>
        </g>
    </g>
</svg>
