<?xml version="1.0" encoding="UTF-8" standalone="no"?>
<!DOCTYPE svg PUBLIC "-//W3C//DTD SVG 1.1//EN" "http://www.w3.org/Graphics/SVG/1.1/DTD/svg11.dtd">
<svg width="100%" height="100%" viewBox="0 0 33 33" version="1.1" xmlns="http://www.w3.org/2000/svg" xmlns:xlink="http://www.w3.org/1999/xlink" xml:space="preserve" xmlns:serif="http://www.serif.com/" style="fill-rule:evenodd;clip-rule:evenodd;stroke-linejoin:round;stroke-miterlimit:2;">
    <g transform="matrix(1.32,0,0,1.32,-5.28,-5.28)">
        <path d="M4.492,11C4.362,11 4.237,10.948 4.144,10.856C4.052,10.763 4,10.638 4,10.508L4,4.492C4,4.362 4.052,4.237 4.144,4.144C4.237,4.052 4.362,4 4.492,4L10.508,4C10.638,4 10.763,4.052 10.856,4.144C10.948,4.237 11,4.362 11,4.492L11,10.508C11,10.638 10.948,10.763 10.856,10.856C10.763,10.948 10.638,11 10.508,11L4.492,11ZM10,5.492C10,5.22 9.78,5 9.508,5L5.492,5C5.22,5 5,5.22 5,5.492L5,9.508C5,9.78 5.22,10 5.492,10L9.508,10C9.78,10 10,9.78 10,9.508L10,5.492ZM6.492,9C6.362,9 6.237,8.948 6.144,8.856C6.052,8.763 6,8.638 6,8.508L6,6.492C6,6.362 6.052,6.237 6.144,6.144C6.237,6.052 6.362,6 6.492,6L8.508,6C8.638,6 8.763,6.052 8.856,6.144C8.948,6.237 9,6.362 9,6.492L9,8.508C9,8.638 8.948,8.763 8.856,8.856C8.763,8.948 8.638,9 8.508,9L6.492,9ZM22.492,11C22.362,11 22.237,10.948 22.144,10.856C22.052,10.763 22,10.638 22,10.508L22,4.492C22,4.362 22.052,4.237 22.144,4.144C22.237,4.052 22.362,4 22.492,4L28.508,4C28.638,4 28.763,4.052 28.856,4.144C28.948,4.237 29,4.362 29,4.492L29,10.508C29,10.638 28.948,10.763 28.856,10.856C28.763,10.948 28.638,11 28.508,11L22.492,11ZM28,5.492C28,5.22 27.78,5 27.508,5L23.492,5C23.22,5 23,5.22 23,5.492L23,9.508C23,9.78 23.22,10 23.492,10L27.508,10C27.78,10 28,9.78 28,9.508L28,5.492ZM24.492,9C24.362,9 24.237,8.948 24.144,8.856C24.052,8.763 24,8.638 24,8.508L24,6.492C24,6.362 24.052,6.237 24.144,6.144C24.237,6.052 24.362,6 24.492,6L26.508,6C26.638,6 26.763,6.052 26.856,6.144C26.948,6.237 27,6.362 27,6.492L27,8.508C27,8.638 26.948,8.763 26.856,8.856C26.763,8.948 26.638,9 26.508,9L24.492,9ZM27,18.492C27,18.22 27.22,18 27.492,18L28.508,18C28.78,18 29,18.22 29,18.492L29,19.508C29,19.78 28.78,20 28.508,20C28.503,20 28.497,20 28.492,20C28.362,20 28.237,20.052 28.144,20.144C28.052,20.237 28,20.362 28,20.492L28,20.508C28,20.78 27.78,21 27.508,21C27.199,21 26.801,21 26.492,21C26.22,21 26,20.78 26,20.508C26,20.503 26,20.497 26,20.492C26,20.362 26.052,20.237 26.144,20.144C26.237,20.052 26.362,20 26.492,20L26.508,20C26.78,20 27,19.78 27,19.508C27,19.199 27,18.801 27,18.492ZM5,12.508C5,12.638 4.948,12.763 4.856,12.856C4.763,12.948 4.638,13 4.508,13L4.492,13C4.362,13 4.237,12.948 4.144,12.856C4.052,12.763 4,12.638 4,12.508L4,12.492C4,12.362 4.052,12.237 4.144,12.144C4.237,12.052 4.362,12 4.492,12L4.508,12C4.638,12 4.763,12.052 4.856,12.144C4.948,12.237 5,12.362 5,12.492L5,12.508ZM5,13.492C5,13.362 5.052,13.237 5.144,13.144C5.237,13.052 5.362,13 5.492,13L5.508,13C5.638,13 5.763,13.052 5.856,13.144C5.948,13.237 6,13.362 6,13.492C6,14.049 6,14.951 6,15.508C6,15.638 6.052,15.763 6.144,15.856C6.237,15.948 6.362,16 6.492,16C6.497,16 6.503,16 6.508,16C6.78,16 7,15.78 7,15.508C7,15.199 7,14.801 7,14.492C7,14.22 7.22,14 7.492,14L8.508,14C8.78,14 9,13.78 9,13.508C9,13.503 9,13.497 9,13.492C9,13.362 8.948,13.237 8.856,13.144C8.763,13.052 8.638,13 8.508,13C7.951,13 7.049,13 6.492,13C6.362,13 6.237,12.948 6.144,12.856C6.052,12.763 6,12.638 6,12.508C6,12.503 6,12.497 6,12.492C6,12.22 6.22,12 6.492,12C7.449,12 9.551,12 10.508,12C10.78,12 11,12.22 11,12.492C11,12.497 11,12.503 11,12.508C11,12.638 10.948,12.763 10.856,12.856C10.763,12.948 10.638,13 10.508,13L10.492,13C10.362,13 10.237,13.052 10.144,13.144C10.052,13.237 10,13.362 10,13.492L10,13.508C10,13.638 10.052,13.763 10.144,13.856C10.237,13.948 10.362,14 10.492,14L10.508,14C10.638,14 10.763,14.052 10.856,14.144C10.948,14.237 11,14.362 11,14.492L11,14.508C11,14.638 10.948,14.763 10.856,14.856C10.763,14.948 10.638,15 10.508,15L10.492,15C10.362,15 10.237,15.052 10.144,15.144C10.052,15.237 10,15.362 10,15.492L10,15.508C10,15.638 9.948,15.763 9.856,15.856C9.763,15.948 9.638,16 9.508,16L9.492,16C9.362,16 9.237,15.948 9.144,15.856C9.052,15.763 9,15.638 9,15.508L9,15.492C9,15.362 8.948,15.237 8.856,15.144C8.763,15.052 8.638,15 8.508,15L8.492,15C8.362,15 8.237,15.052 8.144,15.144C8.052,15.237 8,15.362 8,15.492L8,15.508C8,15.638 8.052,15.763 8.144,15.856C8.237,15.948 8.362,16 8.492,16L8.508,16C8.638,16 8.763,16.052 8.856,16.144C8.948,16.237 9,16.362 9,16.492L9,16.508C9,16.638 9.052,16.763 9.144,16.856C9.237,16.948 9.362,17 9.492,17L9.508,17C9.638,17 9.763,17.052 9.856,17.144C9.948,17.237 10,17.362 10,17.492L10,17.508C10,17.78 10.22,18 10.492,18C10.801,18 11.199,18 11.508,18C11.78,18 12,18.22 12,18.492C12,18.497 12,18.503 12,18.508C12,18.638 11.948,18.763 11.856,18.856C11.763,18.948 11.638,19 11.508,19C10.951,19 10.049,19 9.492,19C9.362,19 9.237,18.948 9.144,18.856C9.052,18.763 9,18.638 9,18.508C9,18.503 9,18.497 9,18.492C9,18.362 8.948,18.237 8.856,18.144C8.763,18.052 8.638,18 8.508,18L8.492,18C8.362,18 8.237,17.948 8.144,17.856C8.052,17.763 8,17.638 8,17.508L8,17.492C8,17.362 7.948,17.237 7.856,17.144C7.763,17.052 7.638,17 7.508,17L7.492,17C7.362,17 7.237,17.052 7.144,17.144C7.052,17.237 7,17.362 7,17.492L7,17.508C7,17.638 7.052,17.763 7.144,17.856C7.237,17.948 7.362,18 7.492,18L7.508,18C7.638,18 7.763,18.052 7.856,18.144C7.948,18.237 8,18.362 8,18.492L8,18.508C8,18.638 7.948,18.763 7.856,18.856C7.763,18.948 7.638,19 7.508,19L7.492,19C7.362,19 7.237,19.052 7.144,19.144C7.052,19.237 7,19.362 7,19.492L7,19.508C7,19.638 6.948,19.763 6.856,19.856C6.763,19.948 6.638,20 6.508,20L6.492,20C6.362,20 6.237,19.948 6.144,19.856C6.052,19.763 6,19.638 6,19.508C6,18.951 6,18.049 6,17.492C6,17.362 5.948,17.237 5.856,17.144C5.763,17.052 5.638,17 5.508,17C5.503,17 5.497,17 5.492,17C5.362,17 5.237,17.052 5.144,17.144C5.052,17.237 5,17.362 5,17.492C5,18.261 5,19.739 5,20.508C5,20.638 4.948,20.763 4.856,20.856C4.763,20.948 4.638,21 4.508,21C4.503,21 4.497,21 4.492,21C4.362,21 4.237,20.948 4.144,20.856C4.052,20.763 4,20.638 4,20.508C4,19.222 4,15.778 4,14.492C4,14.362 4.052,14.237 4.144,14.144C4.237,14.052 4.362,14 4.492,14C4.497,14 4.503,14 4.508,14C4.638,14 4.763,13.948 4.856,13.856C4.948,13.763 5,13.638 5,13.508L5,13.492ZM10,16.492C10,16.362 10.052,16.237 10.144,16.144C10.237,16.052 10.362,16 10.492,16L10.508,16C10.638,16 10.763,16.052 10.856,16.144C10.948,16.237 11,16.362 11,16.492L11,16.508C11,16.638 10.948,16.763 10.856,16.856C10.763,16.948 10.638,17 10.508,17L10.492,17C10.362,17 10.237,16.948 10.144,16.856C10.052,16.763 10,16.638 10,16.508L10,16.492ZM12.492,18C12.22,18 12,17.78 12,17.508C12,17.503 12,17.497 12,17.492C12,17.362 12.052,17.237 12.144,17.144C12.237,17.052 12.362,17 12.492,17L12.508,17C12.638,17 12.763,16.948 12.856,16.856C12.948,16.763 13,16.638 13,16.508L13,16.492C13,16.362 13.052,16.237 13.144,16.144C13.237,16.052 13.362,16 13.492,16L13.508,16C13.78,16 14,16.22 14,16.492C14,16.801 14,17.199 14,17.508C14,17.78 13.78,18 13.508,18L12.492,18ZM13,15.508C13,15.638 12.948,15.763 12.856,15.856C12.763,15.948 12.638,16 12.508,16L12.492,16C12.362,16 12.237,15.948 12.144,15.856C12.052,15.763 12,15.638 12,15.508L12,15.492C12,15.362 12.052,15.237 12.144,15.144C12.237,15.052 12.362,15 12.492,15L12.508,15C12.638,15 12.763,15.052 12.856,15.144C12.948,15.237 13,15.362 13,15.492L13,15.508ZM13.492,15C13.362,15 13.237,14.948 13.144,14.856C13.052,14.763 13,14.638 13,14.508L13,14.492C13,14.362 13.052,14.237 13.144,14.144C13.237,14.052 13.362,14 13.492,14L13.508,14C13.638,14 13.763,13.948 13.856,13.856C13.948,13.763 14,13.638 14,13.508L14,13.492C14,13.362 14.052,13.237 14.144,13.144C14.237,13.052 14.362,13 14.492,13L14.508,13C14.638,13 14.763,12.948 14.856,12.856C14.948,12.763 15,12.638 15,12.508L15,12.492C15,12.362 15.052,12.237 15.144,12.144C15.237,12.052 15.362,12 15.492,12L15.508,12C15.78,12 16,12.22 16,12.492C16,12.801 16,13.199 16,13.508C16,13.78 15.78,14 15.508,14C15.503,14 15.497,14 15.492,14C15.362,14 15.237,14.052 15.144,14.144C15.052,14.237 15,14.362 15,14.492L15,14.508C15,14.638 15.052,14.763 15.144,14.856C15.237,14.948 15.362,15 15.492,15L15.508,15C15.638,15 15.763,15.052 15.856,15.144C15.948,15.237 16,15.362 16,15.492L16,15.508C16,15.638 16.052,15.763 16.144,15.856C16.237,15.948 16.362,16 16.492,16C17.049,16 17.951,16 18.508,16C18.638,16 18.763,15.948 18.856,15.856C18.948,15.763 19,15.638 19,15.508C19,15.503 19,15.497 19,15.492C19,15.22 18.78,15 18.508,15C18.199,15 17.801,15 17.492,15C17.22,15 17,14.78 17,14.508C17,13.951 17,13.049 17,12.492C17,12.362 17.052,12.237 17.144,12.144C17.237,12.052 17.362,12 17.492,12C17.497,12 17.503,12 17.508,12C17.78,12 18,12.22 18,12.492C18,12.801 18,13.199 18,13.508C18,13.78 18.22,14 18.492,14L19.508,14C19.78,14 20,13.78 20,13.508C20,13.503 20,13.497 20,13.492C20,13.362 19.948,13.237 19.856,13.144C19.763,13.052 19.638,13 19.508,13L19.492,13C19.362,13 19.237,12.948 19.144,12.856C19.052,12.763 19,12.638 19,12.508L19,12.492C19,12.22 19.22,12 19.492,12C19.801,12 20.199,12 20.508,12C20.78,12 21,12.22 21,12.492C21,13.049 21,13.951 21,14.508C21,14.78 21.22,15 21.492,15C21.801,15 22.199,15 22.508,15C22.78,15 23,15.22 23,15.492L23,16.508C23,16.78 22.78,17 22.508,17L21.492,17C21.22,17 21,17.22 21,17.492C21,17.497 21,17.503 21,17.508C21,17.638 21.052,17.763 21.144,17.856C21.237,17.948 21.362,18 21.492,18L21.508,18C21.638,18 21.763,18.052 21.856,18.144C21.948,18.237 22,18.362 22,18.492L22,18.508C22,18.78 21.78,19 21.508,19C21.199,19 20.801,19 20.492,19C20.22,19 20,19.22 20,19.492C20,19.497 20,19.503 20,19.508C20,19.78 20.22,20 20.492,20C20.801,20 21.199,20 21.508,20C21.78,20 22,19.78 22,19.508C22,19.503 22,19.497 22,19.492C22,19.362 22.052,19.237 22.144,19.144C22.237,19.052 22.362,19 22.492,19L22.508,19C22.78,19 23,18.78 23,18.508C23,18.199 23,17.801 23,17.492C23,17.22 23.22,17 23.492,17C23.497,17 23.503,17 23.508,17C23.78,17 24,17.22 24,17.492C24,17.801 24,18.199 24,18.508C24,18.78 24.22,19 24.492,19C24.497,19 24.503,19 24.508,19C24.638,19 24.763,19.052 24.856,19.144C24.948,19.237 25,19.362 25,19.492C25,20.049 25,20.951 25,21.508C25,21.638 25.052,21.763 25.144,21.856C25.237,21.948 25.362,22 25.492,22C25.497,22 25.503,22 25.508,22C25.638,22 25.763,22.052 25.856,22.144C25.948,22.237 26,22.362 26,22.492L26,22.508C26,22.638 25.948,22.763 25.856,22.856C25.763,22.948 25.638,23 25.508,23L25.492,23C25.362,23 25.237,23.052 25.144,23.144C25.052,23.237 25,23.362 25,23.492L25,23.508C25,23.78 25.22,24 25.492,24C25.801,24 26.199,24 26.508,24C26.78,24 27,23.78 27,23.508L27,22.492C27,22.22 27.22,22 27.492,22L28.508,22C28.78,22 29,22.22 29,22.492C29,22.497 29,22.503 29,22.508C29,22.638 28.948,22.763 28.856,22.856C28.763,22.948 28.638,23 28.508,23L28.492,23C28.362,23 28.237,23.052 28.144,23.144C28.052,23.237 28,23.362 28,23.492L28,23.508C28,23.638 28.052,23.763 28.144,23.856C28.237,23.948 28.362,24 28.492,24L28.508,24C28.78,24 29,24.22 29,24.492C29,25.449 29,27.551 29,28.508C29,28.638 28.948,28.763 28.856,28.856C28.763,28.948 28.638,29 28.508,29C27.951,29 27.049,29 26.492,29C26.362,29 26.237,28.948 26.144,28.856C26.052,28.763 26,28.638 26,28.508C26,28.503 26,28.497 26,28.492C26,28.22 26.22,28 26.492,28C26.801,28 27.199,28 27.508,28C27.78,28 28,27.78 28,27.508L28,26.492C28,26.22 27.78,26 27.508,26C27.503,26 27.497,26 27.492,26C27.362,26 27.237,26.052 27.144,26.144C27.052,26.237 27,26.362 27,26.492L27,26.508C27,26.638 26.948,26.763 26.856,26.856C26.763,26.948 26.638,27 26.508,27L26.492,27C26.22,27 26,26.78 26,26.508C26,26.199 26,25.801 26,25.492C26,25.22 25.78,25 25.508,25C25.503,25 25.497,25 25.492,25C25.362,25 25.237,25.052 25.144,25.144C25.052,25.237 25,25.362 25,25.492L25,25.508C25,25.638 24.948,25.763 24.856,25.856C24.763,25.948 24.638,26 24.508,26L24.492,26C24.362,26 24.237,25.948 24.144,25.856C24.052,25.763 24,25.638 24,25.508L24,25.492C24,25.362 23.948,25.237 23.856,25.144C23.763,25.052 23.638,25 23.508,25L23.492,25C23.362,25 23.237,25.052 23.144,25.144C23.052,25.237 23,25.362 23,25.492L23,25.508C23,25.638 23.052,25.763 23.144,25.856C23.237,25.948 23.362,26 23.492,26L23.508,26C23.638,26 23.763,26.052 23.856,26.144C23.948,26.237 24,26.362 24,26.492L24,26.508C24,26.638 23.948,26.763 23.856,26.856C23.763,26.948 23.638,27 23.508,27L23.492,27C23.22,27 23,27.22 23,27.492C23,27.801 23,28.199 23,28.508C23,28.78 22.78,29 22.508,29C22.503,29 22.497,29 22.492,29C22.362,29 22.237,28.948 22.144,28.856C22.052,28.763 22,28.638 22,28.508C22,27.951 22,27.049 22,26.492C22,26.362 21.948,26.237 21.856,26.144C21.763,26.052 21.638,26 21.508,26C21.503,26 21.497,26 21.492,26C21.362,26 21.237,25.948 21.144,25.856C21.052,25.763 21,25.638 21,25.508L21,25.492C21,25.362 20.948,25.237 20.856,25.144C20.763,25.052 20.638,25 20.508,25L20.492,25C20.362,25 20.237,25.052 20.144,25.144C20.052,25.237 20,25.362 20,25.492L20,25.508C20,25.638 19.948,25.763 19.856,25.856C19.763,25.948 19.638,26 19.508,26L19.492,26C19.362,26 19.237,26.052 19.144,26.144C19.052,26.237 19,26.362 19,26.492L19,26.508C19,26.638 18.948,26.763 18.856,26.856C18.763,26.948 18.638,27 18.508,27C17.951,27 17.049,27 16.492,27C16.362,27 16.237,27.052 16.144,27.144C16.052,27.237 16,27.362 16,27.492C16,27.497 16,27.503 16,27.508C16,27.638 16.052,27.763 16.144,27.856C16.237,27.948 16.362,28 16.492,28L16.508,28C16.638,28 16.763,28.052 16.856,28.144C16.948,28.237 17,28.362 17,28.492L17,28.508C17,28.638 16.948,28.763 16.856,28.856C16.763,28.948 16.638,29 16.508,29C15.951,29 15.049,29 14.492,29C14.362,29 14.237,28.948 14.144,28.856C14.052,28.763 14,28.638 14,28.508C14,28.503 14,28.497 14,28.492C14,28.362 14.052,28.237 14.144,28.144C14.237,28.052 14.362,28 14.492,28L14.508,28C14.638,28 14.763,27.948 14.856,27.856C14.948,27.763 15,27.638 15,27.508L15,27.492C15,27.362 14.948,27.237 14.856,27.144C14.763,27.052 14.638,27 14.508,27L14.492,27C14.362,27 14.237,27.052 14.144,27.144C14.052,27.237 14,27.362 14,27.492L14,27.508C14,27.638 13.948,27.763 13.856,27.856C13.763,27.948 13.638,28 13.508,28L13.492,28C13.362,28 13.237,27.948 13.144,27.856C13.052,27.763 13,27.638 13,27.508L13,27.492C13,27.362 12.948,27.237 12.856,27.144C12.763,27.052 12.638,27 12.508,27L12.492,27C12.362,27 12.237,26.948 12.144,26.856C12.052,26.763 12,26.638 12,26.508C12,25.739 12,24.261 12,23.492C12,23.362 12.052,23.237 12.144,23.144C12.237,23.052 12.362,23 12.492,23C12.497,23 12.503,23 12.508,23C12.78,23 13,23.22 13,23.492C13,23.801 13,24.199 13,24.508C13,24.78 13.22,25 13.492,25C13.497,25 13.503,25 13.508,25C13.638,25 13.763,25.052 13.856,25.144C13.948,25.237 14,25.362 14,25.492L14,25.508C14,25.638 14.052,25.763 14.144,25.856C14.237,25.948 14.362,26 14.492,26C15.261,26 16.739,26 17.508,26C17.638,26 17.763,25.948 17.856,25.856C17.948,25.763 18,25.638 18,25.508C18,25.503 18,25.497 18,25.492C18,25.22 17.78,25 17.508,25C17.199,25 16.801,25 16.492,25C16.22,25 16,24.78 16,24.508L16,23.492C16,23.22 16.22,23 16.492,23C16.497,23 16.503,23 16.508,23C16.638,23 16.763,23.052 16.856,23.144C16.948,23.237 17,23.362 17,23.492L17,23.508C17,23.638 17.052,23.763 17.144,23.856C17.237,23.948 17.362,24 17.492,24L17.508,24C17.78,24 18,23.78 18,23.508C18,23.199 18,22.801 18,22.492C18,22.22 18.22,22 18.492,22C18.497,22 18.503,22 18.508,22C18.78,22 19,22.22 19,22.492C19,22.801 19,23.199 19,23.508C19,23.78 19.22,24 19.492,24C19.497,24 19.503,24 19.508,24C19.78,24 20,23.78 20,23.508C20,23.199 20,22.801 20,22.492C20,22.22 19.78,22 19.508,22C19.503,22 19.497,22 19.492,22C19.362,22 19.237,21.948 19.144,21.856C19.052,21.763 19,21.638 19,21.508L19,21.492C19,21.22 18.78,21 18.508,21C18.199,21 17.801,21 17.492,21C17.22,21 17,20.78 17,20.508C17,20.503 17,20.497 17,20.492C17,20.22 17.22,20 17.492,20C17.801,20 18.199,20 18.508,20C18.78,20 19,19.78 19,19.508C19,19.503 19,19.497 19,19.492C19,19.362 18.948,19.237 18.856,19.144C18.763,19.052 18.638,19 18.508,19L18.492,19C18.362,19 18.237,18.948 18.144,18.856C18.052,18.763 18,18.638 18,18.508L18,18.492C18,18.22 18.22,18 18.492,18C18.801,18 19.199,18 19.508,18C19.78,18 20,17.78 20,17.508C20,17.503 20,17.497 20,17.492C20,17.22 19.78,17 19.508,17C18.551,17 16.449,17 15.492,17C15.22,17 15,16.78 15,16.508C15,16.503 15,16.497 15,16.492C15,16.362 14.948,16.237 14.856,16.144C14.763,16.052 14.638,16 14.508,16L14.492,16C14.362,16 14.237,15.948 14.144,15.856C14.052,15.763 14,15.638 14,15.508L14,15.492C14,15.362 13.948,15.237 13.856,15.144C13.763,15.052 13.638,15 13.508,15L13.492,15ZM13,13.508C13,13.638 12.948,13.763 12.856,13.856C12.763,13.948 12.638,14 12.508,14L12.492,14C12.362,14 12.237,13.948 12.144,13.856C12.052,13.763 12,13.638 12,13.508L12,13.492C12,13.362 12.052,13.237 12.144,13.144C12.237,13.052 12.362,13 12.492,13L12.508,13C12.638,13 12.763,13.052 12.856,13.144C12.948,13.237 13,13.362 13,13.492L13,13.508ZM13.492,13C13.362,13 13.237,12.948 13.144,12.856C13.052,12.763 13,12.638 13,12.508L13,12.492C13,12.362 12.948,12.237 12.856,12.144C12.763,12.052 12.638,12 12.508,12L12.492,12C12.362,12 12.237,11.948 12.144,11.856C12.052,11.763 12,11.638 12,11.508C12,10.38 12,7.62 12,6.492C12,6.362 12.052,6.237 12.144,6.144C12.237,6.052 12.362,6 12.492,6C12.497,6 12.503,6 12.508,6C12.638,6 12.763,5.948 12.856,5.856C12.948,5.763 13,5.638 13,5.508L13,5.492C13,5.362 13.052,5.237 13.144,5.144C13.237,5.052 13.362,5 13.492,5L13.508,5C13.638,5 13.763,5.052 13.856,5.144C13.948,5.237 14,5.362 14,5.492L14,5.508C14,5.638 14.052,5.763 14.144,5.856C14.237,5.948 14.362,6 14.492,6L14.508,6C14.638,6 14.763,6.052 14.856,6.144C14.948,6.237 15,6.362 15,6.492L15,6.508C15,6.638 15.052,6.763 15.144,6.856C15.237,6.948 15.362,7 15.492,7L15.508,7C15.638,7 15.763,7.052 15.856,7.144C15.948,7.237 16,7.362 16,7.492L16,7.508C16,7.78 15.78,8 15.508,8C15.199,8 14.801,8 14.492,8C14.22,8 14,7.78 14,7.508C14,7.503 14,7.497 14,7.492C14,7.362 13.948,7.237 13.856,7.144C13.763,7.052 13.638,7 13.508,7L13.492,7C13.362,7 13.237,7.052 13.144,7.144C13.052,7.237 13,7.362 13,7.492L13,7.508C13,7.638 13.052,7.763 13.144,7.856C13.237,7.948 13.362,8 13.492,8L13.508,8C13.78,8 14,8.22 14,8.492C14,8.801 14,9.199 14,9.508C14,9.78 13.78,10 13.508,10C13.503,10 13.497,10 13.492,10C13.362,10 13.237,10.052 13.144,10.144C13.052,10.237 13,10.362 13,10.492L13,10.508C13,10.638 13.052,10.763 13.144,10.856C13.237,10.948 13.362,11 13.492,11L13.508,11C13.638,11 13.763,10.948 13.856,10.856C13.948,10.763 14,10.638 14,10.508L14,10.492C14,10.362 14.052,10.237 14.144,10.144C14.237,10.052 14.362,10 14.492,10L14.508,10C14.78,10 15,10.22 15,10.492C15,10.801 15,11.199 15,11.508C15,11.78 14.78,12 14.508,12C14.503,12 14.497,12 14.492,12C14.362,12 14.237,12.052 14.144,12.144C14.052,12.237 14,12.362 14,12.492L14,12.508C14,12.638 13.948,12.763 13.856,12.856C13.763,12.948 13.638,13 13.508,13L13.492,13ZM15.492,10C15.362,10 15.237,9.948 15.144,9.856C15.052,9.763 15,9.638 15,9.508L15,9.492C15,9.362 15.052,9.237 15.144,9.144C15.237,9.052 15.362,9 15.492,9L15.508,9C15.638,9 15.763,9.052 15.856,9.144C15.948,9.237 16,9.362 16,9.492L16,9.508C16,9.638 15.948,9.763 15.856,9.856C15.763,9.948 15.638,10 15.508,10L15.492,10ZM16,10.492C16,10.22 16.22,10 16.492,10C16.497,10 16.503,10 16.508,10C16.78,10 17,10.22 17,10.492C17,10.801 17,11.199 17,11.508C17,11.78 16.78,12 16.508,12C16.503,12 16.497,12 16.492,12C16.22,12 16,11.78 16,11.508C16,11.199 16,10.801 16,10.492ZM23.492,15C23.22,15 23,14.78 23,14.508C23,14.199 23,13.801 23,13.492C23,13.22 22.78,13 22.508,13C22.503,13 22.497,13 22.492,13C22.362,13 22.237,12.948 22.144,12.856C22.052,12.763 22,12.638 22,12.508L22,12.492C22,12.22 22.22,12 22.492,12C23.449,12 25.551,12 26.508,12C26.78,12 27,12.22 27,12.492C27,12.801 27,13.199 27,13.508C27,13.78 26.78,14 26.508,14L25.492,14C25.22,14 25,13.78 25,13.508C25,13.503 25,13.497 25,13.492C25,13.362 24.948,13.237 24.856,13.144C24.763,13.052 24.638,13 24.508,13L24.492,13C24.22,13 24,13.22 24,13.492C24,13.801 24,14.199 24,14.508C24,14.78 23.78,15 23.508,15C23.503,15 23.497,15 23.492,15ZM27,14.492C27,14.22 27.22,14 27.492,14L28.508,14C28.78,14 29,14.22 29,14.492C29,15.049 29,15.951 29,16.508C29,16.638 28.948,16.763 28.856,16.856C28.763,16.948 28.638,17 28.508,17C28.503,17 28.497,17 28.492,17C28.362,17 28.237,16.948 28.144,16.856C28.052,16.763 28,16.638 28,16.508L28,16.492C28,16.362 27.948,16.237 27.856,16.144C27.763,16.052 27.638,16 27.508,16L27.492,16C27.22,16 27,15.78 27,15.508C27,15.199 27,14.801 27,14.492ZM26.508,16C26.78,16 27,16.22 27,16.492C27,16.801 27,17.199 27,17.508C27,17.78 26.78,18 26.508,18C26.503,18 26.497,18 26.492,18C26.362,18 26.237,17.948 26.144,17.856C26.052,17.763 26,17.638 26,17.508L26,17.492C26,17.22 25.78,17 25.508,17C25.199,17 24.801,17 24.492,17C24.22,17 24,16.78 24,16.508C24,16.503 24,16.497 24,16.492C24,16.362 24.052,16.237 24.144,16.144C24.237,16.052 24.362,16 24.492,16C25.049,16 25.951,16 26.508,16ZM25.508,18C25.638,18 25.763,18.052 25.856,18.144C25.948,18.237 26,18.362 26,18.492L26,18.508C26,18.638 25.948,18.763 25.856,18.856C25.763,18.948 25.638,19 25.508,19L25.492,19C25.362,19 25.237,18.948 25.144,18.856C25.052,18.763 25,18.638 25,18.508L25,18.492C25,18.362 25.052,18.237 25.144,18.144C25.237,18.052 25.362,18 25.492,18L25.508,18ZM26,27.508C26,27.638 25.948,27.763 25.856,27.856C25.763,27.948 25.638,28 25.508,28L25.492,28C25.362,28 25.237,28.052 25.144,28.144C25.052,28.237 25,28.362 25,28.492L25,28.508C25,28.638 24.948,28.763 24.856,28.856C24.763,28.948 24.638,29 24.508,29L24.492,29C24.22,29 24,28.78 24,28.508C24,28.199 24,27.801 24,27.492C24,27.22 24.22,27 24.492,27L25.508,27C25.78,27 26,27.22 26,27.492C26,27.497 26,27.503 26,27.508ZM20.508,26C20.78,26 21,26.22 21,26.492C21,26.801 21,27.199 21,27.508C21,27.78 20.78,28 20.508,28L19.492,28C19.22,28 19,27.78 19,27.508C19,27.503 19,27.497 19,27.492C19,27.362 19.052,27.237 19.144,27.144C19.237,27.052 19.362,27 19.492,27L19.508,27C19.638,27 19.763,26.948 19.856,26.856C19.948,26.763 20,26.638 20,26.508L20,26.492C20,26.362 20.052,26.237 20.144,26.144C20.237,26.052 20.362,26 20.492,26L20.508,26ZM13.492,23C13.362,23 13.237,22.948 13.144,22.856C13.052,22.763 13,22.638 13,22.508L13,22.492C13,22.362 13.052,22.237 13.144,22.144C13.237,22.052 13.362,22 13.492,22L13.508,22C13.638,22 13.763,22.052 13.856,22.144C13.948,22.237 14,22.362 14,22.492L14,22.508C14,22.638 13.948,22.763 13.856,22.856C13.763,22.948 13.638,23 13.508,23L13.492,23ZM13,21.508C13,21.638 12.948,21.763 12.856,21.856C12.763,21.948 12.638,22 12.508,22L12.492,22C12.362,22 12.237,21.948 12.144,21.856C12.052,21.763 12,21.638 12,21.508L12,21.492C12,21.362 12.052,21.237 12.144,21.144C12.237,21.052 12.362,21 12.492,21L12.508,21C12.638,21 12.763,21.052 12.856,21.144C12.948,21.237 13,21.362 13,21.492L13,21.508ZM12,20.508C12,20.638 11.948,20.763 11.856,20.856C11.763,20.948 11.638,21 11.508,21C10.951,21 10.049,21 9.492,21C9.362,21 9.237,20.948 9.144,20.856C9.052,20.763 9,20.638 9,20.508C9,20.503 9,20.497 9,20.492C9,20.362 9.052,20.237 9.144,20.144C9.237,20.052 9.362,20 9.492,20C10.049,20 10.951,20 11.508,20C11.638,20 11.763,20.052 11.856,20.144C11.948,20.237 12,20.362 12,20.492C12,20.497 12,20.503 12,20.508ZM12.492,20C12.362,20 12.237,19.948 12.144,19.856C12.052,19.763 12,19.638 12,19.508L12,19.492C12,19.362 12.052,19.237 12.144,19.144C12.237,19.052 12.362,19 12.492,19L12.508,19C12.638,19 12.763,19.052 12.856,19.144C12.948,19.237 13,19.362 13,19.492L13,19.508C13,19.638 12.948,19.763 12.856,19.856C12.763,19.948 12.638,20 12.508,20L12.492,20ZM23.508,24C23.638,24 23.763,23.948 23.856,23.856C23.948,23.763 24,23.638 24,23.508L24,21.492C24,21.362 23.948,21.237 23.856,21.144C23.763,21.052 23.638,21 23.508,21L21.492,21C21.362,21 21.237,21.052 21.144,21.144C21.052,21.237 21,21.362 21,21.492L21,23.508C21,23.638 21.052,23.763 21.144,23.856C21.237,23.948 21.362,24 21.492,24L23.508,24ZM14.492,22C14.22,22 14,21.78 14,21.508C14,21.199 14,20.801 14,20.492C14,20.22 14.22,20 14.492,20C14.497,20 14.503,20 14.508,20C14.78,20 15,19.78 15,19.508C15,19.199 15,18.801 15,18.492C15,18.22 15.22,18 15.492,18L16.508,18C16.78,18 17,18.22 17,18.492C17,18.497 17,18.503 17,18.508C17,18.638 16.948,18.763 16.856,18.856C16.763,18.948 16.638,19 16.508,19L16.492,19C16.22,19 16,19.22 16,19.492C16,19.801 16,20.199 16,20.508C16,20.78 15.78,21 15.508,21C15.503,21 15.497,21 15.492,21C15.362,21 15.237,21.052 15.144,21.144C15.052,21.237 15,21.362 15,21.492L15,21.508C15,21.638 14.948,21.763 14.856,21.856C14.763,21.948 14.638,22 14.508,22L14.492,22ZM16,21.492C16,21.362 16.052,21.237 16.144,21.144C16.237,21.052 16.362,21 16.492,21L16.508,21C16.638,21 16.763,21.052 16.856,21.144C16.948,21.237 17,21.362 17,21.492L17,21.508C17,21.638 16.948,21.763 16.856,21.856C16.763,21.948 16.638,22 16.508,22L16.492,22C16.362,22 16.237,21.948 16.144,21.856C16.052,21.763 16,21.638 16,21.508L16,21.492ZM17.492,10C17.362,10 17.237,9.948 17.144,9.856C17.052,9.763 17,9.638 17,9.508C17,8.951 17,8.049 17,7.492C17,7.22 17.22,7 17.492,7C17.801,7 18.199,7 18.508,7C18.78,7 19,6.78 19,6.508C19,6.503 19,6.497 19,6.492C19,6.362 18.948,6.237 18.856,6.144C18.763,6.052 18.638,6 18.508,6C17.951,6 17.049,6 16.492,6C16.362,6 16.237,5.948 16.144,5.856C16.052,5.763 16,5.638 16,5.508C16,5.503 16,5.497 16,5.492C16,5.362 15.948,5.237 15.856,5.144C15.763,5.052 15.638,5 15.508,5L15.492,5C15.362,5 15.237,4.948 15.144,4.856C15.052,4.763 15,4.638 15,4.508L15,4.492C15,4.362 15.052,4.237 15.144,4.144C15.237,4.052 15.362,4 15.492,4C16.049,4 16.951,4 17.508,4C17.638,4 17.763,4.052 17.856,4.144C17.948,4.237 18,4.362 18,4.492C18,4.497 18,4.503 18,4.508C18,4.78 18.22,5 18.492,5C18.801,5 19.199,5 19.508,5C19.78,5 20,4.78 20,4.508C20,4.503 20,4.497 20,4.492C20,4.362 20.052,4.237 20.144,4.144C20.237,4.052 20.362,4 20.492,4L20.508,4C20.638,4 20.763,4.052 20.856,4.144C20.948,4.237 21,4.362 21,4.492C21,5.049 21,5.951 21,6.508C21,6.638 20.948,6.763 20.856,6.856C20.763,6.948 20.638,7 20.508,7C20.503,7 20.497,7 20.492,7C20.362,7 20.237,7.052 20.144,7.144C20.052,7.237 20,7.362 20,7.492L20,7.508C20,7.638 19.948,7.763 19.856,7.856C19.763,7.948 19.638,8 19.508,8L19.492,8C19.362,8 19.237,8.052 19.144,8.144C19.052,8.237 19,8.362 19,8.492L19,8.508C19,8.638 18.948,8.763 18.856,8.856C18.763,8.948 18.638,9 18.508,9L18.492,9C18.362,9 18.237,9.052 18.144,9.144C18.052,9.237 18,9.362 18,9.492L18,9.508C18,9.638 17.948,9.763 17.856,9.856C17.763,9.948 17.638,10 17.508,10L17.492,10ZM20,8.492C20,8.362 20.052,8.237 20.144,8.144C20.237,8.052 20.362,8 20.492,8L20.508,8C20.638,8 20.763,8.052 20.856,8.144C20.948,8.237 21,8.362 21,8.492L21,8.508C21,8.638 20.948,8.763 20.856,8.856C20.763,8.948 20.638,9 20.508,9L20.492,9C20.362,9 20.237,8.948 20.144,8.856C20.052,8.763 20,8.638 20,8.508L20,8.492ZM19.508,9C19.638,9 19.763,9.052 19.856,9.144C19.948,9.237 20,9.362 20,9.492L20,9.508C20,9.638 19.948,9.763 19.856,9.856C19.763,9.948 19.638,10 19.508,10L19.492,10C19.362,10 19.237,9.948 19.144,9.856C19.052,9.763 19,9.638 19,9.508L19,9.492C19,9.362 19.052,9.237 19.144,9.144C19.237,9.052 19.362,9 19.492,9L19.508,9ZM18.508,10C18.638,10 18.763,10.052 18.856,10.144C18.948,10.237 19,10.362 19,10.492L19,10.508C19,10.638 18.948,10.763 18.856,10.856C18.763,10.948 18.638,11 18.508,11L18.492,11C18.362,11 18.237,10.948 18.144,10.856C18.052,10.763 18,10.638 18,10.508L18,10.492C18,10.362 18.052,10.237 18.144,10.144C18.237,10.052 18.362,10 18.492,10L18.508,10ZM12.508,28C12.638,28 12.763,28.052 12.856,28.144C12.948,28.237 13,28.362 13,28.492L13,28.508C13,28.638 12.948,28.763 12.856,28.856C12.763,28.948 12.638,29 12.508,29L12.492,29C12.362,29 12.237,28.948 12.144,28.856C12.052,28.763 12,28.638 12,28.508L12,28.492C12,28.362 12.052,28.237 12.144,28.144C12.237,28.052 12.362,28 12.492,28L12.508,28ZM20,10.492C20,10.362 20.052,10.237 20.144,10.144C20.237,10.052 20.362,10 20.492,10L20.508,10C20.638,10 20.763,10.052 20.856,10.144C20.948,10.237 21,10.362 21,10.492L21,10.508C21,10.638 20.948,10.763 20.856,10.856C20.763,10.948 20.638,11 20.508,11L20.492,11C20.362,11 20.237,10.948 20.144,10.856C20.052,10.763 20,10.638 20,10.508L20,10.492ZM22,22.492C22,22.362 22.052,22.237 22.144,22.144C22.237,22.052 22.362,22 22.492,22L22.508,22C22.638,22 22.763,22.052 22.856,22.144C22.948,22.237 23,22.362 23,22.492L23,22.508C23,22.638 22.948,22.763 22.856,22.856C22.763,22.948 22.638,23 22.508,23L22.492,23C22.362,23 22.237,22.948 22.144,22.856C22.052,22.763 22,22.638 22,22.508L22,22.492ZM4.492,29C4.362,29 4.237,28.948 4.144,28.856C4.052,28.763 4,28.638 4,28.508L4,22.492C4,22.362 4.052,22.237 4.144,22.144C4.237,22.052 4.362,22 4.492,22L10.508,22C10.638,22 10.763,22.052 10.856,22.144C10.948,22.237 11,22.362 11,22.492L11,28.508C11,28.638 10.948,28.763 10.856,28.856C10.763,28.948 10.638,29 10.508,29L4.492,29ZM10,23.492C10,23.22 9.78,23 9.508,23L5.492,23C5.22,23 5,23.22 5,23.492L5,27.508C5,27.78 5.22,28 5.492,28L9.508,28C9.78,28 10,27.78 10,27.508L10,23.492ZM6.492,27C6.362,27 6.237,26.948 6.144,26.856C6.052,26.763 6,26.638 6,26.508L6,24.492C6,24.362 6.052,24.237 6.144,24.144C6.237,24.052 6.362,24 6.492,24L8.508,24C8.638,24 8.763,24.052 8.856,24.144C8.948,24.237 9,24.362 9,24.492L9,26.508C9,26.638 8.948,26.763 8.856,26.856C8.763,26.948 8.638,27 8.508,27L6.492,27Z"/>
    </g>
</svg>
