<?xml version="1.0" encoding="UTF-8" standalone="no"?>
<!DOCTYPE svg PUBLIC "-//W3C//DTD SVG 1.1//EN" "http://www.w3.org/Graphics/SVG/1.1/DTD/svg11.dtd">
<svg width="100%" height="100%" viewBox="0 0 33 33" version="1.1" xmlns="http://www.w3.org/2000/svg" xmlns:xlink="http://www.w3.org/1999/xlink" xml:space="preserve" xmlns:serif="http://www.serif.com/" style="fill-rule:evenodd;clip-rule:evenodd;stroke-linejoin:round;stroke-miterlimit:2;">
    <g transform="matrix(1.32,0,0,1.32,-5.28,-5.28)">
        <path d="M4.492,11C4.362,11 4.237,10.948 4.144,10.856C4.052,10.763 4,10.638 4,10.508L4,4.492C4,4.362 4.052,4.237 4.144,4.144C4.237,4.052 4.362,4 4.492,4L10.508,4C10.638,4 10.763,4.052 10.856,4.144C10.948,4.237 11,4.362 11,4.492L11,10.508C11,10.638 10.948,10.763 10.856,10.856C10.763,10.948 10.638,11 10.508,11L4.492,11ZM10,5.492C10,5.22 9.78,5 9.508,5L5.492,5C5.22,5 5,5.22 5,5.492L5,9.508C5,9.78 5.22,10 5.492,10L9.508,10C9.78,10 10,9.78 10,9.508L10,5.492ZM6.492,9C6.362,9 6.237,8.948 6.144,8.856C6.052,8.763 6,8.638 6,8.508L6,6.492C6,6.362 6.052,6.237 6.144,6.144C6.237,6.052 6.362,6 6.492,6L8.508,6C8.638,6 8.763,6.052 8.856,6.144C8.948,6.237 9,6.362 9,6.492L9,8.508C9,8.638 8.948,8.763 8.856,8.856C8.763,8.948 8.638,9 8.508,9L6.492,9ZM22.492,11C22.362,11 22.237,10.948 22.144,10.856C22.052,10.763 22,10.638 22,10.508L22,4.492C22,4.362 22.052,4.237 22.144,4.144C22.237,4.052 22.362,4 22.492,4L28.508,4C28.638,4 28.763,4.052 28.856,4.144C28.948,4.237 29,4.362 29,4.492L29,10.508C29,10.638 28.948,10.763 28.856,10.856C28.763,10.948 28.638,11 28.508,11L22.492,11ZM28,5.492C28,5.22 27.78,5 27.508,5L23.492,5C23.22,5 23,5.22 23,5.492L23,9.508C23,9.78 23.22,10 23.492,10L27.508,10C27.78,10 28,9.78 28,9.508L28,5.492ZM24.492,9C24.362,9 24.237,8.948 24.144,8.856C24.052,8.763 24,8.638 24,8.508L24,6.492C24,6.362 24.052,6.237 24.144,6.144C24.237,6.052 24.362,6 24.492,6L26.508,6C26.638,6 26.763,6.052 26.856,6.144C26.948,6.237 27,6.362 27,6.492L27,8.508C27,8.638 26.948,8.763 26.856,8.856C26.763,8.948 26.638,9 26.508,9L24.492,9ZM4.492,15C4.362,15 4.237,14.948 4.144,14.856C4.052,14.763 4,14.638 4,14.508C4,13.951 4,13.049 4,12.492C4,12.362 4.052,12.237 4.144,12.144C4.237,12.052 4.362,12 4.492,12C4.497,12 4.503,12 4.508,12C4.638,12 4.763,12.052 4.856,12.144C4.948,12.237 5,12.362 5,12.492C5,13.049 5,13.951 5,14.508C5,14.638 4.948,14.763 4.856,14.856C4.763,14.948 4.638,15 4.508,15C4.503,15 4.497,15 4.492,15ZM6.492,20C6.22,20 6,19.78 6,19.508C6,19.199 6,18.801 6,18.492C6,18.22 6.22,18 6.492,18L7.508,18C7.78,18 8,18.22 8,18.492C8,18.497 8,18.503 8,18.508C8,18.638 7.948,18.763 7.856,18.856C7.763,18.948 7.638,19 7.508,19L7.492,19C7.362,19 7.237,19.052 7.144,19.144C7.052,19.237 7,19.362 7,19.492L7,19.508C7,19.638 6.948,19.763 6.856,19.856C6.763,19.948 6.638,20 6.508,20L6.492,20ZM7,20.492C7,20.22 7.22,20 7.492,20C7.801,20 8.199,20 8.508,20C8.78,20 9,20.22 9,20.492C9,20.497 9,20.503 9,20.508C9,20.78 8.78,21 8.508,21C8.199,21 7.801,21 7.492,21C7.22,21 7,20.78 7,20.508C7,20.503 7,20.497 7,20.492ZM4.492,29C4.362,29 4.237,28.948 4.144,28.856C4.052,28.763 4,28.638 4,28.508L4,22.492C4,22.362 4.052,22.237 4.144,22.144C4.237,22.052 4.362,22 4.492,22L10.508,22C10.638,22 10.763,22.052 10.856,22.144C10.948,22.237 11,22.362 11,22.492L11,28.508C11,28.638 10.948,28.763 10.856,28.856C10.763,28.948 10.638,29 10.508,29L4.492,29ZM10,23.492C10,23.22 9.78,23 9.508,23L5.492,23C5.22,23 5,23.22 5,23.492L5,27.508C5,27.78 5.22,28 5.492,28L9.508,28C9.78,28 10,27.78 10,27.508L10,23.492ZM6.492,27C6.362,27 6.237,26.948 6.144,26.856C6.052,26.763 6,26.638 6,26.508L6,24.492C6,24.362 6.052,24.237 6.144,24.144C6.237,24.052 6.362,24 6.492,24L8.508,24C8.638,24 8.763,24.052 8.856,24.144C8.948,24.237 9,24.362 9,24.492L9,26.508C9,26.638 8.948,26.763 8.856,26.856C8.763,26.948 8.638,27 8.508,27L6.492,27ZM27,12.508C27,12.78 26.78,13 26.508,13C25.551,13 23.449,13 22.492,13C22.22,13 22,12.78 22,12.508C22,12.503 22,12.497 22,12.492C22,12.22 22.22,12 22.492,12C23.449,12 25.551,12 26.508,12C26.78,12 27,12.22 27,12.492C27,12.497 27,12.503 27,12.508ZM12.508,28C12.638,28 12.763,28.052 12.856,28.144C12.948,28.237 13,28.362 13,28.492L13,28.508C13,28.638 12.948,28.763 12.856,28.856C12.763,28.948 12.638,29 12.508,29L12.492,29C12.362,29 12.237,28.948 12.144,28.856C12.052,28.763 12,28.638 12,28.508L12,28.492C12,28.362 12.052,28.237 12.144,28.144C12.237,28.052 12.362,28 12.492,28L12.508,28ZM7.492,14C7.22,14 7,13.78 7,13.508C7,13.503 7,13.497 7,13.492C7,13.362 6.948,13.237 6.856,13.144C6.763,13.052 6.638,13 6.508,13L6.492,13C6.362,13 6.237,12.948 6.144,12.856C6.052,12.763 6,12.638 6,12.508L6,12.492C6,12.22 6.22,12 6.492,12C7.449,12 9.551,12 10.508,12C10.78,12 11,12.22 11,12.492C11,12.497 11,12.503 11,12.508C11,12.78 10.78,13 10.508,13C10.199,13 9.801,13 9.492,13C9.22,13 9,13.22 9,13.492C9,13.497 9,13.503 9,13.508C9,13.78 8.78,14 8.508,14C8.199,14 7.801,14 7.492,14ZM12.508,21C12.638,21 12.763,21.052 12.856,21.144C12.948,21.237 13,21.362 13,21.492L13,21.508C13,21.638 12.948,21.763 12.856,21.856C12.763,21.948 12.638,22 12.508,22L12.492,22C12.362,22 12.237,21.948 12.144,21.856C12.052,21.763 12,21.638 12,21.508L12,21.492C12,21.362 12.052,21.237 12.144,21.144C12.237,21.052 12.362,21 12.492,21L12.508,21ZM5.492,17C5.362,17 5.237,16.948 5.144,16.856C5.052,16.763 5,16.638 5,16.508L5,16.492C5,16.362 5.052,16.237 5.144,16.144C5.237,16.052 5.362,16 5.492,16L5.508,16C5.638,16 5.763,16.052 5.856,16.144C5.948,16.237 6,16.362 6,16.492L6,16.508C6,16.638 5.948,16.763 5.856,16.856C5.763,16.948 5.638,17 5.508,17L5.492,17ZM20.492,5C20.362,5 20.237,4.948 20.144,4.856C20.052,4.763 20,4.638 20,4.508L20,4.492C20,4.362 20.052,4.237 20.144,4.144C20.237,4.052 20.362,4 20.492,4L20.508,4C20.638,4 20.763,4.052 20.856,4.144C20.948,4.237 21,4.362 21,4.492L21,4.508C21,4.638 20.948,4.763 20.856,4.856C20.763,4.948 20.638,5 20.508,5L20.492,5ZM6.492,16C6.22,16 6,15.78 6,15.508C6,15.199 6,14.801 6,14.492C6,14.22 6.22,14 6.492,14C6.497,14 6.503,14 6.508,14C6.78,14 7,14.22 7,14.492C7,14.801 7,15.199 7,15.508C7,15.78 6.78,16 6.508,16C6.503,16 6.497,16 6.492,16ZM20,10.492C20,10.362 20.052,10.237 20.144,10.144C20.237,10.052 20.362,10 20.492,10L20.508,10C20.638,10 20.763,10.052 20.856,10.144C20.948,10.237 21,10.362 21,10.492L21,10.508C21,10.638 20.948,10.763 20.856,10.856C20.763,10.948 20.638,11 20.508,11L20.492,11C20.362,11 20.237,10.948 20.144,10.856C20.052,10.763 20,10.638 20,10.508L20,10.492ZM26.492,17C26.362,17 26.237,16.948 26.144,16.856C26.052,16.763 26,16.638 26,16.508L26,16.492C26,16.22 26.22,16 26.492,16C26.801,16 27.199,16 27.508,16C27.78,16 28,15.78 28,15.508C28,15.503 28,15.497 28,15.492C28,15.362 27.948,15.237 27.856,15.144C27.763,15.052 27.638,15 27.508,15L27.492,15C27.22,15 27,14.78 27,14.508C27,14.199 27,13.801 27,13.492C27,13.22 27.22,13 27.492,13C27.497,13 27.503,13 27.508,13C27.638,13 27.763,13.052 27.856,13.144C27.948,13.237 28,13.362 28,13.492L28,13.508C28,13.638 28.052,13.763 28.144,13.856C28.237,13.948 28.362,14 28.492,14L28.508,14C28.638,14 28.763,14.052 28.856,14.144C28.948,14.237 29,14.362 29,14.492C29,15.049 29,15.951 29,16.508C29,16.638 28.948,16.763 28.856,16.856C28.763,16.948 28.638,17 28.508,17C28.503,17 28.497,17 28.492,17C28.362,17 28.237,17.052 28.144,17.144C28.052,17.237 28,17.362 28,17.492L28,17.508C28,17.638 28.052,17.763 28.144,17.856C28.237,17.948 28.362,18 28.492,18L28.508,18C28.78,18 29,18.22 29,18.492C29,18.801 29,19.199 29,19.508C29,19.78 28.78,20 28.508,20C28.503,20 28.497,20 28.492,20C28.362,20 28.237,19.948 28.144,19.856C28.052,19.763 28,19.638 28,19.508L28,19.492C28,19.362 27.948,19.237 27.856,19.144C27.763,19.052 27.638,19 27.508,19L27.492,19C27.22,19 27,18.78 27,18.508C27,18.199 27,17.801 27,17.492C27,17.22 26.78,17 26.508,17C26.503,17 26.497,17 26.492,17ZM12,20.508C12,20.78 11.78,21 11.508,21C11.199,21 10.801,21 10.492,21C10.22,21 10,20.78 10,20.508C10,20.503 10,20.497 10,20.492C10,20.22 10.22,20 10.492,20C10.801,20 11.199,20 11.508,20C11.78,20 12,20.22 12,20.492C12,20.497 12,20.503 12,20.508ZM10.508,14C10.638,14 10.763,14.052 10.856,14.144C10.948,14.237 11,14.362 11,14.492L11,14.508C11,14.638 10.948,14.763 10.856,14.856C10.763,14.948 10.638,15 10.508,15L10.492,15C10.362,15 10.237,14.948 10.144,14.856C10.052,14.763 10,14.638 10,14.508L10,14.492C10,14.362 10.052,14.237 10.144,14.144C10.237,14.052 10.362,14 10.492,14L10.508,14ZM11,15.492C11,15.362 11.052,15.237 11.144,15.144C11.237,15.052 11.362,15 11.492,15L11.508,15C11.638,15 11.763,15.052 11.856,15.144C11.948,15.237 12,15.362 12,15.492C12,16.049 12,16.951 12,17.508C12,17.638 12.052,17.763 12.144,17.856C12.237,17.948 12.362,18 12.492,18C12.497,18 12.503,18 12.508,18C12.638,18 12.763,18.052 12.856,18.144C12.948,18.237 13,18.362 13,18.492L13,18.508C13,18.638 12.948,18.763 12.856,18.856C12.763,18.948 12.638,19 12.508,19C11.739,19 10.261,19 9.492,19C9.362,19 9.237,18.948 9.144,18.856C9.052,18.763 9,18.638 9,18.508L9,15.492C9,15.362 9.052,15.237 9.144,15.144C9.237,15.052 9.362,15 9.492,15C9.497,15 9.503,15 9.508,15C9.638,15 9.763,15.052 9.856,15.144C9.948,15.237 10,15.362 10,15.492L10,15.508C10,15.638 10.052,15.763 10.144,15.856C10.237,15.948 10.362,16 10.492,16L10.508,16C10.638,16 10.763,15.948 10.856,15.856C10.948,15.763 11,15.638 11,15.508L11,15.492ZM13.492,18C13.362,18 13.237,17.948 13.144,17.856C13.052,17.763 13,17.638 13,17.508C13,16.951 13,16.049 13,15.492C13,15.362 13.052,15.237 13.144,15.144C13.237,15.052 13.362,15 13.492,15C13.497,15 13.503,15 13.508,15C13.78,15 14,15.22 14,15.492C14,15.801 14,16.199 14,16.508C14,16.78 14.22,17 14.492,17C14.497,17 14.503,17 14.508,17C14.638,17 14.763,17.052 14.856,17.144C14.948,17.237 15,17.362 15,17.492C15,18.049 15,18.951 15,19.508C15,19.638 14.948,19.763 14.856,19.856C14.763,19.948 14.638,20 14.508,20C14.503,20 14.497,20 14.492,20C14.362,20 14.237,20.052 14.144,20.144C14.052,20.237 14,20.362 14,20.492L14,20.508C14,20.638 13.948,20.763 13.856,20.856C13.763,20.948 13.638,21 13.508,21L13.492,21C13.22,21 13,20.78 13,20.508C13,20.199 13,19.801 13,19.492C13,19.22 13.22,19 13.492,19C13.497,19 13.503,19 13.508,19C13.638,19 13.763,18.948 13.856,18.856C13.948,18.763 14,18.638 14,18.508L14,18.492C14,18.362 13.948,18.237 13.856,18.144C13.763,18.052 13.638,18 13.508,18L13.492,18ZM14.492,15C14.362,15 14.237,14.948 14.144,14.856C14.052,14.763 14,14.638 14,14.508L14,14.492C14,14.362 14.052,14.237 14.144,14.144C14.237,14.052 14.362,14 14.492,14L14.508,14C14.638,14 14.763,14.052 14.856,14.144C14.948,14.237 15,14.362 15,14.492L15,14.508C15,14.638 14.948,14.763 14.856,14.856C14.763,14.948 14.638,15 14.508,15L14.492,15ZM14,13.508C14,13.638 13.948,13.763 13.856,13.856C13.763,13.948 13.638,14 13.508,14C13.503,14 13.497,14 13.492,14C13.22,14 13,13.78 13,13.508C13,13.199 13,12.801 13,12.492C13,12.22 12.78,12 12.508,12C12.503,12 12.497,12 12.492,12C12.362,12 12.237,11.948 12.144,11.856C12.052,11.763 12,11.638 12,11.508C12,10.38 12,7.62 12,6.492C12,6.362 12.052,6.237 12.144,6.144C12.237,6.052 12.362,6 12.492,6C12.497,6 12.503,6 12.508,6C12.638,6 12.763,6.052 12.856,6.144C12.948,6.237 13,6.362 13,6.492L13,6.508C13,6.638 13.052,6.763 13.144,6.856C13.237,6.948 13.362,7 13.492,7L13.508,7C13.78,7 14,7.22 14,7.492C14,7.801 14,8.199 14,8.508C14,8.78 13.78,9 13.508,9C13.503,9 13.497,9 13.492,9C13.22,9 13,9.22 13,9.492C13,9.801 13,10.199 13,10.508C13,10.78 13.22,11 13.492,11C13.497,11 13.503,11 13.508,11C13.638,11 13.763,11.052 13.856,11.144C13.948,11.237 14,11.362 14,11.492C14,12.049 14,12.951 14,13.508ZM13.492,6C13.362,6 13.237,5.948 13.144,5.856C13.052,5.763 13,5.638 13,5.508L13,5.492C13,5.362 13.052,5.237 13.144,5.144C13.237,5.052 13.362,5 13.492,5L13.508,5C13.638,5 13.763,5.052 13.856,5.144C13.948,5.237 14,5.362 14,5.492L14,5.508C14,5.638 13.948,5.763 13.856,5.856C13.763,5.948 13.638,6 13.508,6L13.492,6ZM14,6.492C14,6.22 14.22,6 14.492,6C14.801,6 15.199,6 15.508,6C15.78,6 16,6.22 16,6.492L16,7.508C16,7.78 15.78,8 15.508,8C15.503,8 15.497,8 15.492,8C15.362,8 15.237,7.948 15.144,7.856C15.052,7.763 15,7.638 15,7.508L15,7.492C15,7.362 14.948,7.237 14.856,7.144C14.763,7.052 14.638,7 14.508,7L14.492,7C14.362,7 14.237,6.948 14.144,6.856C14.052,6.763 14,6.638 14,6.508L14,6.492ZM14.492,11C14.362,11 14.237,10.948 14.144,10.856C14.052,10.763 14,10.638 14,10.508L14,10.492C14,10.362 14.052,10.237 14.144,10.144C14.237,10.052 14.362,10 14.492,10L14.508,10C14.638,10 14.763,10.052 14.856,10.144C14.948,10.237 15,10.362 15,10.492L15,10.508C15,10.638 14.948,10.763 14.856,10.856C14.763,10.948 14.638,11 14.508,11L14.492,11ZM15.492,10C15.362,10 15.237,9.948 15.144,9.856C15.052,9.763 15,9.638 15,9.508L15,9.492C15,9.362 15.052,9.237 15.144,9.144C15.237,9.052 15.362,9 15.492,9C16.049,9 16.951,9 17.508,9C17.638,9 17.763,8.948 17.856,8.856C17.948,8.763 18,8.638 18,8.508C18,8.503 18,8.497 18,8.492C18,8.362 17.948,8.237 17.856,8.144C17.763,8.052 17.638,8 17.508,8L17.492,8C17.362,8 17.237,7.948 17.144,7.856C17.052,7.763 17,7.638 17,7.508L17,7.492C17,7.362 17.052,7.237 17.144,7.144C17.237,7.052 17.362,7 17.492,7L17.508,7C17.638,7 17.763,6.948 17.856,6.856C17.948,6.763 18,6.638 18,6.508L18,6.492C18,6.362 17.948,6.237 17.856,6.144C17.763,6.052 17.638,6 17.508,6L17.492,6C17.22,6 17,5.78 17,5.508C17,5.199 17,4.801 17,4.492C17,4.22 17.22,4 17.492,4C17.497,4 17.503,4 17.508,4C17.638,4 17.763,4.052 17.856,4.144C17.948,4.237 18,4.362 18,4.492L18,4.508C18,4.78 18.22,5 18.492,5C18.801,5 19.199,5 19.508,5C19.78,5 20,5.22 20,5.492C20,5.497 20,5.503 20,5.508C20,5.638 19.948,5.763 19.856,5.856C19.763,5.948 19.638,6 19.508,6L19.492,6C19.362,6 19.237,6.052 19.144,6.144C19.052,6.237 19,6.362 19,6.492L19,6.508C19,6.78 19.22,7 19.492,7C19.801,7 20.199,7 20.508,7C20.78,7 21,7.22 21,7.492L21,8.508C21,8.78 20.78,9 20.508,9C20.503,9 20.497,9 20.492,9C20.362,9 20.237,8.948 20.144,8.856C20.052,8.763 20,8.638 20,8.508L20,8.492C20,8.362 19.948,8.237 19.856,8.144C19.763,8.052 19.638,8 19.508,8L19.492,8C19.362,8 19.237,8.052 19.144,8.144C19.052,8.237 19,8.362 19,8.492L19,8.508C19,8.638 19.052,8.763 19.144,8.856C19.237,8.948 19.362,9 19.492,9L19.508,9C19.638,9 19.763,9.052 19.856,9.144C19.948,9.237 20,9.362 20,9.492L20,9.508C20,9.638 19.948,9.763 19.856,9.856C19.763,9.948 19.638,10 19.508,10L19.492,10C19.22,10 19,10.22 19,10.492C19,10.801 19,11.199 19,11.508C19,11.78 19.22,12 19.492,12L20.508,12C20.78,12 21,12.22 21,12.492L21,13.508C21,13.78 21.22,14 21.492,14C21.497,14 21.503,14 21.508,14C21.638,14 21.763,14.052 21.856,14.144C21.948,14.237 22,14.362 22,14.492L22,14.508C22,14.638 21.948,14.763 21.856,14.856C21.763,14.948 21.638,15 21.508,15L21.492,15C21.362,15 21.237,15.052 21.144,15.144C21.052,15.237 21,15.362 21,15.492L21,15.508C21,15.638 20.948,15.763 20.856,15.856C20.763,15.948 20.638,16 20.508,16L20.492,16C20.362,16 20.237,15.948 20.144,15.856C20.052,15.763 20,15.638 20,15.508L20,15.492C20,15.362 19.948,15.237 19.856,15.144C19.763,15.052 19.638,15 19.508,15L19.492,15C19.22,15 19,15.22 19,15.492C19,15.801 19,16.199 19,16.508C19,16.78 18.78,17 18.508,17C18.503,17 18.497,17 18.492,17C18.362,17 18.237,17.052 18.144,17.144C18.052,17.237 18,17.362 18,17.492L18,17.508C18,17.78 17.78,18 17.508,18C17.199,18 16.801,18 16.492,18C16.22,18 16,17.78 16,17.508C16,17.503 16,17.497 16,17.492C16,17.362 16.052,17.237 16.144,17.144C16.237,17.052 16.362,17 16.492,17L16.508,17C16.638,17 16.763,16.948 16.856,16.856C16.948,16.763 17,16.638 17,16.508L17,16.492C17,16.362 17.052,16.237 17.144,16.144C17.237,16.052 17.362,16 17.492,16L17.508,16C17.638,16 17.763,15.948 17.856,15.856C17.948,15.763 18,15.638 18,15.508L18,15.492C18,15.362 17.948,15.237 17.856,15.144C17.763,15.052 17.638,15 17.508,15L17.492,15C17.22,15 17,14.78 17,14.508C17,14.199 17,13.801 17,13.492C17,13.22 16.78,13 16.508,13C16.503,13 16.497,13 16.492,13C16.362,13 16.237,13.052 16.144,13.144C16.052,13.237 16,13.362 16,13.492L16,13.508C16,13.638 15.948,13.763 15.856,13.856C15.763,13.948 15.638,14 15.508,14L15.492,14C15.362,14 15.237,13.948 15.144,13.856C15.052,13.763 15,13.638 15,13.508C15,12.951 15,12.049 15,11.492C15,11.362 15.052,11.237 15.144,11.144C15.237,11.052 15.362,11 15.492,11C15.497,11 15.503,11 15.508,11C15.638,11 15.763,10.948 15.856,10.856C15.948,10.763 16,10.638 16,10.508L16,10.492C16,10.362 15.948,10.237 15.856,10.144C15.763,10.052 15.638,10 15.508,10L15.492,10ZM21,16.492C21,16.22 21.22,16 21.492,16C21.801,16 22.199,16 22.508,16C22.78,16 23,15.78 23,15.508C23,15.503 23,15.497 23,15.492C23,15.362 23.052,15.237 23.144,15.144C23.237,15.052 23.362,15 23.492,15L23.508,15C23.638,15 23.763,15.052 23.856,15.144C23.948,15.237 24,15.362 24,15.492L24,15.508C24,15.638 24.052,15.763 24.144,15.856C24.237,15.948 24.362,16 24.492,16L24.508,16C24.638,16 24.763,16.052 24.856,16.144C24.948,16.237 25,16.362 25,16.492L25,16.508C25,16.638 24.948,16.763 24.856,16.856C24.763,16.948 24.638,17 24.508,17L24.492,17C24.362,17 24.237,17.052 24.144,17.144C24.052,17.237 24,17.362 24,17.492L24,17.508C24,17.638 24.052,17.763 24.144,17.856C24.237,17.948 24.362,18 24.492,18L24.508,18C24.638,18 24.763,17.948 24.856,17.856C24.948,17.763 25,17.638 25,17.508L25,17.492C25,17.362 25.052,17.237 25.144,17.144C25.237,17.052 25.362,17 25.492,17L25.508,17C25.78,17 26,17.22 26,17.492C26,17.801 26,18.199 26,18.508C26,18.78 25.78,19 25.508,19C25.503,19 25.497,19 25.492,19C25.22,19 25,19.22 25,19.492C25,19.801 25,20.199 25,20.508C25,20.78 25.22,21 25.492,21C25.497,21 25.503,21 25.508,21C25.638,21 25.763,21.052 25.856,21.144C25.948,21.237 26,21.362 26,21.492L26,21.508C26,21.638 25.948,21.763 25.856,21.856C25.763,21.948 25.638,22 25.508,22L25.492,22C25.362,22 25.237,22.052 25.144,22.144C25.052,22.237 25,22.362 25,22.492L25,22.508C25,22.638 25.052,22.763 25.144,22.856C25.237,22.948 25.362,23 25.492,23L25.508,23C25.638,23 25.763,23.052 25.856,23.144C25.948,23.237 26,23.362 26,23.492L26,23.508C26,23.638 25.948,23.763 25.856,23.856C25.763,23.948 25.638,24 25.508,24L25.492,24C25.362,24 25.237,24.052 25.144,24.144C25.052,24.237 25,24.362 25,24.492L25,24.508C25,24.638 25.052,24.763 25.144,24.856C25.237,24.948 25.362,25 25.492,25L25.508,25C25.638,25 25.763,24.948 25.856,24.856C25.948,24.763 26,24.638 26,24.508L26,24.492C26,24.362 26.052,24.237 26.144,24.144C26.237,24.052 26.362,24 26.492,24C27.049,24 27.951,24 28.508,24C28.638,24 28.763,24.052 28.856,24.144C28.948,24.237 29,24.362 29,24.492C29,25.449 29,27.551 29,28.508C29,28.638 28.948,28.763 28.856,28.856C28.763,28.948 28.638,29 28.508,29C27.076,29 22.924,29 21.492,29C21.362,29 21.237,28.948 21.144,28.856C21.052,28.763 21,28.638 21,28.508C21,28.503 21,28.497 21,28.492C21,28.362 20.948,28.237 20.856,28.144C20.763,28.052 20.638,28 20.508,28L20.492,28C20.362,28 20.237,28.052 20.144,28.144C20.052,28.237 20,28.362 20,28.492L20,28.508C20,28.78 19.78,29 19.508,29C19.199,29 18.801,29 18.492,29C18.22,29 18,28.78 18,28.508C18,28.503 18,28.497 18,28.492C18,28.362 18.052,28.237 18.144,28.144C18.237,28.052 18.362,28 18.492,28L18.508,28C18.638,28 18.763,27.948 18.856,27.856C18.948,27.763 19,27.638 19,27.508L19,27.492C19,27.362 19.052,27.237 19.144,27.144C19.237,27.052 19.362,27 19.492,27L19.508,27C19.78,27 20,26.78 20,26.508C20,26.199 20,25.801 20,25.492C20,25.22 19.78,25 19.508,25C19.503,25 19.497,25 19.492,25C19.362,25 19.237,24.948 19.144,24.856C19.052,24.763 19,24.638 19,24.508L19,24.492C19,24.362 19.052,24.237 19.144,24.144C19.237,24.052 19.362,24 19.492,24L19.508,24C19.78,24 20,23.78 20,23.508C20,23.199 20,22.801 20,22.492C20,22.22 19.78,22 19.508,22C19.503,22 19.497,22 19.492,22C19.362,22 19.237,21.948 19.144,21.856C19.052,21.763 19,21.638 19,21.508L19,21.492C19,21.362 19.052,21.237 19.144,21.144C19.237,21.052 19.362,21 19.492,21L19.508,21C19.638,21 19.763,20.948 19.856,20.856C19.948,20.763 20,20.638 20,20.508L20,20.492C20,20.362 19.948,20.237 19.856,20.144C19.763,20.052 19.638,20 19.508,20L19.492,20C19.362,20 19.237,19.948 19.144,19.856C19.052,19.763 19,19.638 19,19.508L19,19.492C19,19.362 18.948,19.237 18.856,19.144C18.763,19.052 18.638,19 18.508,19L18.492,19C18.362,19 18.237,18.948 18.144,18.856C18.052,18.763 18,18.638 18,18.508L18,18.492C18,18.22 18.22,18 18.492,18C18.801,18 19.199,18 19.508,18C19.78,18 20,18.22 20,18.492C20,18.497 20,18.503 20,18.508C20,18.638 20.052,18.763 20.144,18.856C20.237,18.948 20.362,19 20.492,19L20.508,19C20.638,19 20.763,18.948 20.856,18.856C20.948,18.763 21,18.638 21,18.508L21,18.492C21,18.362 21.052,18.237 21.144,18.144C21.237,18.052 21.362,18 21.492,18L21.508,18C21.638,18 21.763,18.052 21.856,18.144C21.948,18.237 22,18.362 22,18.492L22,18.508C22,18.638 22.052,18.763 22.144,18.856C22.237,18.948 22.362,19 22.492,19L22.508,19C22.78,19 23,18.78 23,18.508C23,18.199 23,17.801 23,17.492C23,17.22 22.78,17 22.508,17L21.492,17C21.22,17 21,16.78 21,16.508C21,16.503 21,16.497 21,16.492ZM26,22.492C26,22.362 26.052,22.237 26.144,22.144C26.237,22.052 26.362,22 26.492,22C27.049,22 27.951,22 28.508,22C28.638,22 28.763,22.052 28.856,22.144C28.948,22.237 29,22.362 29,22.492C29,22.497 29,22.503 29,22.508C29,22.638 28.948,22.763 28.856,22.856C28.763,22.948 28.638,23 28.508,23C27.951,23 27.049,23 26.492,23C26.362,23 26.237,22.948 26.144,22.856C26.052,22.763 26,22.638 26,22.508C26,22.503 26,22.497 26,22.492ZM18,27.508C18,27.638 17.948,27.763 17.856,27.856C17.763,27.948 17.638,28 17.508,28L17.492,28C17.362,28 17.237,28.052 17.144,28.144C17.052,28.237 17,28.362 17,28.492L17,28.508C17,28.638 16.948,28.763 16.856,28.856C16.763,28.948 16.638,29 16.508,29L16.492,29C16.22,29 16,28.78 16,28.508C16,28.199 16,27.801 16,27.492C16,27.22 16.22,27 16.492,27C16.497,27 16.503,27 16.508,27C16.638,27 16.763,26.948 16.856,26.856C16.948,26.763 17,26.638 17,26.508L17,26.492C17,26.362 16.948,26.237 16.856,26.144C16.763,26.052 16.638,26 16.508,26L16.492,26C16.362,26 16.237,25.948 16.144,25.856C16.052,25.763 16,25.638 16,25.508L16,25.492C16,25.22 16.22,25 16.492,25C16.801,25 17.199,25 17.508,25C17.78,25 18,25.22 18,25.492C18,25.497 18,25.503 18,25.508C18,25.638 18.052,25.763 18.144,25.856C18.237,25.948 18.362,26 18.492,26L18.508,26C18.638,26 18.763,26.052 18.856,26.144C18.948,26.237 19,26.362 19,26.492L19,26.508C19,26.638 18.948,26.763 18.856,26.856C18.763,26.948 18.638,27 18.508,27L18.492,27C18.362,27 18.237,27.052 18.144,27.144C18.052,27.237 18,27.362 18,27.492L18,27.508ZM16,24.508C16,24.78 15.78,25 15.508,25C15.503,25 15.497,25 15.492,25C15.362,25 15.237,25.052 15.144,25.144C15.052,25.237 15,25.362 15,25.492C15,26.049 15,26.951 15,27.508C15,27.78 14.78,28 14.508,28C14.199,28 13.801,28 13.492,28C13.22,28 13,27.78 13,27.508C13,27.503 13,27.497 13,27.492C13,27.362 13.052,27.237 13.144,27.144C13.237,27.052 13.362,27 13.492,27L13.508,27C13.638,27 13.763,26.948 13.856,26.856C13.948,26.763 14,26.638 14,26.508L14,26.492C14,26.362 13.948,26.237 13.856,26.144C13.763,26.052 13.638,26 13.508,26L13.492,26C13.362,26 13.237,26.052 13.144,26.144C13.052,26.237 13,26.362 13,26.492L13,26.508C13,26.638 12.948,26.763 12.856,26.856C12.763,26.948 12.638,27 12.508,27L12.492,27C12.362,27 12.237,26.948 12.144,26.856C12.052,26.763 12,26.638 12,26.508C12,25.739 12,24.261 12,23.492C12,23.22 12.22,23 12.492,23C12.801,23 13.199,23 13.508,23C13.78,23 14,23.22 14,23.492C14,23.497 14,23.503 14,23.508C14,23.638 13.948,23.763 13.856,23.856C13.763,23.948 13.638,24 13.508,24L13.492,24C13.362,24 13.237,24.052 13.144,24.144C13.052,24.237 13,24.362 13,24.492L13,24.508C13,24.638 13.052,24.763 13.144,24.856C13.237,24.948 13.362,25 13.492,25L13.508,25C13.638,25 13.763,24.948 13.856,24.856C13.948,24.763 14,24.638 14,24.508L14,24.492C14,24.362 14.052,24.237 14.144,24.144C14.237,24.052 14.362,24 14.492,24L14.508,24C14.638,24 14.763,23.948 14.856,23.856C14.948,23.763 15,23.638 15,23.508L15,23.492C15,23.362 14.948,23.237 14.856,23.144C14.763,23.052 14.638,23 14.508,23L14.492,23C14.362,23 14.237,22.948 14.144,22.856C14.052,22.763 14,22.638 14,22.508L14,22.492C14,22.22 14.22,22 14.492,22C15.449,22 17.551,22 18.508,22C18.78,22 19,22.22 19,22.492C19,22.497 19,22.503 19,22.508C19,22.638 18.948,22.763 18.856,22.856C18.763,22.948 18.638,23 18.508,23C17.951,23 17.049,23 16.492,23C16.22,23 16,23.22 16,23.492C16,23.801 16,24.199 16,24.508ZM19,20.508C19,20.638 18.948,20.763 18.856,20.856C18.763,20.948 18.638,21 18.508,21C17.951,21 17.049,21 16.492,21C16.22,21 16,20.78 16,20.508C16,20.199 16,19.801 16,19.492C16,19.22 16.22,19 16.492,19C16.497,19 16.503,19 16.508,19C16.638,19 16.763,19.052 16.856,19.144C16.948,19.237 17,19.362 17,19.492L17,19.508C17,19.78 17.22,20 17.492,20C17.801,20 18.199,20 18.508,20C18.78,20 19,20.22 19,20.492C19,20.497 19,20.503 19,20.508ZM16,16.508C16,16.638 15.948,16.763 15.856,16.856C15.763,16.948 15.638,17 15.508,17L15.492,17C15.362,17 15.237,16.948 15.144,16.856C15.052,16.763 15,16.638 15,16.508L15,16.492C15,16.362 15.052,16.237 15.144,16.144C15.237,16.052 15.362,16 15.492,16L15.508,16C15.638,16 15.763,16.052 15.856,16.144C15.948,16.237 16,16.362 16,16.492L16,16.508ZM10.508,18C10.638,18 10.763,17.948 10.856,17.856C10.948,17.763 11,17.638 11,17.508L11,17.492C11,17.362 10.948,17.237 10.856,17.144C10.763,17.052 10.638,17 10.508,17L10.492,17C10.362,17 10.237,17.052 10.144,17.144C10.052,17.237 10,17.362 10,17.492L10,17.508C10,17.638 10.052,17.763 10.144,17.856C10.237,17.948 10.362,18 10.492,18L10.508,18ZM18,10.492C18,10.22 17.78,10 17.508,10C17.503,10 17.497,10 17.492,10C17.22,10 17,10.22 17,10.492C17,10.801 17,11.199 17,11.508C17,11.78 17.22,12 17.492,12C17.497,12 17.503,12 17.508,12C17.78,12 18,11.78 18,11.508C18,11.199 18,10.801 18,10.492ZM20,13.492C20,13.22 19.78,13 19.508,13C19.199,13 18.801,13 18.492,13C18.22,13 18,13.22 18,13.492C18,13.497 18,13.503 18,13.508C18,13.78 18.22,14 18.492,14C18.801,14 19.199,14 19.508,14C19.78,14 20,13.78 20,13.508C20,13.503 20,13.497 20,13.492ZM27.508,28C27.78,28 28,27.78 28,27.508L28,26.492C28,26.22 27.78,26 27.508,26C27.503,26 27.497,26 27.492,26C27.362,26 27.237,26.052 27.144,26.144C27.052,26.237 27,26.362 27,26.492L27,26.508C27,26.638 26.948,26.763 26.856,26.856C26.763,26.948 26.638,27 26.508,27L26.492,27C26.362,27 26.237,27.052 26.144,27.144C26.052,27.237 26,27.362 26,27.492L26,27.508C26,27.78 26.22,28 26.492,28C26.801,28 27.199,28 27.508,28ZM16.492,16C16.362,16 16.237,15.948 16.144,15.856C16.052,15.763 16,15.638 16,15.508L16,15.492C16,15.362 16.052,15.237 16.144,15.144C16.237,15.052 16.362,15 16.492,15L16.508,15C16.638,15 16.763,15.052 16.856,15.144C16.948,15.237 17,15.362 17,15.492L17,15.508C17,15.638 16.948,15.763 16.856,15.856C16.763,15.948 16.638,16 16.508,16L16.492,16ZM20.492,18C20.362,18 20.237,17.948 20.144,17.856C20.052,17.763 20,17.638 20,17.508L20,17.492C20,17.362 20.052,17.237 20.144,17.144C20.237,17.052 20.362,17 20.492,17L20.508,17C20.638,17 20.763,17.052 20.856,17.144C20.948,17.237 21,17.362 21,17.492L21,17.508C21,17.638 20.948,17.763 20.856,17.856C20.763,17.948 20.638,18 20.508,18L20.492,18ZM23.508,24C23.638,24 23.763,23.948 23.856,23.856C23.948,23.763 24,23.638 24,23.508L24,21.492C24,21.362 23.948,21.237 23.856,21.144C23.763,21.052 23.638,21 23.508,21L21.492,21C21.362,21 21.237,21.052 21.144,21.144C21.052,21.237 21,21.362 21,21.492L21,23.508C21,23.638 21.052,23.763 21.144,23.856C21.237,23.948 21.362,24 21.492,24L23.508,24ZM21,26.508C21,26.638 21.052,26.763 21.144,26.856C21.237,26.948 21.362,27 21.492,27C22.261,27 23.739,27 24.508,27C24.638,27 24.763,26.948 24.856,26.856C24.948,26.763 25,26.638 25,26.508C25,26.503 25,26.497 25,26.492C25,26.362 24.948,26.237 24.856,26.144C24.763,26.052 24.638,26 24.508,26L24.492,26C24.362,26 24.237,25.948 24.144,25.856C24.052,25.763 24,25.638 24,25.508L24,25.492C24,25.362 23.948,25.237 23.856,25.144C23.763,25.052 23.638,25 23.508,25L23.492,25C23.362,25 23.237,25.052 23.144,25.144C23.052,25.237 23,25.362 23,25.492L23,25.508C23,25.78 22.78,26 22.508,26C22.199,26 21.801,26 21.492,26C21.22,26 21,26.22 21,26.492C21,26.497 21,26.503 21,26.508ZM4.492,21C4.362,21 4.237,20.948 4.144,20.856C4.052,20.763 4,20.638 4,20.508C4,19.739 4,18.261 4,17.492C4,17.362 4.052,17.237 4.144,17.144C4.237,17.052 4.362,17 4.492,17C4.497,17 4.503,17 4.508,17C4.638,17 4.763,17.052 4.856,17.144C4.948,17.237 5,17.362 5,17.492C5,18.261 5,19.739 5,20.508C5,20.638 4.948,20.763 4.856,20.856C4.763,20.948 4.638,21 4.508,21C4.503,21 4.497,21 4.492,21ZM14.492,5C14.22,5 14,4.78 14,4.508C14,4.503 14,4.497 14,4.492C14,4.22 14.22,4 14.492,4C14.801,4 15.199,4 15.508,4C15.78,4 16,4.22 16,4.492C16,4.497 16,4.503 16,4.508C16,4.78 15.78,5 15.508,5C15.199,5 14.801,5 14.492,5ZM11,13.492C11,13.362 11.052,13.237 11.144,13.144C11.237,13.052 11.362,13 11.492,13L11.508,13C11.638,13 11.763,13.052 11.856,13.144C11.948,13.237 12,13.362 12,13.492L12,13.508C12,13.638 11.948,13.763 11.856,13.856C11.763,13.948 11.638,14 11.508,14L11.492,14C11.362,14 11.237,13.948 11.144,13.856C11.052,13.763 11,13.638 11,13.508L11,13.492ZM26.492,21C26.362,21 26.237,20.948 26.144,20.856C26.052,20.763 26,20.638 26,20.508L26,20.492C26,20.362 26.052,20.237 26.144,20.144C26.237,20.052 26.362,20 26.492,20L26.508,20C26.638,20 26.763,20.052 26.856,20.144C26.948,20.237 27,20.362 27,20.492L27,20.508C27,20.638 26.948,20.763 26.856,20.856C26.763,20.948 26.638,21 26.508,21L26.492,21ZM22,22.492C22,22.362 22.052,22.237 22.144,22.144C22.237,22.052 22.362,22 22.492,22L22.508,22C22.638,22 22.763,22.052 22.856,22.144C22.948,22.237 23,22.362 23,22.492L23,22.508C23,22.638 22.948,22.763 22.856,22.856C22.763,22.948 22.638,23 22.508,23L22.492,23C22.362,23 22.237,22.948 22.144,22.856C22.052,22.763 22,22.638 22,22.508L22,22.492ZM25,14.492C25,14.362 25.052,14.237 25.144,14.144C25.237,14.052 25.362,14 25.492,14L25.508,14C25.638,14 25.763,14.052 25.856,14.144C25.948,14.237 26,14.362 26,14.492L26,14.508C26,14.638 25.948,14.763 25.856,14.856C25.763,14.948 25.638,15 25.508,15L25.492,15C25.362,15 25.237,14.948 25.144,14.856C25.052,14.763 25,14.638 25,14.508L25,14.492Z"/>
    </g>
</svg>
