<?xml version="1.0" encoding="UTF-8" standalone="no"?>
<!DOCTYPE svg PUBLIC "-//W3C//DTD SVG 1.1//EN" "http://www.w3.org/Graphics/SVG/1.1/DTD/svg11.dtd">
<svg width="100%" height="100%" viewBox="0 0 6 6" version="1.1" xmlns="http://www.w3.org/2000/svg" xmlns:xlink="http://www.w3.org/1999/xlink" xml:space="preserve" xmlns:serif="http://www.serif.com/" style="fill-rule:evenodd;clip-rule:evenodd;stroke-linecap:round;stroke-linejoin:round;stroke-miterlimit:1.5;">
    <g transform="matrix(0.887493,0.887493,-0.979417,0.979417,4.50426,0.0276923)">
        <path d="M0.764,2.77C1.186,2.77 1.529,2.46 1.529,2.078L1.529,0.693C1.529,0.31 1.186,0 0.764,0C0.342,0 0,0.31 0,0.693L0,1.569" style="fill:none;stroke:black;stroke-width:0.47px;"/>
    </g>
    <g transform="matrix(-0.887493,-0.887493,0.979417,-0.979417,1.5,6.02616)">
        <path d="M0.764,2.77C1.186,2.77 1.529,2.46 1.529,2.078L1.529,0.693C1.529,0.31 1.186,0 0.764,0C0.342,0 0,0.31 0,0.693L0,1.569" style="fill:none;stroke:black;stroke-width:0.47px;"/>
    </g>
</svg>
