<?xml version="1.0" encoding="UTF-8" standalone="no"?>
<!DOCTYPE svg PUBLIC "-//W3C//DTD SVG 1.1//EN" "http://www.w3.org/Graphics/SVG/1.1/DTD/svg11.dtd">
<svg width="100%" height="100%" viewBox="0 0 6 6" version="1.1" xmlns="http://www.w3.org/2000/svg" xmlns:xlink="http://www.w3.org/1999/xlink" xml:space="preserve" xmlns:serif="http://www.serif.com/" style="fill-rule:evenodd;clip-rule:evenodd;stroke-linejoin:round;stroke-miterlimit:2;">
    <g transform="matrix(2.57482,0,0,0.972407,0,0)">
        <path d="M1.297,2.919C1.297,3.055 1.276,3.186 1.24,3.282C1.203,3.379 1.154,3.433 1.102,3.433C0.857,3.433 0.439,3.433 0.194,3.433C0.143,3.433 0.093,3.379 0.057,3.282C0.02,3.186 -0,3.055 0,2.919L0,0.514C-0,0.378 0.02,0.247 0.057,0.151C0.093,0.054 0.143,-0 0.194,0C0.439,0 0.857,0 1.102,0C1.154,-0 1.203,0.054 1.24,0.151C1.276,0.247 1.297,0.378 1.297,0.514L1.297,2.919ZM0.518,0.858C0.467,0.858 0.417,0.912 0.381,1.009C0.345,1.105 0.324,1.236 0.324,1.372L0.324,2.061C0.324,2.197 0.345,2.328 0.381,2.424C0.417,2.521 0.467,2.575 0.518,2.575L0.778,2.575C0.83,2.575 0.879,2.521 0.916,2.424C0.952,2.328 0.972,2.197 0.972,2.061L0.972,1.372C0.972,1.236 0.952,1.105 0.916,1.009C0.879,0.912 0.83,0.858 0.778,0.858L0.518,0.858Z"/>
    </g>
    <g transform="matrix(0.771294,0,0,0.87386,5,2)">
        <path d="M-0.648,0.286C-0.476,0.286 -0.311,0.226 -0.19,0.119C-0.068,0.011 0,-0.134 -0,-0.286C0,-0.38 0,-0.478 0,-0.572C-0,-0.724 0.068,-0.869 0.19,-0.977C0.311,-1.084 0.476,-1.144 0.648,-1.144C1.006,-1.144 1.297,-0.888 1.297,-0.572C1.297,-0.303 1.297,0.017 1.297,0.286C1.297,0.602 1.006,0.858 0.648,0.858C0.476,0.858 0.311,0.919 0.19,1.026C0.068,1.133 -0,1.279 0,1.43C0,1.525 0,1.622 0,1.717C0,1.868 -0.068,2.014 -0.19,2.121C-0.311,2.228 -0.476,2.289 -0.648,2.289C-1.006,2.289 -1.297,2.033 -1.297,1.717C-1.297,1.447 -1.297,1.127 -1.297,0.858C-1.297,0.542 -1.006,0.286 -0.648,0.286C-0.648,0.286 -0.648,0.286 -0.648,0.286Z"/>
    </g>
    <g transform="matrix(0.771294,0,0,0.87386,4,0)">
        <path d="M1.297,0.572C1.297,0.256 1.006,-0 0.648,-0C0.29,0 -0,0.256 -0,0.572C0,0.888 0.29,1.144 0.648,1.144C1.006,1.144 1.297,0.888 1.297,0.572L1.297,0.572Z"/>
    </g>
    <g transform="matrix(0.771294,0,0,0.87386,4,5)">
        <path d="M0.648,0C0.82,-0 0.985,0.06 1.107,0.168C1.228,0.275 1.297,0.42 1.297,0.572C1.297,0.724 1.228,0.869 1.107,0.977C0.985,1.084 0.82,1.144 0.648,1.144C0.252,1.144 -0.252,1.144 -0.648,1.144C-0.82,1.144 -0.985,1.084 -1.107,0.977C-1.228,0.869 -1.297,0.724 -1.297,0.572C-1.297,0.42 -1.228,0.275 -1.107,0.168C-0.985,0.06 -0.82,-0 -0.648,0C-0.252,0 0.252,0 0.648,0Z"/>
    </g>
    <g transform="matrix(0.771294,0,0,0.87386,2,4)">
        <path d="M-1.297,0.572C-1.297,0.888 -1.006,1.144 -0.648,1.144C-0.29,1.144 0,0.888 0,0.572C0,0.256 0.29,-0 0.648,-0C1.006,0 1.297,0.256 1.297,0.572C1.297,0.888 1.006,1.144 0.648,1.144C0.29,1.144 -0,1.401 -0,1.717C-0,2.033 -0.29,2.289 -0.648,2.289C-1.006,2.289 -1.297,2.033 -1.297,1.717C-1.297,1.401 -1.587,1.144 -1.945,1.144C-2.303,1.144 -2.593,0.888 -2.593,0.572C-2.593,0.256 -2.303,-0 -1.945,-0C-1.587,0 -1.297,0.256 -1.297,0.572L-1.297,0.572Z"/>
    </g>
    <g transform="matrix(0.771294,0,0,0.87386,5,4)">
        <path d="M1.297,0.572C1.297,0.256 1.006,-0 0.648,-0C0.29,0 -0,0.256 -0,0.572C0,0.888 0.29,1.144 0.648,1.144C1.006,1.144 1.297,0.888 1.297,0.572L1.297,0.572Z"/>
    </g>
</svg>
