<?xml version="1.0" encoding="UTF-8" standalone="no"?><!DOCTYPE svg PUBLIC "-//W3C//DTD SVG 1.1//EN" "http://www.w3.org/Graphics/SVG/1.1/DTD/svg11.dtd"><svg width="100%" height="100%" viewBox="0 0 100 100" version="1.1" xmlns="http://www.w3.org/2000/svg" xmlns:xlink="http://www.w3.org/1999/xlink" xml:space="preserve" xmlns:serif="http://www.serif.com/" style="fill-rule:evenodd;clip-rule:evenodd;stroke-linejoin:round;stroke-miterlimit:2;"><path d="M53.736,0l16.264,0c10.163,0 19.152,5.064 24.58,12.805l-28.215,13.61l-12.629,-26.415Z" style="fill:url(#_Linear1);"/><path d="M96.048,84.885c-5.174,9.027 -14.906,15.115 -26.048,15.115l-5.358,0l31.406,-15.115Z" style="fill:url(#_Linear2);"/><path d="M28.262,99.95c-15.75,-0.901 -28.262,-13.976 -28.262,-29.95l0,-40c0,-0.591 0.017,-1.179 0.051,-1.761l-0,12.705l28.211,59.006Z" style="fill:url(#_Linear3);"/><path d="M9.171,8.417c5.191,-5.01 12.181,-8.168 19.901,-8.403l26.813,56.084l44.115,-21.232l0,23.419l-54.433,26.257c-0,0 -26.148,-54.692 -36.396,-76.125Z" style="fill:url(#_Linear4);"/><defs><linearGradient id="_Linear1" x1="0" y1="0" x2="1" y2="0" gradientUnits="userSpaceOnUse" gradientTransform="matrix(100,0,0,100,0,50)"><stop offset="0" style="stop-color:#b051fb;stop-opacity:1"/><stop offset="1" style="stop-color:#358cd5;stop-opacity:1"/></linearGradient><linearGradient id="_Linear2" x1="0" y1="0" x2="1" y2="0" gradientUnits="userSpaceOnUse" gradientTransform="matrix(100,0,0,100,0,50)"><stop offset="0" style="stop-color:#b051fb;stop-opacity:1"/><stop offset="1" style="stop-color:#358cd5;stop-opacity:1"/></linearGradient><linearGradient id="_Linear3" x1="0" y1="0" x2="1" y2="0" gradientUnits="userSpaceOnUse" gradientTransform="matrix(100,0,0,100,0,50)"><stop offset="0" style="stop-color:#b051fb;stop-opacity:1"/><stop offset="1" style="stop-color:#358cd5;stop-opacity:1"/></linearGradient><linearGradient id="_Linear4" x1="0" y1="0" x2="1" y2="0" gradientUnits="userSpaceOnUse" gradientTransform="matrix(100,0,0,100,0,50)"><stop offset="0" style="stop-color:#b051fb;stop-opacity:1"/><stop offset="1" style="stop-color:#358cd5;stop-opacity:1"/></linearGradient></defs></svg>