<?xml version="1.0" encoding="UTF-8" standalone="no"?><!DOCTYPE svg PUBLIC "-//W3C//DTD SVG 1.1//EN" "http://www.w3.org/Graphics/SVG/1.1/DTD/svg11.dtd"><svg width="100%" height="100%" viewBox="0 0 100 100" version="1.1" xmlns="http://www.w3.org/2000/svg" xmlns:xlink="http://www.w3.org/1999/xlink" xml:space="preserve" xmlns:serif="http://www.serif.com/" style="fill-rule:evenodd;clip-rule:evenodd;stroke-linejoin:round;stroke-miterlimit:2;"><path d="M100,82.982l0,17.018l-35.358,0l35.358,-17.018Z" style="fill:url(#_Linear1);"/><path d="M30,100l-30,0l0,-100l0.051,40.944l28.211,59.006c0.575,0.033 1.155,0.05 1.738,0.05Z" style="fill:url(#_Linear2);"/><path d="M5.147,0l48.589,0c0,0 -24.356,0.005 -24.664,0.014l26.813,56.084l44.115,-21.232l0,23.419l-54.433,26.257c-0,0 -40.42,-84.542 -40.42,-84.542Z" style="fill:url(#_Linear3);"/><path d="M53.736,0l46.264,0l0,10.191l-33.635,16.224l-12.629,-26.415Z" style="fill:url(#_Linear4);"/><defs><linearGradient id="_Linear1" x1="0" y1="0" x2="1" y2="0" gradientUnits="userSpaceOnUse" gradientTransform="matrix(100,0,0,100,0,50)"><stop offset="0" style="stop-color:#b051fb;stop-opacity:1"/><stop offset="1" style="stop-color:#358cd5;stop-opacity:1"/></linearGradient><linearGradient id="_Linear2" x1="0" y1="0" x2="1" y2="0" gradientUnits="userSpaceOnUse" gradientTransform="matrix(100,0,0,100,0,50)"><stop offset="0" style="stop-color:#b051fb;stop-opacity:1"/><stop offset="1" style="stop-color:#358cd5;stop-opacity:1"/></linearGradient><linearGradient id="_Linear3" x1="0" y1="0" x2="1" y2="0" gradientUnits="userSpaceOnUse" gradientTransform="matrix(100,0,0,100,0,50)"><stop offset="0" style="stop-color:#b051fb;stop-opacity:1"/><stop offset="1" style="stop-color:#358cd5;stop-opacity:1"/></linearGradient><linearGradient id="_Linear4" x1="0" y1="0" x2="1" y2="0" gradientUnits="userSpaceOnUse" gradientTransform="matrix(100,0,0,100,0,50)"><stop offset="0" style="stop-color:#b051fb;stop-opacity:1"/><stop offset="1" style="stop-color:#358cd5;stop-opacity:1"/></linearGradient></defs></svg>