<?xml version="1.0" encoding="UTF-8" standalone="no"?>
<!DOCTYPE svg PUBLIC "-//W3C//DTD SVG 1.1//EN" "http://www.w3.org/Graphics/SVG/1.1/DTD/svg11.dtd">
<svg width="100%" height="100%" viewBox="0 0 20 20" version="1.1" xmlns="http://www.w3.org/2000/svg" xmlns:xlink="http://www.w3.org/1999/xlink" xml:space="preserve" xmlns:serif="http://www.serif.com/" style="fill-rule:evenodd;clip-rule:evenodd;stroke-linejoin:round;stroke-miterlimit:2;">
    <path d="M20,13.737C20,14.135 19.841,14.517 19.559,14.799C19.277,15.08 18.895,15.238 18.496,15.237C14.781,15.227 5.203,15.202 1.496,15.192C0.669,15.19 0,14.519 0,13.692C0,11.713 0,8.244 0,6.263C0,5.435 0.671,4.763 1.5,4.763C5.21,4.762 14.788,4.76 18.5,4.759C18.898,4.759 19.279,4.917 19.561,5.198C19.842,5.48 20,5.861 20,6.259C20,8.25 20,11.744 20,13.737ZM2.672,12.262C2.504,12.262 2.36,12.203 2.24,12.085C2.121,11.967 2.061,11.823 2.061,11.652C2.061,11.484 2.121,11.342 2.24,11.227C2.36,11.112 2.504,11.054 2.672,11.054C2.837,11.054 2.978,11.112 3.095,11.229C3.212,11.346 3.27,11.487 3.27,11.652C3.27,11.82 3.212,11.964 3.097,12.083C2.982,12.203 2.84,12.262 2.672,12.262ZM15.949,12.262C15.558,12.262 15.223,12.2 14.944,12.076C14.664,11.952 14.435,11.785 14.254,11.576C14.074,11.367 13.937,11.131 13.843,10.867C13.75,10.602 13.703,10.319 13.703,10.016C13.703,9.715 13.75,9.422 13.845,9.135C13.94,8.849 14.089,8.595 14.293,8.373C14.496,8.151 14.759,7.981 15.082,7.863C15.321,7.779 15.584,7.738 15.872,7.738C16.373,7.738 16.786,7.852 17.109,8.08C17.467,8.334 17.708,8.677 17.833,9.108C17.903,9.357 17.939,9.597 17.939,9.828C17.939,9.963 17.926,10.096 17.902,10.228L14.74,10.228C14.757,10.458 14.812,10.664 14.905,10.844C14.999,11.025 15.133,11.167 15.308,11.272C15.483,11.376 15.699,11.428 15.957,11.428C16.443,11.428 16.822,11.238 17.096,10.859L17.776,11.461C17.29,11.995 16.681,12.262 15.949,12.262ZM6.574,12.262C6.183,12.262 5.848,12.2 5.569,12.076C5.289,11.952 5.06,11.785 4.879,11.576C4.699,11.367 4.562,11.131 4.468,10.867C4.375,10.602 4.328,10.319 4.328,10.016C4.328,9.715 4.375,9.422 4.47,9.135C4.565,8.849 4.714,8.595 4.918,8.373C5.121,8.151 5.384,7.981 5.707,7.863C5.946,7.779 6.209,7.738 6.497,7.738C6.998,7.738 7.411,7.852 7.734,8.08C8.092,8.334 8.333,8.677 8.458,9.108C8.528,9.357 8.564,9.597 8.564,9.828C8.564,9.963 8.551,10.096 8.527,10.228L5.365,10.228C5.382,10.458 5.437,10.664 5.53,10.844C5.624,11.025 5.758,11.167 5.933,11.272C6.108,11.376 6.324,11.428 6.582,11.428C7.068,11.428 7.447,11.238 7.721,10.859L8.401,11.461C7.915,11.995 7.306,12.262 6.574,12.262ZM13.426,12.258L12.246,12.258L11.233,10.7L11.156,10.7L10.151,12.258L8.958,12.258L10.541,9.984L8.958,7.742L10.171,7.742L11.156,9.272L11.233,9.272L12.218,7.742L13.426,7.742L11.847,9.984L13.426,12.258ZM16.958,9.426C16.955,9.386 16.947,9.343 16.934,9.297C16.882,9.053 16.761,8.871 16.569,8.751C16.378,8.632 16.15,8.572 15.884,8.572C15.566,8.572 15.309,8.654 15.111,8.819C14.913,8.984 14.793,9.187 14.753,9.426L16.958,9.426ZM7.583,9.426C7.58,9.386 7.572,9.343 7.559,9.297C7.507,9.053 7.386,8.871 7.194,8.751C7.003,8.632 6.775,8.572 6.509,8.572C6.191,8.572 5.934,8.654 5.736,8.819C5.538,8.984 5.418,9.187 5.378,9.426L7.583,9.426Z" style="fill:white;"/>
</svg>
