<?xml version="1.0" encoding="UTF-8" standalone="no"?>
<!DOCTYPE svg PUBLIC "-//W3C//DTD SVG 1.1//EN" "http://www.w3.org/Graphics/SVG/1.1/DTD/svg11.dtd">
<svg width="100%" height="100%" viewBox="0 0 20 20" version="1.1" xmlns="http://www.w3.org/2000/svg" xmlns:xlink="http://www.w3.org/1999/xlink" xml:space="preserve" xmlns:serif="http://www.serif.com/" style="fill-rule:evenodd;clip-rule:evenodd;stroke-linejoin:round;stroke-miterlimit:2;">
    <path d="M20,13.737C20,14.135 19.841,14.517 19.559,14.799C19.277,15.08 18.895,15.238 18.496,15.237C14.781,15.227 5.203,15.202 1.496,15.192C0.669,15.19 0,14.519 0,13.692C0,11.713 0,8.244 0,6.263C0,5.435 0.671,4.763 1.5,4.763C5.21,4.762 14.788,4.76 18.5,4.759C18.898,4.759 19.279,4.917 19.561,5.198C19.842,5.48 20,5.861 20,6.259C20,8.25 20,11.744 20,13.737ZM13.623,14.13L12.635,14.13L12.635,7.742L13.53,7.742L13.623,8.083L13.709,8.083C14.034,7.853 14.454,7.738 14.966,7.738C15.59,7.738 16.075,7.938 16.421,8.338C16.767,8.737 16.94,9.292 16.94,10C16.94,10.714 16.766,11.269 16.419,11.666C16.072,12.064 15.589,12.262 14.97,12.262C14.455,12.262 14.034,12.143 13.709,11.904L13.623,11.904L13.623,14.13ZM3.618,12.262C3.45,12.262 3.306,12.203 3.186,12.085C3.067,11.967 3.007,11.823 3.007,11.652C3.007,11.484 3.067,11.342 3.186,11.227C3.306,11.112 3.45,11.054 3.618,11.054C3.783,11.054 3.924,11.112 4.041,11.229C4.158,11.346 4.216,11.487 4.216,11.652C4.216,11.82 4.158,11.964 4.043,12.083C3.928,12.203 3.786,12.262 3.618,12.262ZM11.198,12.258L10.201,12.258L10.201,7.742L11.198,7.742L11.198,12.258ZM9.16,12.258L5.351,12.258L5.351,11.42L7.825,8.657L7.825,8.568L5.453,8.568L5.453,7.742L9.087,7.742L9.087,8.576L6.608,11.347L6.608,11.428L9.16,11.428L9.16,12.258ZM14.751,11.428C14.989,11.428 15.197,11.376 15.375,11.273C15.553,11.169 15.692,11.012 15.792,10.801C15.893,10.589 15.943,10.323 15.943,10C15.943,9.678 15.893,9.411 15.792,9.2C15.692,8.988 15.553,8.831 15.375,8.727C15.197,8.624 14.989,8.572 14.751,8.572C14.509,8.572 14.298,8.625 14.116,8.731C13.934,8.837 13.792,8.996 13.691,9.207C13.589,9.418 13.538,9.683 13.538,10C13.538,10.456 13.646,10.808 13.861,11.056C14.077,11.304 14.374,11.428 14.751,11.428ZM10.706,7.168C10.53,7.168 10.376,7.105 10.246,6.979C10.116,6.853 10.051,6.697 10.051,6.513C10.051,6.337 10.115,6.185 10.242,6.057C10.37,5.93 10.524,5.866 10.706,5.866C10.882,5.866 11.035,5.929 11.164,6.055C11.293,6.181 11.357,6.334 11.357,6.513C11.357,6.695 11.293,6.849 11.164,6.977C11.035,7.104 10.882,7.168 10.706,7.168Z" style="fill:white;"/>
</svg>
