<?xml version="1.0" encoding="UTF-8" standalone="no"?>
<!DOCTYPE svg PUBLIC "-//W3C//DTD SVG 1.1//EN" "http://www.w3.org/Graphics/SVG/1.1/DTD/svg11.dtd">
<svg width="100%" height="100%" viewBox="0 0 20 20" version="1.1" xmlns="http://www.w3.org/2000/svg" xmlns:xlink="http://www.w3.org/1999/xlink" xml:space="preserve" xmlns:serif="http://www.serif.com/" style="fill-rule:evenodd;clip-rule:evenodd;stroke-linejoin:round;stroke-miterlimit:2;">
    <path d="M20,13.737C20,14.135 19.841,14.517 19.559,14.799C19.277,15.08 18.895,15.238 18.496,15.237C14.781,15.227 5.203,15.202 1.496,15.192C0.669,15.19 0,14.519 0,13.692C0,11.713 0,8.244 0,6.263C0,5.435 0.671,4.763 1.5,4.763C5.21,4.762 14.788,4.76 18.5,4.759C18.898,4.759 19.279,4.917 19.561,5.198C19.842,5.48 20,5.861 20,6.259C20,8.25 20,11.744 20,13.737ZM5.97,14.13L4.981,14.13L4.981,7.742L5.876,7.742L5.97,8.083L6.055,8.083C6.381,7.853 6.8,7.738 7.312,7.738C7.936,7.738 8.421,7.938 8.767,8.338C9.113,8.737 9.286,9.292 9.286,10C9.286,10.714 9.112,11.269 8.765,11.666C8.418,12.064 7.935,12.262 7.316,12.262C6.801,12.262 6.381,12.143 6.055,11.904L5.97,11.904L5.97,14.13ZM2.849,12.262C2.681,12.262 2.537,12.203 2.417,12.085C2.298,11.967 2.238,11.823 2.238,11.652C2.238,11.484 2.298,11.342 2.417,11.227C2.537,11.112 2.681,11.054 2.849,11.054C3.014,11.054 3.155,11.112 3.272,11.229C3.389,11.346 3.447,11.487 3.447,11.652C3.447,11.82 3.389,11.964 3.274,12.083C3.159,12.203 3.017,12.262 2.849,12.262ZM12.008,12.262C11.384,12.262 10.899,12.062 10.553,11.662C10.208,11.263 10.035,10.708 10.035,10C10.035,9.286 10.208,8.731 10.555,8.334C10.903,7.936 11.385,7.738 12.004,7.738C12.519,7.738 12.94,7.829 13.265,8.01L13.351,8.01L13.351,5.87L14.34,5.87L14.34,12.258L13.444,12.258L13.351,11.831L13.265,11.831C12.94,12.119 12.521,12.262 12.008,12.262ZM17.041,12.258L16.04,12.258L16.04,8.539L15.17,8.539L15.17,7.742L16.049,7.742L16.049,7.131C16.049,6.684 16.187,6.356 16.464,6.146C16.71,5.959 17.024,5.866 17.404,5.866C17.697,5.866 17.968,5.928 18.217,6.053L17.896,6.868C17.766,6.786 17.64,6.745 17.517,6.745C17.2,6.745 17.041,6.91 17.041,7.239L17.041,7.742L17.965,7.742L17.965,8.539L17.041,8.539L17.041,12.258ZM12.224,11.428C12.465,11.428 12.677,11.375 12.858,11.269C13.04,11.163 13.182,11.004 13.284,10.793C13.385,10.582 13.436,10.317 13.436,10C13.436,9.544 13.328,9.192 13.113,8.944C12.897,8.696 12.601,8.572 12.224,8.572C11.985,8.572 11.777,8.624 11.599,8.727C11.421,8.831 11.282,8.988 11.182,9.2C11.082,9.411 11.031,9.678 11.031,10C11.031,10.323 11.082,10.589 11.182,10.801C11.282,11.012 11.421,11.169 11.599,11.273C11.777,11.376 11.985,11.428 12.224,11.428ZM7.097,11.428C7.335,11.428 7.544,11.376 7.721,11.273C7.899,11.169 8.038,11.012 8.138,10.801C8.239,10.589 8.289,10.323 8.289,10C8.289,9.678 8.239,9.411 8.138,9.2C8.038,8.988 7.899,8.831 7.721,8.727C7.544,8.624 7.335,8.572 7.097,8.572C6.855,8.572 6.644,8.625 6.462,8.731C6.28,8.837 6.139,8.996 6.037,9.207C5.935,9.418 5.884,9.683 5.884,10C5.884,10.456 5.992,10.808 6.208,11.056C6.423,11.304 6.72,11.428 7.097,11.428Z" style="fill:white;"/>
</svg>
