<?xml version="1.0" encoding="UTF-8" standalone="no"?>
<!DOCTYPE svg PUBLIC "-//W3C//DTD SVG 1.1//EN" "http://www.w3.org/Graphics/SVG/1.1/DTD/svg11.dtd">
<svg width="100%" height="100%" viewBox="0 0 20 20" version="1.1" xmlns="http://www.w3.org/2000/svg" xmlns:xlink="http://www.w3.org/1999/xlink" xml:space="preserve" xmlns:serif="http://www.serif.com/" style="fill-rule:evenodd;clip-rule:evenodd;stroke-linejoin:round;stroke-miterlimit:2;">
    <path d="M10,8.25L18.25,0L20,1.75L11.75,10L20,18.25L18.25,20L10,11.75L1.75,20L0,18.25L8.25,10L0,1.75L1.75,0L10,8.25Z" style="fill:white;"/>
    <path d="M10,8.25L18.25,0L20,1.75L11.75,10L20,18.25L18.25,20L10,11.75L1.75,20L0,18.25L8.25,10L0,1.75L1.75,0L10,8.25ZM1.75,0.707L0.707,1.75L8.957,10L0.707,18.25L1.75,19.293L10,11.043L18.25,19.293L19.293,18.25L11.043,10L19.293,1.75L18.25,0.707L10,8.957L1.75,0.707Z"/>
</svg>
