<?xml version="1.0" encoding="UTF-8" standalone="no"?>
<!DOCTYPE svg PUBLIC "-//W3C//DTD SVG 1.1//EN" "http://www.w3.org/Graphics/SVG/1.1/DTD/svg11.dtd">
<svg width="100%" height="100%" viewBox="0 0 20 20" version="1.1" xmlns="http://www.w3.org/2000/svg" xmlns:xlink="http://www.w3.org/1999/xlink" xml:space="preserve" xmlns:serif="http://www.serif.com/" style="fill-rule:evenodd;clip-rule:evenodd;stroke-linejoin:round;stroke-miterlimit:2;">
    <g transform="matrix(0.226447,0,0,0.226447,-42.7563,-153.247)">
        <path d="M232.898,676.669C209.661,676.669 190.624,694.587 188.814,717.358L212.524,727.161C214.533,725.787 216.96,724.983 219.571,724.983C219.805,724.983 220.038,724.99 220.269,725.003L230.813,709.72C230.813,709.647 230.812,709.577 230.812,709.504C230.812,700.305 238.296,692.821 247.495,692.821C256.694,692.821 264.177,700.305 264.177,709.504C264.177,718.703 256.694,726.188 247.495,726.188C247.368,726.188 247.242,726.185 247.117,726.182L232.078,736.912C232.087,737.108 232.093,737.306 232.093,737.505C232.093,744.41 226.476,750.027 219.571,750.027C213.51,750.027 208.442,745.7 207.294,739.972L190.338,732.962C195.588,751.53 212.647,765.143 232.898,765.143C257.329,765.143 277.135,745.336 277.135,720.906C277.135,696.474 257.329,676.669 232.898,676.669Z" style="fill:white;fill-rule:nonzero;"/>
    </g>
    <g transform="matrix(0.226447,0,0,0.226447,-42.7563,-153.247)">
        <path d="M216.536,743.792L211.103,741.547C212.066,743.552 213.732,745.23 215.944,746.152C220.725,748.145 226.238,745.876 228.231,741.091C229.196,738.775 229.202,736.221 228.246,733.9C227.291,731.58 225.488,729.77 223.171,728.803C220.872,727.847 218.409,727.882 216.245,728.699L221.859,731.019C225.386,732.49 227.053,736.54 225.584,740.067C224.115,743.594 220.063,745.262 216.536,743.792Z" style="fill:white;fill-rule:nonzero;"/>
    </g>
    <g transform="matrix(0.226447,0,0,0.226447,-42.7563,-153.247)">
        <path d="M239.163,709.485C239.163,704.873 242.902,701.135 247.514,701.135C252.126,701.135 255.864,704.873 255.864,709.485C255.864,714.097 252.126,717.835 247.514,717.835C242.902,717.835 239.163,714.097 239.163,709.485ZM258.611,709.504C258.611,703.375 253.624,698.387 247.495,698.387C241.366,698.387 236.378,703.375 236.378,709.504C236.378,715.633 241.366,720.619 247.495,720.619C253.624,720.619 258.611,715.633 258.611,709.504Z" style="fill:white;fill-rule:nonzero;"/>
    </g>
</svg>
