<?xml version="1.0" encoding="UTF-8" standalone="no"?>
<!DOCTYPE svg PUBLIC "-//W3C//DTD SVG 1.1//EN" "http://www.w3.org/Graphics/SVG/1.1/DTD/svg11.dtd">
<svg width="100%" height="100%" viewBox="0 0 20 20" version="1.1" xmlns="http://www.w3.org/2000/svg" xmlns:xlink="http://www.w3.org/1999/xlink" xml:space="preserve" xmlns:serif="http://www.serif.com/" style="fill-rule:evenodd;clip-rule:evenodd;stroke-linejoin:round;stroke-miterlimit:2;">
    <path d="M0,0.027C0,0.027 6.222,0.444 9.081,0.636C9.988,0.696 10.841,1.084 11.484,1.726C13.141,3.383 16.516,6.758 18.901,9.143C19.605,9.847 20,10.802 20,11.797C20,12.793 19.605,13.747 18.901,14.451C17.526,15.826 15.852,17.5 14.478,18.874C13.774,19.578 12.819,19.973 11.824,19.973C10.828,19.973 9.874,19.578 9.17,18.874C6.781,16.485 3.399,13.103 1.745,11.449C1.107,10.812 0.72,9.966 0.655,9.067C0.449,6.224 0,0.027 0,0.027ZM3.95,2.463C4.786,2.463 5.464,3.141 5.464,3.977C5.464,4.812 4.786,5.49 3.95,5.49C3.115,5.49 2.436,4.812 2.436,3.977C2.436,3.141 3.115,2.463 3.95,2.463Z" style="fill:rgb(204,204,204);"/>
</svg>
