<?xml version="1.0" encoding="UTF-8" standalone="no"?>
<!DOCTYPE svg PUBLIC "-//W3C//DTD SVG 1.1//EN" "http://www.w3.org/Graphics/SVG/1.1/DTD/svg11.dtd">
<svg width="100%" height="100%" viewBox="0 0 20 20" version="1.1" xmlns="http://www.w3.org/2000/svg" xmlns:xlink="http://www.w3.org/1999/xlink" xml:space="preserve" xmlns:serif="http://www.serif.com/" style="fill-rule:evenodd;clip-rule:evenodd;stroke-linejoin:round;stroke-miterlimit:2;">
    <g transform="matrix(0.0100114,0,0,0.0100114,-0.000461852,0.0422968)">
        <path d="M0.019,1031.74C1.898,1000.54 -2.761,964.129 3.14,927.877C13.065,866.938 45.412,822.536 100.258,794.833C113.761,788.014 122.059,780.959 125.136,764.127C148.993,633.257 201.546,514.338 279.183,406.543C288.102,394.163 295.201,385.658 283.768,369.595C269.214,349.169 279.612,330.355 294.772,313.36C404.255,190.714 536.041,99.809 692.81,51.414C1066.77,-64 1396.41,14.969 1677.97,287.979C1703.94,313.168 1738.64,338.549 1705.47,382.833C1699.92,390.243 1709.73,396.662 1713.97,402.46C1794.67,512.475 1847.96,634.352 1871.73,768.756C1874.36,783.606 1883.59,788.31 1894.42,793.797C1962.05,828.053 1995.28,884.687 1995.58,958.952C1995.84,1026.06 2002.48,1093.61 1991.3,1160.32C1975.21,1256.32 1877.51,1323.24 1782.88,1303.65C1754.25,1297.72 1746.64,1275.67 1746.78,1248.69C1747.3,1138.57 1749.5,1028.38 1746.87,918.322C1739.75,622.341 1606.07,399.458 1347.32,257.184C914.274,19.081 358.832,283.009 263.505,768.386C246.939,852.769 249.793,937.491 250.74,1022.52C251.613,1101.62 250.666,1180.77 248.728,1259.84C248.048,1287.59 231.719,1303.27 202.093,1304.64C81.413,1310.27 0.256,1233.6 0.019,1112.93C-0.024,1087.56 0.019,1062.19 0.019,1031.74Z" style="fill:white;fill-rule:nonzero;"/>
    </g>
    <g transform="matrix(0.0100114,0,0,0.0100114,-0.000461852,0.0422968)">
        <path d="M1223.03,1441.7C1273.52,1448.35 1323.87,1456.5 1374.72,1459.46C1442.98,1463.42 1494.6,1441.53 1532.79,1400.4C1580.76,1348.75 1602.75,1288.68 1599.03,1221.33C1595.28,1153.63 1535.88,1113.59 1455.42,1127.51C1383.61,1139.95 1319.97,1167.96 1255.54,1193.7C1198.56,1216.46 1145.15,1243.81 1103.32,1282.63C1044.5,1337.23 1077.88,1409.55 1171.78,1432.27C1188.59,1436.34 1205.93,1438.6 1223.03,1441.7Z" style="fill:white;fill-rule:nonzero;"/>
    </g>
    <g transform="matrix(0.0100114,0,0,0.0100114,-0.000461852,0.0422968)">
        <path d="M942.669,1300.61L942.684,1300.61C942.669,1300.58 942.654,1300.57 942.639,1300.54C937.374,1284.49 928.411,1269.85 917.628,1256.09C880.503,1198.22 828.883,1146.02 776.641,1102.25C749.219,1078.43 720.037,1056.71 689.834,1036.35C622.624,989.976 569.954,962.998 569.954,962.998L569.776,963.086C489.846,923.136 416.942,962.184 397.714,1053.4C376.134,1155.72 393.425,1253.71 448.949,1343C487.169,1404.46 546.214,1433.6 616.87,1440.23C661.051,1444.37 705.408,1446.75 749.693,1449.91C785.738,1450.76 821.695,1453.3 856.734,1441.39C902.896,1425.73 938.513,1397.57 946.455,1347.89C949.207,1330.68 947.417,1315.08 942.669,1300.61Z" style="fill:white;fill-rule:nonzero;"/>
    </g>
    <g transform="matrix(0.0100114,0,0,0.0100114,-0.000461852,0.0422968)">
        <path d="M1798.36,1536.37C1797.58,1496.3 1779.83,1431.31 1753.47,1410.55C1742.17,1401.67 1725.5,1406.68 1721.17,1420.39C1715.58,1438.11 1706.38,1463.46 1692.37,1493.25L1692.42,1493.25C1661.22,1567.06 1615.39,1627.51 1561.81,1677.07C1491.85,1741.81 1408.67,1787.91 1327.36,1820.72C1327.33,1820.74 1327.32,1820.74 1327.29,1820.75C1307.07,1828.9 1286.97,1836.24 1267.22,1842.83C1267.06,1842.89 1266.88,1842.95 1266.72,1843C1253.59,1847.37 1240.63,1851.43 1227.88,1855.17C1227.79,1855.2 1227.7,1855.23 1227.61,1855.24C1221.45,1857.06 1215.34,1858.79 1209.29,1860.46C1208.96,1860.55 1208.62,1860.66 1208.3,1860.75C1196.02,1864.12 1184,1867.21 1172.3,1870.05C1171.81,1870.17 1171.35,1870.27 1170.86,1870.39C1165.48,1871.69 1160.15,1872.95 1154.89,1874.13C1154.43,1874.23 1153.97,1874.35 1153.51,1874.46C1142.34,1876.97 1131.53,1879.26 1121.1,1881.33C1120.39,1881.47 1119.7,1881.6 1118.99,1881.75C1114.39,1882.65 1109.88,1883.51 1105.46,1884.34C1104.89,1884.44 1104.32,1884.54 1103.76,1884.65C1093.93,1886.45 1084.57,1888.06 1075.67,1889.5C1074.9,1889.62 1074.14,1889.74 1073.39,1889.85C1069.51,1890.47 1065.73,1891.05 1062.06,1891.6C1061.59,1891.67 1061.1,1891.75 1060.63,1891.82C1056.38,1892.44 1052.27,1893.03 1048.32,1893.58L1048.29,1893.58C1044.46,1894.11 1040.82,1894.59 1037.27,1895.04C1036.69,1895.12 1036.13,1895.19 1035.55,1895.25C1032.14,1895.68 1028.82,1896.09 1025.67,1896.46L1025.61,1896.46C999.406,1899.53 983.076,1900.46 980.503,1900.59C980.266,1900.61 980.118,1900.61 980.118,1900.61L980.148,1900.64C639.632,1936.3 1066.59,2010.93 1387.65,1954.42L1387.64,1954.45C1388.38,1954.33 1389.06,1954.16 1389.8,1954.03C1397.34,1952.68 1404.82,1951.28 1412.25,1949.79C1418.87,1948.46 1425.38,1947.08 1431.79,1945.63C1436.77,1944.52 1441.71,1943.37 1446.62,1942.18C1449.65,1941.43 1452.76,1940.72 1455.73,1939.95C1498.51,1929.08 1537.79,1915.28 1571.21,1898.11C1769.89,1801.97 1789.12,1641.38 1789.12,1641.38C1795.73,1610.93 1799.15,1576.33 1798.36,1536.37Z" style="fill:white;fill-rule:nonzero;"/>
    </g>
</svg>
