<?xml version="1.0" encoding="UTF-8" standalone="no"?><!DOCTYPE svg PUBLIC "-//W3C//DTD SVG 1.1//EN" "http://www.w3.org/Graphics/SVG/1.1/DTD/svg11.dtd"><svg width="100%" height="100%" viewBox="0 0 17363 17363" version="1.1" xmlns="http://www.w3.org/2000/svg" xmlns:xlink="http://www.w3.org/1999/xlink" xml:space="preserve" xmlns:serif="http://www.serif.com/" style="fill-rule:evenodd;clip-rule:evenodd;stroke-linejoin:round;stroke-miterlimit:2;"><g id="Artboard"><path d="M2647.88,3095.11c-81.308,-77.963 -107.466,-197.321 -66.221,-302.142c41.246,-104.825 141.725,-174.354 254.359,-176.009c4403.75,-63.308 8784.71,-58.075 13141.1,21.013c739.879,13.95 1336.18,610.667 1349.61,1350.55c48.233,2895.2 44.921,6022.42 -4.625,9357.71c-11.096,730.53 -591.267,1324.98 -1321.31,1353.82c-4899.62,187.113 -9775.62,185.084 -14628.5,-1.608c-713.895,-28.413 -1287.23,-598.571 -1319.6,-1312.3c-127.025,-2913.85 -144.83,-5812.08 -36.155,-8692.25c4.18,-107.079 69.584,-202.208 168.067,-244.446c98.488,-42.237 212.488,-24.058 292.946,46.725c2323.9,2006.38 6503,4655.5 8175.54,4633.29c1179.1,-15.675 5584,-3618.12 5198.17,-4005.85c-544.641,-547.304 -4246.79,2800.73 -5198.17,2631.86c-811.534,-144.05 -4065.97,-2820.67 -6005.21,-4660.38l0.004,0.008Z"/></g></svg>