<?xml version="1.0" encoding="UTF-8" standalone="no"?><!DOCTYPE svg PUBLIC "-//W3C//DTD SVG 1.1//EN" "http://www.w3.org/Graphics/SVG/1.1/DTD/svg11.dtd"><svg width="100%" height="100%" viewBox="0 0 138 138" version="1.1" xmlns="http://www.w3.org/2000/svg" xmlns:xlink="http://www.w3.org/1999/xlink" xml:space="preserve" xmlns:serif="http://www.serif.com/" style="fill-rule:evenodd;clip-rule:evenodd;stroke-linejoin:round;stroke-miterlimit:2;"><path d="M5.493,49.605l-5.493,0l-0,-5.658l5.658,0l0,5.494l5.329,-0l-0,-5.494l27.632,0l-0,5.658l-5.494,0l0,5.329l5.494,0l-0,5.658l-5.494,0l0,5.329l5.494,-0l-0,5.658l-5.494,0l0,5.329l10.822,-0l0,-5.494l5.494,0l-0,-5.328l-5.494,-0l0,-5.659l5.494,0l-0,-5.328l-5.494,-0l0,-5.658l5.494,-0l-0,-5.329l-5.494,0l0,-33.125l5.494,-0l-0,-5.494l5.658,0l-0,5.494l5.493,-0l0,5.493l5.494,0l-0,5.658l-10.987,0l-0,10.822l5.328,0l0,-5.493l5.659,0l-0,5.493l5.328,0l0,-16.48l10.987,0l0,-5.328l-16.48,-0l-0,-5.494l-5.494,0l0,-5.658l16.646,-0l-0,5.493l10.822,0l-0,-5.493l5.658,-0l-0,16.645l-5.494,0l0,5.329l5.494,-0l-0,5.658l-5.494,-0l0,5.328l5.494,0l-0,5.659l-5.658,-0l-0,-5.494l-5.329,0l-0,5.494l-5.658,-0l-0,-5.494l-5.329,0l0,10.822l5.494,0l-0,10.987l10.822,0l-0,-5.329l-5.494,0l0,-5.658l11.152,0l-0,16.48l10.822,0l-0,-10.822l-5.494,0l0,-5.658l27.632,0l0,10.987l10.987,0l0,16.645l-5.658,0l-0,-5.493l-5.329,-0l0,10.822l10.987,-0l0,11.151l-5.493,0l-0,5.494l-11.152,-0l-0,-5.658l5.493,-0l0,-10.822l-5.328,-0l-0,5.493l-5.494,-0l0,16.315l5.494,0l-0,5.659l-5.494,-0l0,5.328l10.822,0l0,-10.987l11.152,0l0,5.659l-5.493,-0l-0,5.328l5.493,0l0,19.299c0,4.602 -3.731,8.333 -8.333,8.333c-4.158,0 -8.312,0 -8.312,0l-0,-5.493l-5.329,-0l0,5.493l-5.658,0l0,-10.987l-5.328,0l-0,10.987l-5.659,0l0,-16.48l-5.328,-0l-0,10.987l-11.152,-0l0,-5.494l-16.315,0l-0,5.329l5.493,-0l0,5.658l-16.645,0l0,-5.493l-5.329,-0l0,5.493l-5.658,0l0,-5.658l5.494,-0l-0,-5.329l-5.494,0l0,-22.138l5.494,-0l-0,-5.329l-5.494,0l0,-5.493l-16.48,-0l0,-5.658l16.48,-0l0,-5.329l-16.48,-0l0,-5.493l-5.329,-0l0,5.493l-5.493,-0l0,5.493l-5.658,0l-0,-16.48l-5.329,0l0,21.974l-5.658,-0l-0,-38.619l5.493,0l0,-5.329Zm5.659,0l-0,16.316l5.328,-0l0,-10.987l10.987,0l0,-5.329l-16.315,0Zm21.808,16.481l-5.328,-0l-0,5.328l5.328,0l0,-5.328Zm-5.493,-0.165l0,-5.329l-5.329,0l0,5.329l5.329,-0Zm16.645,11.152l0,5.328l5.493,0l0,5.658l-5.493,0l0,5.329l5.493,-0l0,5.493l5.329,0l0,-10.986l5.493,-0l0,-10.987l11.152,-0l0,5.658l-5.493,-0l-0,10.822l5.328,-0l0,-5.493l10.987,-0l0,-5.329l-5.493,-0l-0,-5.658l10.987,-0l-0,-5.329l-27.468,0l0,-5.493l-5.328,-0l-0,10.987l-10.987,-0Zm5.493,-11.152l5.329,-0l0,-5.329l-5.329,0l0,5.329Zm0,-10.987l5.329,0l0,-5.329l-5.329,0l0,5.329Zm5.494,-10.822l-0,5.329l5.328,-0l0,-5.329l-5.328,0Zm-5.494,-10.987l0,5.329l5.329,-0l0,-5.329l-5.329,0Zm0,-16.48l0,5.329l5.329,-0l0,-5.329l-5.329,0Zm10.987,16.48l0,10.822l5.329,0l-0,-10.822l-5.329,0Zm16.481,-5.493l-0,5.328l5.328,0l0,-5.328l-5.328,-0Zm10.822,-5.494l-5.329,0l-0,5.329l5.329,0l-0,-5.329Zm-16.481,21.974l-5.328,0l-0,10.987l-5.494,-0l0,5.328l5.494,0l-0,5.494l16.315,-0l0,-5.329l-10.987,0l0,-16.48Zm33.126,16.48l-0,10.822l5.328,0l0,-5.493l16.48,-0l0,-10.822l-10.986,-0l-0,-5.494l-5.329,0l-0,10.987l-5.493,0Zm16.315,16.316l-0,-5.329l-10.822,0l-0,10.822l5.329,0l-0,-5.493l5.493,-0Zm-10.987,32.96l0,-16.315l-16.315,-0l-0,16.315l16.315,0Zm10.987,5.658l-5.329,0l0,5.494l-5.493,-0l-0,5.328l10.822,0l-0,-10.822Zm7.653,16.316c1.841,-0 3.334,-1.493 3.334,-3.334l-0,-7.488l-5.329,-0l0,5.493l-5.493,0l-0,5.329l7.488,-0Zm-23.968,-10.987l5.328,-0l0,-5.329l-5.328,0l-0,5.329Zm-11.152,-0l-0,-5.329l-5.329,0l0,5.329l5.329,-0Zm-5.493,5.493l-0,-5.328l-5.329,-0l-0,5.328l5.329,0Zm-32.796,-5.493l21.809,-0l-0,-5.329l-10.987,0l-0,-11.151l5.658,-0l0,5.493l5.329,0l-0,-10.987l5.493,0l0,-5.328l-10.822,-0l0,5.493l-5.658,0l-0,-5.493l-5.329,-0l0,5.493l-5.493,0l-0,5.494l-5.494,-0l0,10.822l5.494,-0l-0,5.493Zm5.328,10.987l0,-5.329l-5.328,0l-0,5.329l5.328,-0Zm-38.453,-54.934l-0,-5.329l-5.329,0l0,5.329l5.329,-0Zm66.085,5.658l0,5.329l10.822,-0l0,-5.329l-10.822,-0Zm5.494,-10.987l-0,5.329l5.493,-0l0,5.493l5.329,0l-0,-10.822l-10.822,0Zm-5.658,38.289l-0,-10.822l-5.329,0l-0,10.822l5.329,0Zm16.645,-10.987l-0,5.659l-5.659,-0l0,-5.659l5.659,0Zm-104.54,-90.548c-0,-2.21 0.878,-4.329 2.441,-5.892c1.563,-1.563 3.682,-2.441 5.892,-2.441l30.121,-0l-0,38.454l-38.454,-0l-0,-30.121Zm32.96,24.627l0,-27.467l-24.133,0c-1.841,0 -3.334,1.493 -3.334,3.334l0,24.133l27.467,0Zm-5.493,-21.973l0,16.48l-16.48,0l-0,-16.48l16.48,-0Zm71.414,-10.987l30.121,-0c2.21,-0 4.33,0.878 5.892,2.441c1.563,1.563 2.441,3.682 2.441,5.892l0,30.121l-38.454,-0l0,-38.454Zm32.961,32.96l-0,-24.133c-0,-1.841 -1.493,-3.334 -3.334,-3.334l-24.133,0l-0,27.467l27.467,0Zm-5.494,-21.973l0,16.48l-16.48,0l0,-16.48l16.48,-0Zm-126.348,87.894l38.454,0l-0,38.454l-30.121,0c-2.21,0 -4.329,-0.878 -5.892,-2.441c-1.563,-1.562 -2.441,-3.682 -2.441,-5.892l-0,-30.121Zm32.96,32.961l0,-27.467l-27.467,-0l0,24.133c0,1.841 1.493,3.334 3.334,3.334l24.133,-0Zm-5.493,-21.974l0,16.48l-16.48,0l-0,-16.48l16.48,0Z"/></svg>