<?xml version="1.0" encoding="UTF-8" standalone="no"?><!DOCTYPE svg PUBLIC "-//W3C//DTD SVG 1.1//EN" "http://www.w3.org/Graphics/SVG/1.1/DTD/svg11.dtd"><svg width="100%" height="100%" viewBox="0 0 138 138" version="1.1" xmlns="http://www.w3.org/2000/svg" xmlns:xlink="http://www.w3.org/1999/xlink" xml:space="preserve" xmlns:serif="http://www.serif.com/" style="fill-rule:evenodd;clip-rule:evenodd;stroke-linejoin:round;stroke-miterlimit:2;"><path d="M60.427,11.152l0,-11.152l5.659,-0l-0,5.493l5.493,0l0,5.659l-11.152,-0Zm-60.427,49.44l-0,-16.645l5.658,0l0,16.645l-5.658,0Zm16.48,-10.987l-5.493,0l-0,-5.658l27.632,0l-0,5.494l5.493,-0l0,5.493l10.822,0l0,-10.987l5.658,0l0,10.987l5.329,0l-0,-5.493l5.493,-0l0,-5.494l10.987,0l0,-5.328l-5.493,-0l-0,-5.494l-5.329,0l0,5.494l-5.658,-0l-0,-5.494l-5.329,0l0,5.494l-5.658,-0l0,-5.659l5.493,0l0,-5.328l-10.822,-0l0,16.48l-5.658,0l0,-33.125l5.494,-0l-0,-5.494l5.658,0l-0,16.481l5.493,-0l0,5.493l5.329,0l-0,-5.493l5.493,-0l0,-5.494l5.494,0l-0,-10.987l10.987,0l-0,-5.493l5.658,-0l-0,5.658l-5.494,0l0,5.494l-5.493,-0l-0,5.328l10.987,0l-0,38.454l5.493,0l0,5.658l-10.987,0l0,10.822l5.329,0l-0,-5.493l10.987,-0l-0,-5.494l5.658,0l-0,5.494l5.493,-0l0,5.493l5.329,0l-0,-5.493l10.987,-0l-0,-5.329l-5.494,0l0,-10.987l-27.467,0l0,-5.658l27.632,0l0,5.494l5.494,-0l-0,5.493l5.493,0l0,16.645l-5.493,0l-0,5.329l5.493,-0l0,11.151l-5.658,0l-0,-5.493l-5.494,-0l0,-10.987l-5.328,0l-0,10.987l-5.494,-0l0,10.822l5.329,-0l-0,-5.493l5.658,-0l0,5.658l-5.493,-0l-0,5.328l16.48,0l0,11.152l-10.987,-0l0,5.329l10.987,-0l0,13.805c0,2.21 -0.878,4.329 -2.441,5.892c-1.563,1.563 -3.682,2.441 -5.892,2.441c-12.786,-0 -35.779,-0 -35.779,-0l-0,-5.493l-5.329,-0l0,5.493l-27.632,-0l0,-5.658l16.481,-0l-0,-5.494l10.987,0l-0,-10.822l-21.809,0l-0,5.329l5.493,-0l0,5.658l-5.658,0l-0,-5.493l-5.329,-0l0,5.493l-5.493,0l-0,5.494l-5.494,-0l0,5.493l-5.658,-0l0,-5.658l5.494,-0l-0,-5.329l-5.494,0l0,-22.138l11.152,-0l-0,5.493l5.493,0l0,5.494l5.329,-0l-0,-10.987l5.658,-0l0,5.493l5.329,0l-0,-5.493l5.658,-0l-0,5.493l5.329,0l-0,-10.822l-5.494,0l0,-5.493l-5.328,-0l-0,5.493l-11.152,0l-0,-5.493l-10.822,-0l-0,5.493l-11.152,0l0,-5.493l-21.973,-0l-0,-5.658l5.493,-0l0,-5.329l-5.493,-0l-0,-10.987l-5.494,0l0,-10.987l-5.493,0l-0,-5.658l5.493,0l0,-5.329Zm21.974,0l-16.316,0l0,21.809l5.494,0l-0,10.987l5.328,0l0,-5.493l5.659,-0l-0,5.493l5.328,0l0,-10.987l5.658,0l0,5.494l38.29,-0l-0,-5.329l-27.468,0l0,-5.658l21.974,-0l0,-10.822l-5.328,-0l-0,5.493l-16.646,0l0,-5.493l-5.328,-0l-0,10.987l-11.152,-0l0,-10.987l-5.328,-0l-0,5.493l-5.494,0l0,5.329l5.494,-0l-0,5.658l-5.659,0l0,-5.493l-5.493,-0l0,-5.659l5.493,0l0,-5.493l5.494,0l-0,-5.329Zm44.112,-11.151l5.329,-0l-0,-5.329l-5.329,0l-0,5.329Zm5.329,-16.316l-10.822,0l-0,5.329l10.822,0l-0,-5.329Zm-0,32.796l-0,-5.329l-5.329,0l-0,5.329l5.329,0Zm5.658,16.645l-0,5.329l5.493,-0l0,5.493l5.329,0l-0,-10.822l-10.822,0Zm-0.165,5.494l-5.329,-0l0,5.328l5.329,0l-0,-5.328Zm21.974,-5.494l-5.329,0l-0,5.329l5.329,-0l-0,-5.329Zm5.493,27.467l-5.329,0l0,5.329l5.329,-0l-0,-5.329Zm5.493,5.494l-5.328,-0l-0,5.328l5.328,0l0,-5.328Zm-5.493,10.822l-0,-5.329l-5.329,-0l0,5.329l5.329,-0Zm10.987,5.658l-5.329,-0l0,5.493l-5.493,0l-0,5.329l7.488,-0c1.841,-0 3.334,-1.493 3.334,-3.334l-0,-7.488Zm-38.289,-0l-0,5.328l21.809,0l-0,-5.328l-5.494,-0l0,-5.494l-5.328,0l-0,5.494l-10.987,-0Zm-33.126,-0.165l0,-5.329l-10.822,0l0,10.822l5.329,0l0,-5.493l5.493,-0Zm33.126,-27.302l-0,16.315l16.315,0l0,-16.315l-16.315,-0Zm-10.987,-0.165l5.329,-0l-0,-5.329l-5.329,0l-0,5.329Zm-16.48,-5.493l16.315,-0l0,-5.329l-16.315,-0l-0,5.329Zm-11.152,5.493l0,-5.493l5.493,-0l0,-5.329l-16.315,-0l0,5.329l5.493,-0l0,5.493l5.329,-0Zm-21.809,-5.493l5.329,-0l-0,-5.329l-5.329,-0l0,5.329Zm71.415,10.986l-0,5.659l-5.659,-0l0,-5.659l5.659,0Zm-104.54,-5.328l0,-27.632l5.658,-0l0,27.632l-5.658,-0Zm121.02,-38.619l-0,5.658l-5.658,0l-0,-5.658l5.658,0Zm-104.375,32.961l0,5.658l-5.658,-0l-0,-5.658l5.658,-0Zm-16.645,-79.562c-0,-2.21 0.878,-4.329 2.441,-5.892c1.563,-1.563 3.682,-2.441 5.892,-2.441l30.121,-0l-0,38.454l-38.454,-0l0,-30.121Zm32.96,24.627l0,-27.467l-24.133,0c-1.841,0 -3.334,1.493 -3.334,3.334l0,24.133l27.467,0Zm-5.493,-21.973l0,16.48l-16.48,0l-0,-16.48l16.48,-0Zm71.414,-10.987l30.121,-0c2.21,-0 4.33,0.878 5.892,2.441c1.563,1.563 2.441,3.682 2.441,5.892l0,30.121l-38.454,-0l0,-38.454Zm32.961,32.96l-0,-24.133c-0,-1.841 -1.493,-3.334 -3.334,-3.334l-24.133,0l-0,27.467l27.467,0Zm-5.494,-21.973l0,16.48l-16.48,0l0,-16.48l16.48,-0Zm-126.348,87.894l38.454,0l-0,38.454l-30.121,0c-2.21,0 -4.329,-0.878 -5.892,-2.441c-1.563,-1.562 -2.441,-3.682 -2.441,-5.892l0,-30.121Zm32.96,32.961l0,-27.467l-27.467,-0l0,24.133c0,1.841 1.493,3.334 3.334,3.334l24.133,-0Zm-5.493,-21.974l0,16.48l-16.48,0l-0,-16.48l16.48,0Z"/></svg>