<?xml version="1.0" encoding="UTF-8" standalone="no"?><!DOCTYPE svg PUBLIC "-//W3C//DTD SVG 1.1//EN" "http://www.w3.org/Graphics/SVG/1.1/DTD/svg11.dtd"><svg width="100%" height="100%" viewBox="0 0 4167 4167" version="1.1" xmlns="http://www.w3.org/2000/svg" xmlns:xlink="http://www.w3.org/1999/xlink" xml:space="preserve" xmlns:serif="http://www.serif.com/" style="fill-rule:evenodd;clip-rule:evenodd;stroke-linejoin:round;stroke-miterlimit:2;"><g id="Artboard"><path id="Path-3" d="M286.437,1951.66c1118.48,-487.303 1864.31,-808.564 2237.48,-963.781c1065.5,-443.176 1286.9,-520.16 1431.2,-522.703c31.739,-0.559 102.705,7.307 148.673,44.607c38.815,31.496 49.494,74.042 54.605,103.903c5.11,29.861 11.474,97.886 6.416,151.039c-57.74,606.674 -307.578,2078.91 -434.682,2758.4c-53.782,287.516 -159.681,383.919 -262.203,393.353c-222.805,20.503 -391.993,-147.245 -607.79,-288.703c-337.681,-221.354 -528.449,-359.147 -856.226,-575.148c-378.803,-249.625 -133.241,-386.824 82.638,-611.045c56.497,-58.68 1038.18,-951.597 1057.18,-1032.6c2.376,-10.131 4.581,-47.893 -17.853,-67.833c-22.433,-19.94 -55.544,-13.121 -79.437,-7.698c-33.868,7.687 -573.317,364.242 -1618.35,1069.67c-153.121,105.144 -291.813,156.374 -416.076,153.69c-136.991,-2.96 -400.505,-77.457 -596.401,-141.135c-240.274,-78.103 -431.239,-119.397 -414.611,-252.042c8.662,-69.089 103.804,-139.746 285.428,-211.972Z"/></g></svg>