<?xml version="1.0" encoding="UTF-8" standalone="no"?>
<!DOCTYPE svg PUBLIC "-//W3C//DTD SVG 1.1//EN" "http://www.w3.org/Graphics/SVG/1.1/DTD/svg11.dtd">
<svg width="100%" height="100%" viewBox="0 0 30 30" version="1.1" xmlns="http://www.w3.org/2000/svg" xmlns:xlink="http://www.w3.org/1999/xlink" xml:space="preserve" xmlns:serif="http://www.serif.com/" style="fill-rule:evenodd;clip-rule:evenodd;stroke-linejoin:round;stroke-miterlimit:2;">
    <g transform="matrix(1,0,0,1,-80.300898,-79.441195)">
        <g id="portrait-mask" transform="matrix(1,0,0,1,0.300898,-0.558805)">
            <g>
                <rect x="80" y="80" width="30" height="30" style="fill:none;"/>
                <g transform="matrix(0.93211,-0.294282,0.294282,0.93211,-21.692399,35.277612)">
                    <path d="M99.558,79.978C98.949,79.62 98.236,79.484 97.538,79.592C90.775,80.687 84.351,84.485 80.894,90.068C80.498,90.722 80.36,91.499 80.509,92.249C81.934,99.265 86.222,104.435 92.075,108.596C92.856,109.149 93.85,109.305 94.763,109.019C101.301,106.947 106.142,103.569 109.64,99.154C110.082,98.585 110.31,97.878 110.283,97.158C109.941,89.415 105.376,83.446 99.558,79.978Z"/>
                    <path d="M99.558,79.978C105.376,83.446 109.941,89.415 110.283,97.158C110.31,97.878 110.082,98.585 109.64,99.154C106.142,103.569 101.301,106.947 94.763,109.019C93.85,109.305 92.856,109.149 92.075,108.596C86.222,104.435 81.934,99.265 80.509,92.249C80.36,91.499 80.498,90.722 80.894,90.068C84.351,84.485 90.775,80.687 97.538,79.592C98.236,79.484 98.949,79.62 99.558,79.978ZM98.691,81.446L98.687,81.444C98.42,81.289 98.108,81.23 97.803,81.276C91.533,82.294 85.557,85.783 82.347,90.961C82.176,91.248 82.117,91.587 82.181,91.915C83.518,98.488 87.577,103.305 93.061,107.205C93.407,107.449 93.847,107.519 94.252,107.393C100.419,105.437 104.996,102.266 108.3,98.099C108.491,97.849 108.59,97.541 108.579,97.227C108.262,90.108 104.04,84.636 98.691,81.446Z"/>
                </g>
            </g>
        </g>
    </g>
</svg>
