<?xml version="1.0" encoding="UTF-8" standalone="no"?>
<!DOCTYPE svg PUBLIC "-//W3C//DTD SVG 1.1//EN" "http://www.w3.org/Graphics/SVG/1.1/DTD/svg11.dtd">
<svg width="100%" height="100%" viewBox="0 0 417 417" version="1.1" xmlns="http://www.w3.org/2000/svg" xmlns:xlink="http://www.w3.org/1999/xlink" xml:space="preserve" xmlns:serif="http://www.serif.com/" style="fill-rule:evenodd;clip-rule:evenodd;stroke-linecap:round;stroke-linejoin:round;stroke-miterlimit:1.5;"><circle cx="208.333" cy="208.333" r="208.333" style="fill:url(#_Linear1);"/><path d="M182.685,320.178c16.952,31.599 25.659,65.024 14.865,100.151c-1.013,3.297 0.841,6.797 4.138,7.81c3.298,1.013 6.797,-0.841 7.81,-4.138c11.819,-38.463 2.764,-75.133 -15.798,-109.732c-1.631,-3.04 -5.423,-4.183 -8.463,-2.553c-3.039,1.631 -4.183,5.423 -2.552,8.462Z" style="fill:#fff;"/><clipPath id="_clip2"><circle cx="208.333" cy="208.333" r="208.333"/></clipPath><g clip-path="url(#_clip2)"><path d="M208.333,416.667l208.334,-0l-0,-416.667l-208.334,0l-81.75,94.474l-17.216,36.244l-5.437,34.432l7.702,27.183l-7.702,19.935l-13.591,26.277l0.453,14.497l16.763,5.89l9.514,-4.077l7.702,20.387l-0,32.167l8.608,15.403l24.011,7.702l27.184,-8.155l8.154,5.89l12.686,28.089l4.077,31.714l-1.158,28.615Z" style="fill:#fff;stroke:#fff;stroke-width:4.17px;"/></g><path d="M104.055,198.732c-0.128,0.324 -0.581,1.444 -0.933,2.099c-1.013,1.889 -2.202,3.728 -2.832,4.988c-4.35,8.709 -9.223,17.165 -13.836,25.737c-1.205,2.241 -3.438,5.192 -4.695,8.102c-1.501,3.477 -1.806,6.97 -0.593,10.041c3.871,9.802 13.877,16.627 24.75,15.766c1.16,-0.092 2.943,-0.546 4.858,-1.155c0.368,-0.117 0.812,-0.25 1.269,-0.384l0.264,0.618c2.33,5.281 4.348,10.759 5.793,16.351c2.244,8.683 0.971,18.469 1.942,26.934c1.274,11.114 5.501,20.4 19.736,24.9c3.748,1.185 7.625,1.962 11.561,2.125c5.361,0.221 10.642,-0.365 15.859,-1.572c7.938,-1.836 15.623,-5.412 22.536,-9.687c9.025,-5.58 16.6,-12.557 22.658,-21.277c1.969,-2.832 1.267,-6.73 -1.566,-8.698c-2.833,-1.969 -6.731,-1.267 -8.699,1.566c-5.067,7.292 -11.419,13.11 -18.967,17.777c-5.768,3.567 -12.156,6.608 -18.779,8.141c-4.122,0.953 -8.292,1.435 -12.527,1.26c-2.83,-0.116 -5.613,-0.701 -8.308,-1.553c-10.179,-3.218 -11.117,-10.962 -11.43,-19.312c-0.292,-7.781 0.049,-16.136 -1.914,-23.732c-1.614,-6.246 -3.856,-12.37 -6.459,-18.269c-0.343,-0.779 -1.633,-4.102 -2.635,-5.552c-1.347,-1.951 -3.046,-2.754 -4.17,-3.039c-1.311,-0.333 -3.327,-0.341 -5.615,0.207c-2.185,0.523 -4.986,1.778 -6.395,1.89c-5.217,0.413 -9.958,-2.872 -11.971,-7.502c0.186,-0.468 0.822,-2.025 1.335,-2.883c1.122,-1.876 2.375,-3.662 3.17,-5.14c4.672,-8.684 9.603,-17.251 14.011,-26.074c0.905,-1.813 2.92,-4.803 3.996,-7.461c0.838,-2.07 1.197,-4.066 1.085,-5.715c-0.394,-5.82 -2.013,-11.501 -3.617,-17.233c-1.349,-4.818 -2.7,-9.676 -2.819,-14.775c-0.602,-25.837 11.507,-53.224 26.289,-74.193c0.537,-0.761 78.06,-93.371 78.603,-94.116c2.034,-2.786 1.422,-6.699 -1.365,-8.732c-2.786,-2.034 -6.699,-1.422 -8.732,1.364c-0.544,0.746 -78.185,93.519 -78.722,94.281c-16.253,23.055 -29.232,53.281 -28.569,81.688c0.143,6.152 1.65,12.039 3.278,17.852c1.339,4.786 2.778,9.512 3.155,14.367Z" style="fill:#fff;"/><path d="M208.333,0c114.983,0 208.334,93.351 208.334,208.333c-0,114.983 -93.351,208.334 -208.334,208.334c-114.982,-0 -208.333,-93.351 -208.333,-208.334c-0,-114.982 93.351,-208.333 208.333,-208.333Zm0,20.833c103.484,0 187.5,84.016 187.5,187.5c0,103.484 -84.016,187.5 -187.5,187.5c-103.484,0 -187.5,-84.016 -187.5,-187.5c0,-103.484 84.016,-187.5 187.5,-187.5Z" style="fill:url(#_Linear3);"/><path d="M166.09,201.861l58.943,58.943l104.941,-104.941" style="fill:none;stroke:url(#_Linear4);stroke-width:25px;"/><defs><linearGradient id="_Linear1" x1="0" y1="0" x2="1" y2="0" gradientUnits="userSpaceOnUse" gradientTransform="matrix(416.667,0,0,416.667,0,208.333)"><stop offset="0" style="stop-color:#cc4187;stop-opacity:1"/><stop offset="1" style="stop-color:#9e41cc;stop-opacity:1"/></linearGradient><linearGradient id="_Linear3" x1="0" y1="0" x2="1" y2="0" gradientUnits="userSpaceOnUse" gradientTransform="matrix(416.667,0,0,416.667,0,220.063)"><stop offset="0" style="stop-color:#cc4187;stop-opacity:1"/><stop offset="1" style="stop-color:#9e41cc;stop-opacity:1"/></linearGradient><linearGradient id="_Linear4" x1="0" y1="0" x2="1" y2="0" gradientUnits="userSpaceOnUse" gradientTransform="matrix(194.229,0,0,194.229,148.307,199.858)"><stop offset="0" style="stop-color:#cc4187;stop-opacity:1"/><stop offset="1" style="stop-color:#9e41cc;stop-opacity:1"/></linearGradient></defs></svg>