<?xml version="1.0" encoding="UTF-8" standalone="no"?>
<!DOCTYPE svg PUBLIC "-//W3C//DTD SVG 1.1//EN" "http://www.w3.org/Graphics/SVG/1.1/DTD/svg11.dtd">
<svg width="100%" height="100%" viewBox="0 0 101 934" version="1.1" xmlns="http://www.w3.org/2000/svg" xmlns:xlink="http://www.w3.org/1999/xlink" xml:space="preserve" xmlns:serif="http://www.serif.com/" style="fill-rule:evenodd;clip-rule:evenodd;stroke-linejoin:round;stroke-miterlimit:2;">
    <g transform="matrix(6.12323e-17,-1,1,6.12323e-17,-622.6,995.933)">
        <path d="M62.533,724L62.533,623.2L81.573,623.2L81.573,706.22L124.973,706.22L124.973,724L62.533,724Z" style="fill:rgb(110,110,110);fill-rule:nonzero;"/>
        <path d="M129.873,724L160.673,623.2L189.093,623.2L219.893,724L200.293,724L172.853,635.1L176.493,635.1L149.473,724L129.873,724ZM148.353,703L148.353,685.22L201.553,685.22L201.553,703L148.353,703Z" style="fill:rgb(110,110,110);fill-rule:nonzero;"/>
        <g transform="matrix(-1,-1.22465e-16,1.22465e-16,-1,541.427,1347.2)">
            <path d="M270.713,724C262.593,724 255.453,722.355 249.293,719.065C243.133,715.775 238.327,711.143 234.873,705.17C231.42,699.197 229.693,692.173 229.693,684.1L229.693,623.34L249.013,623.2L249.013,683.96C249.013,687.273 249.573,690.283 250.693,692.99C251.813,695.697 253.365,698.03 255.348,699.99C257.332,701.95 259.642,703.455 262.278,704.505C264.915,705.555 267.727,706.08 270.713,706.08C273.793,706.08 276.652,705.543 279.288,704.47C281.925,703.397 284.223,701.88 286.183,699.92C288.143,697.96 289.672,695.627 290.768,692.92C291.865,690.213 292.413,687.227 292.413,683.96L292.413,623.2L311.733,623.2L311.733,684.1C311.733,692.173 310.007,699.197 306.553,705.17C303.1,711.143 298.293,715.775 292.133,719.065C285.973,722.355 278.833,724 270.713,724Z" style="fill:rgb(110,110,110);fill-rule:nonzero;"/>
        </g>
        <path d="M331.333,724L331.333,623.2L373.893,623.2C374.873,623.2 376.192,623.235 377.848,623.305C379.505,623.375 380.987,623.527 382.293,623.76C388.313,624.693 393.248,626.677 397.098,629.71C400.948,632.743 403.783,636.558 405.603,641.155C407.423,645.752 408.333,650.873 408.333,656.52C408.333,664.967 406.233,672.188 402.033,678.185C397.833,684.182 391.253,687.88 382.293,689.28L373.893,689.84L350.373,689.84L350.373,724L331.333,724ZM388.173,724L368.293,682.98L387.893,679.2L409.733,724L388.173,724ZM350.373,672.06L373.053,672.06C374.033,672.06 375.107,672.013 376.273,671.92C377.44,671.827 378.513,671.64 379.493,671.36C382.06,670.66 384.043,669.482 385.443,667.825C386.843,666.168 387.812,664.325 388.348,662.295C388.885,660.265 389.153,658.34 389.153,656.52C389.153,654.7 388.885,652.775 388.348,650.745C387.812,648.715 386.843,646.872 385.443,645.215C384.043,643.558 382.06,642.38 379.493,641.68C378.513,641.4 377.44,641.213 376.273,641.12C375.107,641.027 374.033,640.98 373.053,640.98L350.373,640.98L350.373,672.06Z" style="fill:rgb(110,110,110);fill-rule:nonzero;"/>
        <path d="M425.133,724L425.133,623.2L490.933,623.2L490.933,640.98L444.173,640.98L444.173,662.54L482.533,662.54L482.533,680.32L444.173,680.32L444.173,706.22L490.933,706.22L490.933,724L425.133,724Z" style="fill:rgb(110,110,110);fill-rule:nonzero;"/>
        <path d="M507.733,724L507.733,623.2L527.053,623.2L570.873,690.4L570.873,623.2L590.193,623.2L590.193,724L570.873,724L527.053,656.8L527.053,724L507.733,724Z" style="fill:rgb(110,110,110);fill-rule:nonzero;"/>
        <path d="M606.993,724L606.993,721.62L654.873,640.98L611.193,640.98L611.193,623.2L688.193,623.2L688.193,625.58L640.593,706.08L686.793,706.08L686.793,724L606.993,724Z" style="fill:rgb(110,110,110);fill-rule:nonzero;"/>
        <path d="M732.993,724L732.993,623.2L765.613,623.2C766.407,623.2 768.04,623.223 770.513,623.27C772.987,623.317 775.367,623.48 777.653,623.76C785.773,624.74 792.657,627.563 798.303,632.23C803.95,636.897 808.243,642.823 811.183,650.01C814.123,657.197 815.593,665.06 815.593,673.6C815.593,682.14 814.123,690.003 811.183,697.19C808.243,704.377 803.95,710.303 798.303,714.97C792.657,719.637 785.773,722.46 777.653,723.44C775.367,723.72 772.987,723.883 770.513,723.93C768.04,723.977 766.407,724 765.613,724L732.993,724ZM752.313,706.08L765.613,706.08C766.873,706.08 768.577,706.045 770.723,705.975C772.87,705.905 774.807,705.707 776.533,705.38C780.92,704.493 784.502,702.44 787.278,699.22C790.055,696 792.108,692.127 793.438,687.6C794.768,683.073 795.433,678.407 795.433,673.6C795.433,668.56 794.745,663.777 793.368,659.25C791.992,654.723 789.903,650.897 787.103,647.77C784.303,644.643 780.78,642.66 776.533,641.82C774.807,641.447 772.87,641.237 770.723,641.19C768.577,641.143 766.873,641.12 765.613,641.12L752.313,641.12L752.313,706.08Z" style="fill:url(#_Linear1);fill-rule:nonzero;"/>
        <path d="M832.393,724L832.393,623.2L898.193,623.2L898.193,640.98L851.433,640.98L851.433,662.54L889.793,662.54L889.793,680.32L851.433,680.32L851.433,706.22L898.193,706.22L898.193,724L832.393,724Z" style="fill:url(#_Linear2);fill-rule:nonzero;"/>
        <path d="M936.693,724L905.893,623.2L925.493,623.2L950.693,706.08L976.313,623.2L995.913,623.2L965.113,724L936.693,724Z" style="fill:url(#_Linear3);fill-rule:nonzero;"/>
    </g>
    <defs>
        <linearGradient id="_Linear1" x1="0" y1="0" x2="1" y2="0" gradientUnits="userSpaceOnUse" gradientTransform="matrix(272.047,0,0,272.047,723.867,674.65)"><stop offset="0" style="stop-color:rgb(229,177,67);stop-opacity:1"/><stop offset="1" style="stop-color:rgb(205,88,77);stop-opacity:1"/></linearGradient>
        <linearGradient id="_Linear2" x1="0" y1="0" x2="1" y2="0" gradientUnits="userSpaceOnUse" gradientTransform="matrix(272.047,0,0,272.047,723.867,674.65)"><stop offset="0" style="stop-color:rgb(229,177,67);stop-opacity:1"/><stop offset="1" style="stop-color:rgb(205,88,77);stop-opacity:1"/></linearGradient>
        <linearGradient id="_Linear3" x1="0" y1="0" x2="1" y2="0" gradientUnits="userSpaceOnUse" gradientTransform="matrix(272.047,0,0,272.047,723.867,674.65)"><stop offset="0" style="stop-color:rgb(229,177,67);stop-opacity:1"/><stop offset="1" style="stop-color:rgb(205,88,77);stop-opacity:1"/></linearGradient>
    </defs>
</svg>
