<?xml version="1.0" encoding="UTF-8" standalone="no"?>
<!DOCTYPE svg PUBLIC "-//W3C//DTD SVG 1.1//EN" "http://www.w3.org/Graphics/SVG/1.1/DTD/svg11.dtd">
<svg width="100%" height="100%" viewBox="0 0 934 101" version="1.1" xmlns="http://www.w3.org/2000/svg" xmlns:xlink="http://www.w3.org/1999/xlink" xml:space="preserve" xmlns:serif="http://www.serif.com/" style="fill-rule:evenodd;clip-rule:evenodd;stroke-linejoin:round;stroke-miterlimit:2;">
    <g transform="matrix(1,0,0,1,-62.5333,-625.163)">
        <g transform="matrix(1,0,0,1,0,-5)">
            <rect x="62.533" y="623.2" width="62.44" height="114.726" style="fill:rgb(68,68,68);fill-rule:nonzero;"/>
        </g>
        <g transform="matrix(1,0,0,1,0,-5)">
            <path d="M129.873,737.926L129.873,623.2L219.893,623.2L219.893,737.926L200.293,737.926L200.293,623.2L149.473,623.2L149.473,737.926L129.873,737.926Z" style="fill:rgb(68,68,68);fill-rule:nonzero;"/>
        </g>
        <g transform="matrix(-1,-1.22465e-16,1.22465e-16,-1,541.427,1342.2)">
            <path d="M311.733,724L229.693,724L229.693,609.414L249.013,609.274L249.013,724L292.413,724L292.413,609.274L311.733,609.274L311.733,724Z" style="fill:rgb(68,68,68);fill-rule:nonzero;"/>
        </g>
        <g transform="matrix(1,0,0,1,0,-5)">
            <path d="M331.333,737.926L331.333,623.2L350.373,623.2L350.373,737.926L331.333,737.926ZM388.173,737.926L388.173,623.2L409.733,623.2L409.733,737.926L388.173,737.926Z" style="fill:rgb(68,68,68);fill-rule:nonzero;"/>
        </g>
        <g transform="matrix(1,0,0,1,0,-5)">
            <rect x="425.133" y="623.2" width="65.8" height="114.726" style="fill:rgb(68,68,68);fill-rule:nonzero;"/>
        </g>
        <g transform="matrix(1,0,0,1,0,-5)">
            <path d="M507.733,737.926L507.733,623.2L590.193,623.2L590.193,737.926L570.873,737.926L570.873,623.2L527.053,623.2L527.053,737.926L507.733,737.926Z" style="fill:rgb(68,68,68);fill-rule:nonzero;"/>
        </g>
        <g transform="matrix(1,0,0,1,0,-5)">
            <rect x="606.993" y="623.2" width="79.8" height="114.726" style="fill:rgb(68,68,68);fill-rule:nonzero;"/>
        </g>
        <g transform="matrix(1,0,0,1,0,-1.91398)">
            <rect x="732.993" y="623.2" width="43.923" height="104.628" style="fill:url(#_Linear1);fill-rule:nonzero;"/>
        </g>
        <g transform="matrix(1,0,0,1,0,-5)">
            <rect x="832.393" y="623.2" width="65.8" height="114.726" style="fill:url(#_Linear2);fill-rule:nonzero;"/>
        </g>
        <g transform="matrix(1,0,0,1,0,-5)">
            <rect x="936.693" y="623.2" width="28.42" height="114.726" style="fill:url(#_Linear3);fill-rule:nonzero;"/>
        </g>
    </g>
    <defs>
        <linearGradient id="_Linear1" x1="0" y1="0" x2="1" y2="0" gradientUnits="userSpaceOnUse" gradientTransform="matrix(272.047,0,0,272.047,723.867,674.65)"><stop offset="0" style="stop-color:rgb(182,141,54);stop-opacity:1"/><stop offset="1" style="stop-color:rgb(164,67,58);stop-opacity:1"/></linearGradient>
        <linearGradient id="_Linear2" x1="0" y1="0" x2="1" y2="0" gradientUnits="userSpaceOnUse" gradientTransform="matrix(272.047,0,0,272.047,723.867,674.65)"><stop offset="0" style="stop-color:rgb(182,141,54);stop-opacity:1"/><stop offset="1" style="stop-color:rgb(164,67,58);stop-opacity:1"/></linearGradient>
        <linearGradient id="_Linear3" x1="0" y1="0" x2="1" y2="0" gradientUnits="userSpaceOnUse" gradientTransform="matrix(272.047,0,0,272.047,723.867,674.65)"><stop offset="0" style="stop-color:rgb(182,141,54);stop-opacity:1"/><stop offset="1" style="stop-color:rgb(164,67,58);stop-opacity:1"/></linearGradient>
    </defs>
</svg>
