<?xml version="1.0" encoding="UTF-8" standalone="no"?>
<!DOCTYPE svg PUBLIC "-//W3C//DTD SVG 1.1//EN" "http://www.w3.org/Graphics/SVG/1.1/DTD/svg11.dtd">
<svg width="100%" height="100%" viewBox="0 0 30 40" version="1.1" xmlns="http://www.w3.org/2000/svg" xmlns:xlink="http://www.w3.org/1999/xlink" xml:space="preserve" xmlns:serif="http://www.serif.com/" style="fill-rule:evenodd;clip-rule:evenodd;stroke-linejoin:round;stroke-miterlimit:2;">
    <g transform="matrix(1,0,0,1,-80,0)">
        <g id="item-highlight-mask" transform="matrix(1,0,0,1.333333,0,0)">
            <rect x="80" y="0" width="30" height="30" style="fill:none;"/>
            <clipPath id="_clip1">
                <rect x="80" y="0" width="30" height="30"/>
            </clipPath>
            <g clip-path="url(#_clip1)">
                <g transform="matrix(1,0,0,0.75,0.388497,1.830438)">
                    <path d="M103.242,4.379C103.337,4.692 103.579,4.938 103.89,5.039C104.873,5.357 107.099,6.078 108.575,6.556C108.893,6.658 109.139,6.913 109.229,7.235C109.32,7.556 109.245,7.902 109.028,8.156C108.137,9.201 106.849,10.71 106.13,11.553C105.818,11.919 105.81,12.456 106.112,12.83C106.932,13.846 108.518,15.812 109.39,16.893C109.73,17.314 109.673,17.929 109.261,18.28C108.144,19.236 106.053,21.024 105.09,21.847C104.782,22.11 104.664,22.533 104.789,22.918C105.266,24.375 106.45,27.997 107.157,30.158C107.27,30.503 107.187,30.882 106.941,31.148C106.695,31.414 106.324,31.526 105.972,31.441C104.401,31.062 102.155,30.519 100.915,30.219C100.404,30.096 99.885,30.389 99.727,30.89C99.324,32.167 98.574,34.543 98.06,36.173C97.95,36.52 97.66,36.78 97.302,36.852C96.945,36.924 96.577,36.795 96.342,36.517C95.293,35.274 93.794,33.501 92.962,32.516C92.617,32.107 92.012,32.042 91.588,32.368C90.235,33.41 87.358,35.625 85.381,37.147C85.053,37.399 84.603,37.424 84.25,37.208C83.896,36.992 83.712,36.581 83.787,36.174C84.227,33.774 84.85,30.378 85.074,29.157C85.128,28.865 85.049,28.565 84.86,28.337C84.125,27.453 82.22,25.162 81.242,23.986C80.906,23.581 80.941,22.985 81.322,22.622C82.378,21.619 84.388,19.706 85.315,18.826C85.61,18.545 85.705,18.112 85.555,17.733C85.034,16.416 83.824,13.359 83.211,11.811C83.114,11.564 83.118,11.288 83.224,11.044C83.331,10.8 83.529,10.609 83.777,10.512C84.818,10.105 86.486,9.452 87.489,9.06C87.968,8.873 88.227,8.352 88.087,7.857C87.751,6.668 87.143,4.519 86.728,3.051C86.633,2.717 86.718,2.358 86.953,2.103C87.187,1.847 87.537,1.731 87.877,1.796C90.391,2.276 95,3.155 95,3.155C95,3.155 98.94,1.356 100.869,0.475C101.132,0.355 101.433,0.354 101.696,0.473C101.958,0.591 102.157,0.817 102.241,1.093C102.554,2.12 103.008,3.611 103.242,4.379Z"/>
                    <path d="M103.242,4.379C103.337,4.692 103.579,4.938 103.89,5.039L108.575,6.556C108.893,6.658 109.139,6.913 109.229,7.235C109.32,7.556 109.245,7.902 109.028,8.156L106.13,11.553C105.818,11.919 105.81,12.456 106.112,12.83L109.39,16.893C109.73,17.314 109.673,17.929 109.261,18.28L105.09,21.847C104.782,22.11 104.664,22.533 104.789,22.918L107.157,30.158C107.27,30.503 107.187,30.882 106.941,31.148C106.695,31.414 106.324,31.526 105.972,31.441L100.915,30.219C100.404,30.096 99.885,30.389 99.727,30.89L98.06,36.173C97.95,36.52 97.66,36.78 97.302,36.852C96.945,36.924 96.577,36.795 96.342,36.517L92.962,32.516C92.617,32.107 92.012,32.042 91.588,32.368L85.381,37.147C85.053,37.399 84.603,37.424 84.25,37.208C83.896,36.992 83.712,36.581 83.787,36.174L85.074,29.157C85.128,28.865 85.049,28.565 84.86,28.337L81.242,23.986C80.906,23.581 80.941,22.985 81.322,22.622L85.315,18.826C85.61,18.545 85.705,18.112 85.555,17.733L83.211,11.811C83.114,11.564 83.118,11.288 83.224,11.044C83.331,10.8 83.529,10.609 83.777,10.512L87.489,9.06C87.968,8.873 88.227,8.352 88.087,7.857L86.728,3.051C86.633,2.717 86.718,2.358 86.953,2.103C87.187,1.847 87.537,1.731 87.877,1.796L95,3.155L100.869,0.475C101.132,0.355 101.433,0.354 101.696,0.473C101.958,0.591 102.157,0.817 102.241,1.093L103.242,4.379ZM88.162,30.8L89.555,29.727L91.051,28.982L92.66,28.852L94.205,29.32L95.509,30.365L96.156,31.13L96.548,29.887L97.332,28.44L98.55,27.418L100.055,26.903L101.698,26.979L102.689,27.219L101.621,23.954L101.407,22.685L101.568,21.436L102.081,20.286L102.924,19.314L105.372,17.221L103.518,14.923L102.787,13.596L102.558,12.143L102.827,10.696L103.594,9.39L104.224,8.651L102.864,8.211L101.914,7.77L101.107,7.125L100.477,6.307L100.053,5.35L99.829,4.614L96.385,6.187C95.756,6.474 95.054,6.559 94.375,6.429L90.963,5.778L91.294,6.95L91.437,8.557L91.005,10.057L90.07,11.307L88.703,12.164L87.173,12.763L88.655,16.506L88.946,17.769L88.857,19.033L88.406,20.218L87.612,21.241L85.201,23.534L87.423,26.206L87.947,27L88.283,27.879L88.421,28.809L88.353,29.758L88.162,30.8Z"/>
                </g>
            </g>
        </g>
    </g>
</svg>
