<?xml version="1.0" encoding="UTF-8" standalone="no"?>
<!DOCTYPE svg PUBLIC "-//W3C//DTD SVG 1.1//EN" "http://www.w3.org/Graphics/SVG/1.1/DTD/svg11.dtd">
<svg width="100%" height="100%" viewBox="0 0 100 100" version="1.1" xmlns="http://www.w3.org/2000/svg" xmlns:xlink="http://www.w3.org/1999/xlink" xml:space="preserve" xmlns:serif="http://www.serif.com/" style="fill-rule:evenodd;clip-rule:evenodd;stroke-linejoin:round;stroke-miterlimit:2;">
    <g transform="matrix(0.820509,0,0,0.820509,-0.820509,-0.0369194)">
        <path d="M1.2,65C1.4,63.1 1,60.9 1.4,58.6C2,54.9 4.1,52 7.4,50.4C8.2,50 8.6,49.6 8.8,48.5C10.2,40.5 13.5,33.1 18.3,26.5C18.9,25.7 19.3,25.3 18.5,24.2C17.7,23 18.3,21.7 19.1,20.7C25.9,13.1 33.9,7.5 43.4,4.4C66.2,-2.8 86.2,2.1 103.5,19C105.1,20.6 107.2,22.1 105.1,24.8C104.7,25.2 105.3,25.6 105.7,26C110.6,32.8 113.9,40.4 115.4,48.6C115.6,49.4 116.2,49.8 116.8,50.2C120.9,52.3 123,55.8 123,60.5C123,64.6 123.4,68.7 122.8,72.8C121.8,78.8 115.8,82.9 110,81.6C108.4,81.2 107.7,80 107.7,78.3C107.7,71.5 107.9,64.7 107.7,57.9C107.1,39.6 99.1,25.8 83.2,17C57,2.6 23,18.9 17.3,48.7C16.3,53.8 16.5,59.2 16.5,64.3C16.5,69.2 16.5,74 16.3,78.9C16.3,80.5 15.3,81.6 13.4,81.6C5.9,82 1,77.3 1,69.7C1.2,68.5 1.2,67 1.2,65" style="fill-rule:nonzero;"/>
    </g>
    <g transform="matrix(0.820509,0,0,0.820509,-0.820509,-0.0369194)">
        <path d="M53.1,89C55.8,88 57.8,86.1 58.4,83C59,79.9 55.5,75.6 50.8,71.1C45.9,66.4 39.5,61.4 36,59.6C30.9,56.5 26.1,59.2 25.1,65.2C23.9,71.8 25.1,78 28.6,83.5C31.1,87.4 34.6,89.1 38.9,89.5C41.3,89.4 51,89.9 53.1,89" style="fill-rule:nonzero;"/>
    </g>
    <g transform="matrix(0.820509,0,0,0.820509,-0.820509,-0.0369194)">
        <path d="M75.1,90.9C78.2,91.3 81.1,91.9 84.2,92.1C88.3,92.3 91.4,91.1 93.7,88.6C96.6,85.5 98,81.6 97.8,77.5C97.6,73.2 94.1,70.7 89.4,71.5C85.1,72.1 81.4,74 77.5,75.4C74,76.8 70.9,78.5 68.4,80.7C64.9,84 66.8,88.5 72.3,90.2C73,90.5 74,90.7 75.1,90.9" style="fill-rule:nonzero;"/>
    </g>
    <g transform="matrix(0.820509,0,0,0.820509,-0.820509,-0.0369194)">
        <path d="M107.8,87.2C107.2,86.6 106.2,87 105.7,87.8C103.8,93.8 95,113.9 65,116C29.6,118.5 83.9,126.1 99.4,114.6C104.7,110.5 110.7,106.4 110.5,94.6C110.5,92.3 109.4,88.4 107.8,87.2" style="fill-rule:nonzero;"/>
    </g>
</svg>
