<?xml version="1.0" encoding="UTF-8" standalone="no"?>
<!DOCTYPE svg PUBLIC "-//W3C//DTD SVG 1.1//EN" "http://www.w3.org/Graphics/SVG/1.1/DTD/svg11.dtd">
<svg width="100%" height="100%" viewBox="0 0 30 30" version="1.1" xmlns="http://www.w3.org/2000/svg" xmlns:xlink="http://www.w3.org/1999/xlink" xml:space="preserve" xmlns:serif="http://www.serif.com/" style="fill-rule:evenodd;clip-rule:evenodd;stroke-linejoin:round;stroke-miterlimit:2;">
    <g transform="matrix(1,0,0,1,0,-80)">
        <rect id="logo-square" x="0" y="80" width="30" height="30" style="fill:none;"/>
        <clipPath id="_clip1">
            <rect id="logo-square1" serif:id="logo-square" x="0" y="80" width="30" height="30"/>
        </clipPath>
        <g clip-path="url(#_clip1)">
            <g transform="matrix(-2.130446,-0,0,-2.130446,62.007957,114.668273)">
                <g transform="matrix(-0.469385,0,-0,-0.469385,29.105623,53.8236)">
                    <path d="M2.861,80L5.876,80L12.603,96.188C12.632,96.259 12.667,96.327 12.706,96.392L13.226,97.641C13.544,98.406 14.421,98.768 15.186,98.451L30,92.295L30,93.206L12.906,100.309C12.213,100.597 11.428,100.327 11.05,99.705L2.861,80Z"/>
                </g>
                <g transform="matrix(-0.469385,0,-0,-0.469385,29.105623,53.8236)">
                    <path d="M12.624,80L30,80L30,83.853L17.917,88.875C17.224,89.163 16.439,88.892 16.061,88.27L12.624,80Z"/>
                </g>
                <g transform="matrix(-0.469385,0,-0,-0.469385,29.105623,53.8236)">
                    <path d="M30,101.647L30,110L0,110L0,89.353L7.592,107.622C7.622,107.694 7.657,107.763 7.696,107.828L8.215,109.076C8.367,109.443 8.66,109.735 9.027,109.886C9.395,110.038 9.808,110.038 10.176,109.885L30,101.647Z"/>
                </g>
                <g transform="matrix(-0.965926,-0.258819,0.258819,-0.965926,33.989769,22.799549)">
                    <g transform="matrix(1.068354,0.1394,-0.1394,1.068354,11.041171,4.495916)">
                        <path d="M-1.834,0.081L-2.003,-0.089C-2.126,-0.211 -2.195,-0.378 -2.195,-0.551C-2.195,-0.724 -2.126,-0.891 -2.003,-1.013L-1.013,-2.003C-0.758,-2.258 -0.344,-2.258 -0.089,-2.003L0.239,-1.676C-0.017,-1.863 -0.378,-1.841 -0.609,-1.61L-1.599,-0.62C-1.781,-0.439 -1.833,-0.178 -1.757,0.049L-1.834,0.081Z" style="fill:url(#_Linear2);"/>
                    </g>
                    <g transform="matrix(1.068354,0.1394,-0.1394,1.068354,11.041171,4.495916)">
                        <path d="M8.522,-2.378L9.839,-3.696C10.094,-3.951 10.508,-3.951 10.763,-3.696L11.753,-2.706C11.876,-2.583 11.945,-2.417 11.945,-2.244C11.945,-2.15 11.925,-2.059 11.887,-1.976L10.952,-2.911C10.697,-3.166 10.283,-3.166 10.028,-2.911L8.806,-1.689L8.522,-2.378Z" style="fill:url(#_Linear3);"/>
                    </g>
                    <g transform="matrix(1.068354,0.1394,-0.1394,1.068354,11.041171,4.495916)">
                        <path d="M3.642,5.546C3.616,5.526 3.59,5.505 3.567,5.481L-1.834,0.081L-1.757,0.049C-1.726,0.142 -1.674,0.23 -1.599,0.304L3.642,5.546Z" style="fill:url(#_Linear4);"/>
                    </g>
                    <g transform="matrix(1.068354,0.1394,-0.1394,1.068354,11.041171,4.495916)">
                        <path d="M3.643,1.718C3.898,1.905 4.26,1.884 4.491,1.652L8.522,-2.378L8.806,-1.689L4.983,2.134C4.728,2.389 4.314,2.389 4.059,2.134L3.643,1.718Z" style="fill:url(#_Linear5);"/>
                    </g>
                    <g transform="matrix(1.068354,0.1394,-0.1394,1.068354,10.158411,10.289017)">
                        <path d="M-2.528,-0.614L-5.664,-3.75C-5.919,-4.005 -5.919,-4.419 -5.664,-4.674L-4.674,-5.664C-4.552,-5.787 -4.385,-5.856 -4.212,-5.856C-4.039,-5.856 -3.872,-5.787 -3.75,-5.664L-3.422,-5.337C-3.678,-5.524 -4.039,-5.502 -4.27,-5.271L-5.26,-4.281C-5.383,-4.159 -5.452,-3.992 -5.452,-3.819C-5.452,-3.646 -5.383,-3.48 -5.26,-3.357L-2.535,-0.632L-2.528,-0.614Z" style="fill:url(#_Linear6);"/>
                    </g>
                    <g transform="matrix(1.068354,0.1394,-0.1394,1.068354,10.158411,10.289017)">
                        <path d="M10.193,-4.05L11.726,-5.583C11.982,-5.838 12.395,-5.838 12.651,-5.583L12.676,-5.558L10.478,-3.361L10.193,-4.05Z" style="fill:url(#_Linear7);"/>
                    </g>
                    <g transform="matrix(1.068354,0.1394,-0.1394,1.068354,10.158411,10.289017)">
                        <path d="M-2.528,-0.614L-2.535,-0.632L3.643,5.546C3.616,5.527 3.591,5.505 3.567,5.481L-2.528,-0.614Z" style="fill:url(#_Linear8);"/>
                    </g>
                    <g transform="matrix(1.068354,0.1394,-0.1394,1.068354,10.158411,10.289017)">
                        <path d="M3.643,1.718C3.898,1.905 4.26,1.884 4.491,1.652L10.193,-4.05L10.478,-3.361L4.983,2.134C4.728,2.389 4.314,2.389 4.059,2.134L3.643,1.718Z" style="fill:url(#_Linear9);"/>
                    </g>
                </g>
                <g transform="matrix(-0.965926,-0.258819,0.258819,-0.965926,33.697414,22.117387)">
                    <g transform="matrix(1.068354,0.1394,-0.1394,1.068354,11.041171,4.495916)">
                        <path d="M-0.254,-2.157C-0.227,-2.138 -0.202,-2.116 -0.178,-2.092L0.391,-1.523L0.384,-1.52L-0.254,-2.157Z" style="fill:url(#_Linear10);"/>
                    </g>
                    <g transform="matrix(1.068354,0.1394,-0.1394,1.068354,11.041171,4.495916)">
                        <path d="M11.395,-2.458L11.45,-2.403C11.573,-2.28 11.641,-2.114 11.641,-1.94C11.641,-1.767 11.573,-1.601 11.45,-1.478L9.433,0.539L9.148,-0.15L11.261,-2.263C11.317,-2.32 11.363,-2.386 11.395,-2.458Z" style="fill:url(#_Linear11);"/>
                    </g>
                    <g transform="matrix(1.068354,0.1394,-0.1394,1.068354,11.041171,4.495916)">
                        <path d="M9.433,0.539L4.491,5.481C4.236,5.736 3.822,5.736 3.567,5.481L3.15,5.064C3.261,5.146 3.396,5.191 3.536,5.191C3.71,5.191 3.876,5.122 3.998,4.999L9.148,-0.15L9.433,0.539Z" style="fill:url(#_Linear12);"/>
                    </g>
                    <g transform="matrix(1.068354,0.1394,-0.1394,1.068354,11.041171,4.495916)">
                        <path d="M-2.25,-0.433C-2.326,-0.66 -2.273,-0.921 -2.092,-1.102L-1.102,-2.092C-0.871,-2.323 -0.509,-2.345 -0.254,-2.157L0.384,-1.52L-2.25,-0.433Z" style="fill:url(#_Linear13);"/>
                    </g>
                    <g transform="matrix(1.068354,0.1394,-0.1394,1.068354,11.041171,4.495916)">
                        <path d="M0.384,-1.52L0.391,-1.523L3.15,1.236C3.124,1.217 3.098,1.195 3.074,1.171L0.384,-1.52Z" style="fill:url(#_Linear14);"/>
                    </g>
                    <g transform="matrix(1.068354,0.1394,-0.1394,1.068354,11.041171,4.495916)">
                        <path d="M8.314,-2.171L9.536,-3.393C9.791,-3.648 10.205,-3.648 10.46,-3.393L11.395,-2.458C11.363,-2.386 11.317,-2.32 11.261,-2.263L9.148,-0.15L8.314,-2.171Z" style="fill:url(#_Linear15);"/>
                    </g>
                    <g transform="matrix(1.068354,0.1394,-0.1394,1.068354,11.041171,4.495916)">
                        <path d="M3.15,5.064L-2.092,-0.178C-2.166,-0.252 -2.219,-0.339 -2.25,-0.433L0.384,-1.52L3.074,1.171C3.098,1.195 3.124,1.217 3.15,1.236L3.567,1.652C3.822,1.908 4.236,1.908 4.491,1.652L8.314,-2.171L9.148,-0.15L3.998,4.999C3.876,5.122 3.71,5.191 3.536,5.191C3.396,5.191 3.261,5.146 3.15,5.064Z" style="fill:url(#_Linear16);"/>
                    </g>
                    <g transform="matrix(1.068354,0.1394,-0.1394,1.068354,10.158411,10.289017)">
                        <path d="M-3.915,-5.818C-3.888,-5.799 -3.863,-5.777 -3.839,-5.753L-3.423,-5.338L-3.431,-5.334L-3.915,-5.818Z" style="fill:url(#_Linear17);"/>
                    </g>
                    <g transform="matrix(1.068354,0.1394,-0.1394,1.068354,10.158411,10.289017)">
                        <path d="M12.183,-6.04L12.464,-6.321C12.719,-6.576 13.133,-6.576 13.388,-6.321L14.378,-5.331C14.633,-5.075 14.633,-4.662 14.378,-4.406L11.104,-1.133L10.82,-1.822L13.148,-4.151C13.271,-4.273 13.34,-4.439 13.34,-4.613C13.34,-4.786 13.271,-4.952 13.148,-5.075L12.183,-6.04Z" style="fill:url(#_Linear18);"/>
                    </g>
                    <g transform="matrix(1.068354,0.1394,-0.1394,1.068354,10.158411,10.289017)">
                        <path d="M-3.028,-1.114L-5.753,-3.839C-5.875,-3.961 -5.944,-4.127 -5.944,-4.301C-5.944,-4.474 -5.875,-4.64 -5.753,-4.763L-4.763,-5.753C-4.532,-5.984 -4.17,-6.006 -3.915,-5.818L-3.431,-5.334L-4.575,-4.862L-3.028,-1.114Z" style="fill:url(#_Linear19);"/>
                    </g>
                    <g transform="matrix(1.068354,0.1394,-0.1394,1.068354,10.158411,10.289017)">
                        <path d="M-3.431,-5.334L-3.423,-5.338L3.15,1.236C3.124,1.217 3.098,1.195 3.074,1.171L-3.431,-5.334Z" style="fill:url(#_Linear20);"/>
                    </g>
                    <g transform="matrix(1.068354,0.1394,-0.1394,1.068354,10.158411,10.289017)">
                        <path d="M9.985,-3.842L12.183,-6.04L13.148,-5.075C13.271,-4.952 13.34,-4.786 13.34,-4.613C13.34,-4.439 13.271,-4.273 13.148,-4.151L10.82,-1.822L9.985,-3.842Z" style="fill:url(#_Linear21);"/>
                    </g>
                    <g transform="matrix(1.068354,0.1394,-0.1394,1.068354,10.158411,10.289017)">
                        <path d="M10.82,-1.822L11.104,-1.133L4.491,5.481C4.368,5.603 4.202,5.672 4.029,5.672C3.855,5.672 3.689,5.603 3.567,5.481L3.15,5.064C3.406,5.252 3.767,5.23 3.998,4.999L10.82,-1.822Z" style="fill:url(#_Linear22);"/>
                    </g>
                    <g transform="matrix(1.068354,0.1394,-0.1394,1.068354,10.158411,10.289017)">
                        <path d="M-3.028,-1.114L-4.575,-4.862L-3.431,-5.334L3.074,1.171C3.098,1.195 3.124,1.217 3.15,1.236L3.567,1.652C3.822,1.908 4.236,1.908 4.491,1.652L9.985,-3.842L10.82,-1.822L3.998,4.999C3.767,5.23 3.406,5.252 3.15,5.064L-3.028,-1.114Z" style="fill:url(#_Linear23);"/>
                    </g>
                </g>
            </g>
        </g>
    </g>
    <defs>
        <linearGradient id="_Linear2" x1="0" y1="0" x2="1" y2="0" gradientUnits="userSpaceOnUse" gradientTransform="matrix(9.808852,-1.279872,1.279872,9.808852,-0.640055,3.386973)"><stop offset="0" style="stop-color:black;stop-opacity:0"/><stop offset="1" style="stop-color:black;stop-opacity:1"/></linearGradient>
        <linearGradient id="_Linear3" x1="0" y1="0" x2="1" y2="0" gradientUnits="userSpaceOnUse" gradientTransform="matrix(9.808852,-1.279872,1.279872,9.808852,-0.640055,3.386973)"><stop offset="0" style="stop-color:black;stop-opacity:0"/><stop offset="1" style="stop-color:black;stop-opacity:1"/></linearGradient>
        <linearGradient id="_Linear4" x1="0" y1="0" x2="1" y2="0" gradientUnits="userSpaceOnUse" gradientTransform="matrix(9.808852,-1.279872,1.279872,9.808852,-0.640055,3.386973)"><stop offset="0" style="stop-color:black;stop-opacity:0"/><stop offset="1" style="stop-color:black;stop-opacity:1"/></linearGradient>
        <linearGradient id="_Linear5" x1="0" y1="0" x2="1" y2="0" gradientUnits="userSpaceOnUse" gradientTransform="matrix(9.808852,-1.279872,1.279872,9.808852,-0.640055,3.386973)"><stop offset="0" style="stop-color:black;stop-opacity:0"/><stop offset="1" style="stop-color:black;stop-opacity:1"/></linearGradient>
        <linearGradient id="_Linear6" x1="0" y1="0" x2="1" y2="0" gradientUnits="userSpaceOnUse" gradientTransform="matrix(9.808852,-1.279872,1.279872,9.808852,-0.640055,3.386973)"><stop offset="0" style="stop-color:black;stop-opacity:0"/><stop offset="1" style="stop-color:black;stop-opacity:1"/></linearGradient>
        <linearGradient id="_Linear7" x1="0" y1="0" x2="1" y2="0" gradientUnits="userSpaceOnUse" gradientTransform="matrix(9.808852,-1.279872,1.279872,9.808852,-0.640055,3.386973)"><stop offset="0" style="stop-color:black;stop-opacity:0"/><stop offset="1" style="stop-color:black;stop-opacity:1"/></linearGradient>
        <linearGradient id="_Linear8" x1="0" y1="0" x2="1" y2="0" gradientUnits="userSpaceOnUse" gradientTransform="matrix(9.808852,-1.279872,1.279872,9.808852,-0.640055,3.386973)"><stop offset="0" style="stop-color:black;stop-opacity:0"/><stop offset="1" style="stop-color:black;stop-opacity:1"/></linearGradient>
        <linearGradient id="_Linear9" x1="0" y1="0" x2="1" y2="0" gradientUnits="userSpaceOnUse" gradientTransform="matrix(9.808852,-1.279872,1.279872,9.808852,-0.640055,3.386973)"><stop offset="0" style="stop-color:black;stop-opacity:0"/><stop offset="1" style="stop-color:black;stop-opacity:1"/></linearGradient>
        <linearGradient id="_Linear10" x1="0" y1="0" x2="1" y2="0" gradientUnits="userSpaceOnUse" gradientTransform="matrix(9.808852,-1.279872,1.279872,9.808852,-0.640055,3.386973)"><stop offset="0" style="stop-color:black;stop-opacity:1"/><stop offset="1" style="stop-color:black;stop-opacity:0"/></linearGradient>
        <linearGradient id="_Linear11" x1="0" y1="0" x2="1" y2="0" gradientUnits="userSpaceOnUse" gradientTransform="matrix(9.808852,-1.279872,1.279872,9.808852,-0.640055,3.386973)"><stop offset="0" style="stop-color:black;stop-opacity:1"/><stop offset="1" style="stop-color:black;stop-opacity:0"/></linearGradient>
        <linearGradient id="_Linear12" x1="0" y1="0" x2="1" y2="0" gradientUnits="userSpaceOnUse" gradientTransform="matrix(9.808852,-1.279872,1.279872,9.808852,-0.640055,3.386973)"><stop offset="0" style="stop-color:black;stop-opacity:1"/><stop offset="1" style="stop-color:black;stop-opacity:0"/></linearGradient>
        <linearGradient id="_Linear13" x1="0" y1="0" x2="1" y2="0" gradientUnits="userSpaceOnUse" gradientTransform="matrix(9.808852,-1.279872,1.279872,9.808852,-0.640055,3.386973)"><stop offset="0" style="stop-color:black;stop-opacity:1"/><stop offset="1" style="stop-color:black;stop-opacity:0"/></linearGradient>
        <linearGradient id="_Linear14" x1="0" y1="0" x2="1" y2="0" gradientUnits="userSpaceOnUse" gradientTransform="matrix(9.808852,-1.279872,1.279872,9.808852,-0.640055,3.386973)"><stop offset="0" style="stop-color:black;stop-opacity:1"/><stop offset="1" style="stop-color:black;stop-opacity:0"/></linearGradient>
        <linearGradient id="_Linear15" x1="0" y1="0" x2="1" y2="0" gradientUnits="userSpaceOnUse" gradientTransform="matrix(9.808852,-1.279872,1.279872,9.808852,-0.640055,3.386973)"><stop offset="0" style="stop-color:black;stop-opacity:1"/><stop offset="1" style="stop-color:black;stop-opacity:0"/></linearGradient>
        <linearGradient id="_Linear16" x1="0" y1="0" x2="1" y2="0" gradientUnits="userSpaceOnUse" gradientTransform="matrix(9.808852,-1.279872,1.279872,9.808852,-0.640055,3.386973)"><stop offset="0" style="stop-color:black;stop-opacity:1"/><stop offset="1" style="stop-color:black;stop-opacity:0"/></linearGradient>
        <linearGradient id="_Linear17" x1="0" y1="0" x2="1" y2="0" gradientUnits="userSpaceOnUse" gradientTransform="matrix(9.808852,-1.279872,1.279872,9.808852,-0.640055,3.386973)"><stop offset="0" style="stop-color:black;stop-opacity:1"/><stop offset="1" style="stop-color:black;stop-opacity:0"/></linearGradient>
        <linearGradient id="_Linear18" x1="0" y1="0" x2="1" y2="0" gradientUnits="userSpaceOnUse" gradientTransform="matrix(9.808852,-1.279872,1.279872,9.808852,-0.640055,3.386973)"><stop offset="0" style="stop-color:black;stop-opacity:1"/><stop offset="1" style="stop-color:black;stop-opacity:0"/></linearGradient>
        <linearGradient id="_Linear19" x1="0" y1="0" x2="1" y2="0" gradientUnits="userSpaceOnUse" gradientTransform="matrix(9.808852,-1.279872,1.279872,9.808852,-0.640055,3.386973)"><stop offset="0" style="stop-color:black;stop-opacity:1"/><stop offset="1" style="stop-color:black;stop-opacity:0"/></linearGradient>
        <linearGradient id="_Linear20" x1="0" y1="0" x2="1" y2="0" gradientUnits="userSpaceOnUse" gradientTransform="matrix(9.808852,-1.279872,1.279872,9.808852,-0.640055,3.386973)"><stop offset="0" style="stop-color:black;stop-opacity:1"/><stop offset="1" style="stop-color:black;stop-opacity:0"/></linearGradient>
        <linearGradient id="_Linear21" x1="0" y1="0" x2="1" y2="0" gradientUnits="userSpaceOnUse" gradientTransform="matrix(9.808852,-1.279872,1.279872,9.808852,-0.640055,3.386973)"><stop offset="0" style="stop-color:black;stop-opacity:1"/><stop offset="1" style="stop-color:black;stop-opacity:0"/></linearGradient>
        <linearGradient id="_Linear22" x1="0" y1="0" x2="1" y2="0" gradientUnits="userSpaceOnUse" gradientTransform="matrix(9.808852,-1.279872,1.279872,9.808852,-0.640055,3.386973)"><stop offset="0" style="stop-color:black;stop-opacity:1"/><stop offset="1" style="stop-color:black;stop-opacity:0"/></linearGradient>
        <linearGradient id="_Linear23" x1="0" y1="0" x2="1" y2="0" gradientUnits="userSpaceOnUse" gradientTransform="matrix(9.808852,-1.279872,1.279872,9.808852,-0.640055,3.386973)"><stop offset="0" style="stop-color:black;stop-opacity:1"/><stop offset="1" style="stop-color:black;stop-opacity:0"/></linearGradient>
    </defs>
</svg>
