<?xml version="1.0" encoding="UTF-8" standalone="no"?><!DOCTYPE svg PUBLIC "-//W3C//DTD SVG 1.1//EN" "http://www.w3.org/Graphics/SVG/1.1/DTD/svg11.dtd"><svg width="100%" height="100%" viewBox="0 0 6 6" version="1.1" xmlns="http://www.w3.org/2000/svg" xmlns:xlink="http://www.w3.org/1999/xlink" xml:space="preserve" xmlns:serif="http://www.serif.com/" style="fill-rule:evenodd;clip-rule:evenodd;stroke-linejoin:round;stroke-miterlimit:2;"><path d="M3.338,2.838c0,0.133 -0.052,0.26 -0.146,0.354c-0.094,0.094 -0.221,0.146 -0.354,0.146c-0.63,0 -1.708,0 -2.338,0c-0.133,0 -0.26,-0.052 -0.354,-0.146c-0.093,-0.094 -0.146,-0.221 -0.146,-0.354c0,-0.63 0,-1.708 -0,-2.338c-0,-0.133 0.053,-0.26 0.146,-0.354c0.094,-0.093 0.221,-0.146 0.354,-0.146c0.63,-0 1.708,-0 2.338,-0c0.133,-0 0.26,0.053 0.354,0.146c0.094,0.094 0.146,0.221 0.146,0.354l0,2.338Zm-2.003,-2.003c-0.133,-0 -0.26,0.052 -0.354,0.146c-0.094,0.094 -0.146,0.221 -0.146,0.354l-0,0.669c-0,0.132 0.052,0.26 0.146,0.353c0.094,0.094 0.221,0.147 0.354,0.147l0.669,-0c0.132,-0 0.26,-0.053 0.353,-0.147c0.094,-0.093 0.147,-0.221 0.147,-0.353l-0,-0.669c-0,-0.133 -0.053,-0.26 -0.147,-0.354c-0.093,-0.094 -0.221,-0.146 -0.353,-0.146l-0.669,-0Z"/><path d="M4.5,2.25c0.133,-0 0.26,-0.053 0.354,-0.146c0.093,-0.094 0.146,-0.221 0.146,-0.354c-0,-0.082 -0,-0.168 -0,-0.25c-0,-0.133 0.053,-0.26 0.146,-0.354c0.094,-0.093 0.221,-0.146 0.354,-0.146c0.276,0 0.5,0.224 0.5,0.5c-0,0.235 -0,0.515 -0,0.75c-0,0.276 -0.224,0.5 -0.5,0.5c-0.133,0 -0.26,0.053 -0.354,0.146c-0.093,0.094 -0.146,0.221 -0.146,0.354c0,0.082 0,0.168 0,0.25c0,0.133 -0.053,0.26 -0.146,0.354c-0.094,0.093 -0.221,0.146 -0.354,0.146c-0.276,-0 -0.5,-0.224 -0.5,-0.5c0,-0.235 0,-0.515 0,-0.75c0,-0.276 0.224,-0.5 0.5,-0.5c-0,-0 -0,-0 0,-0Z"/><path d="M5,0.5c-0,-0.276 -0.224,-0.5 -0.5,-0.5c-0.276,0 -0.5,0.224 -0.5,0.5c0,0.276 0.224,0.5 0.5,0.5c0.276,-0 0.5,-0.224 0.5,-0.5l-0,-0Z"/><path d="M4.5,5c0.133,-0 0.26,0.053 0.354,0.146c0.093,0.094 0.146,0.221 0.146,0.354c-0,0.133 -0.053,0.26 -0.146,0.354c-0.094,0.093 -0.221,0.146 -0.354,0.146c-0.305,0 -0.695,0 -1,0c-0.133,0 -0.26,-0.053 -0.354,-0.146c-0.093,-0.094 -0.146,-0.221 -0.146,-0.354c0,-0.133 0.053,-0.26 0.146,-0.354c0.094,-0.093 0.221,-0.146 0.354,-0.146c0.305,0 0.695,0 1,0Z"/><path d="M1,4.5c0,0.276 0.224,0.5 0.5,0.5c0.276,-0 0.5,-0.224 0.5,-0.5c0,-0.276 0.224,-0.5 0.5,-0.5c0.276,0 0.5,0.224 0.5,0.5c-0,0.276 -0.224,0.5 -0.5,0.5c-0.276,0 -0.5,0.224 -0.5,0.5c-0,0.276 -0.224,0.5 -0.5,0.5c-0.276,-0 -0.5,-0.224 -0.5,-0.5c-0,-0.276 -0.224,-0.5 -0.5,-0.5c-0.276,-0 -0.5,-0.224 -0.5,-0.5c0,-0.276 0.224,-0.5 0.5,-0.5c0.276,0 0.5,0.224 0.5,0.5l0,0Z"/><path d="M6,4.5c-0,-0.276 -0.224,-0.5 -0.5,-0.5c-0.276,0 -0.5,0.224 -0.5,0.5c0,0.276 0.224,0.5 0.5,0.5c0.276,-0 0.5,-0.224 0.5,-0.5l-0,-0Z"/></svg>