<?xml version="1.0" encoding="UTF-8" standalone="no"?><!DOCTYPE svg PUBLIC "-//W3C//DTD SVG 1.1//EN" "http://www.w3.org/Graphics/SVG/1.1/DTD/svg11.dtd"><svg width="100%" height="100%" viewBox="0 0 50 50" version="1.1" xmlns="http://www.w3.org/2000/svg" xmlns:xlink="http://www.w3.org/1999/xlink" xml:space="preserve" xmlns:serif="http://www.serif.com/" style="fill-rule:evenodd;clip-rule:evenodd;stroke-linecap:round;stroke-linejoin:round;stroke-miterlimit:1.5;"><path d="M19.453,5.097c1.765,-0.492 3.625,-0.754 5.547,-0.754c1.924,-0 3.786,0.263 5.554,0.756l-0.451,5.031l5.309,3.066l4.104,-2.888c2.61,2.58 4.537,5.848 5.484,9.508l-4.568,2.119l-0,6.13l4.568,2.119c-0.949,3.668 -2.883,6.943 -5.501,9.525l-4.087,-2.875l-5.309,3.065l0.448,5.003c-1.766,0.492 -3.628,0.755 -5.551,0.755c-1.921,0 -3.78,-0.262 -5.545,-0.753l0.449,-5.005l-5.309,-3.065l-4.091,2.877c-2.62,-2.58 -4.554,-5.855 -5.504,-9.524l4.575,-2.122l0,-6.13l-4.575,-2.122c0.948,-3.66 2.876,-6.929 5.487,-9.507l4.108,2.89l5.309,-3.066l-0.451,-5.033Zm5.547,11.64c4.56,0 8.263,3.702 8.263,8.263c-0,4.561 -3.703,8.263 -8.263,8.263c-4.561,-0 -8.263,-3.702 -8.263,-8.263c-0,-4.561 3.702,-8.263 8.263,-8.263Z" style="fill:none;stroke:#000;stroke-width:2.75px;"/></svg>