<?xml version="1.0" encoding="UTF-8" standalone="no"?><!DOCTYPE svg PUBLIC "-//W3C//DTD SVG 1.1//EN" "http://www.w3.org/Graphics/SVG/1.1/DTD/svg11.dtd"><svg width="100%" height="100%" viewBox="0 0 500 500" version="1.1" xmlns="http://www.w3.org/2000/svg" xmlns:xlink="http://www.w3.org/1999/xlink" xml:space="preserve" xmlns:serif="http://www.serif.com/" style="fill-rule:evenodd;clip-rule:evenodd;stroke-linejoin:round;stroke-miterlimit:2;"><circle cx="250" cy="250" r="250" style="fill:#e9cda5;"/><path d="M426.777,73.223c-18.55,-18.55 -39.905,-34.065 -63.279,-45.975l-113.498,222.752l176.777,-176.777Z" style="fill:#292929;"/><path d="M289.109,3.078c-25.911,-4.104 -52.307,-4.104 -78.218,-0l39.109,246.922l39.109,-246.922Z" style="fill:#292929;"/><path d="M136.502,27.248c-23.374,11.91 -44.729,27.425 -63.279,45.975l176.777,176.777l-113.498,-222.752Z" style="fill:#292929;"/><path d="M73.223,426.777c18.55,18.55 39.905,34.065 63.279,45.975l113.498,-222.752l-176.777,176.777Z" style="fill:#292929;"/><path d="M210.891,496.922c25.911,4.104 52.307,4.104 78.218,0l-39.109,-246.922l-39.109,246.922Z" style="fill:#292929;"/><path d="M363.498,472.752c23.374,-11.91 44.729,-27.425 63.279,-45.975l-176.777,-176.777l113.498,222.752Z" style="fill:#292929;"/><path d="M27.248,136.502c-11.91,23.375 -20.066,48.478 -24.17,74.389l246.922,39.109l-222.752,-113.498Z" style="fill:#292929;"/><path d="M3.078,289.109c4.104,25.911 12.26,51.014 24.17,74.389l222.752,-113.498l-246.922,39.109Z" style="fill:#292929;"/><path d="M472.752,363.498c11.91,-23.375 20.066,-48.478 24.17,-74.389l-246.922,-39.109l222.752,113.498Z" style="fill:#292929;"/><path d="M496.922,210.891c-4.104,-25.911 -12.26,-51.014 -24.17,-74.389l-222.752,113.498l246.922,-39.109Z" style="fill:#292929;"/><path d="M250,0c137.979,0 250,112.021 250,250c0,137.979 -112.021,250 -250,250c-137.979,0 -250,-112.021 -250,-250c0,-137.979 112.021,-250 250,-250Zm0,29.795c121.534,0 220.205,98.671 220.205,220.205c-0,121.534 -98.671,220.205 -220.205,220.205c-121.534,-0 -220.205,-98.671 -220.205,-220.205c0,-121.534 98.671,-220.205 220.205,-220.205Z" style="fill:#292929;"/><circle cx="250" cy="250" r="15" style="fill:#c10004;"/><path d="M250,219.954c16.557,0 30,13.443 30,30c0,16.558 -13.443,30 -30,30c-16.557,0 -30,-13.442 -30,-30c0,-16.557 13.443,-30 30,-30Zm0,15c8.279,0 15,6.721 15,15c0,8.279 -6.721,15 -15,15c-8.279,0 -15,-6.721 -15,-15c0,-8.279 6.721,-15 15,-15Z" style="fill:#1c7c27;"/><g><path d="M161.619,161.615c-4.629,4.629 -8.887,9.614 -12.734,14.91c-3.848,5.296 -7.274,10.886 -10.245,16.718l11.133,5.673c2.675,-5.249 5.758,-10.28 9.221,-15.047c3.462,-4.766 7.294,-9.252 11.46,-13.418l-8.835,-8.836Z" style="fill:#1c7c27;"/><path d="M361.376,306.747c-2.971,5.833 -6.396,11.423 -10.244,16.719c-3.848,5.296 -8.106,10.281 -12.735,14.909l-8.842,-8.84c4.166,-4.166 7.998,-8.652 11.461,-13.418c3.463,-4.766 6.546,-9.798 9.22,-15.047l11.14,5.677Z" style="fill:#1c7c27;"/><path d="M94.299,94.295c-8.156,8.155 -15.658,16.939 -22.437,26.27c-6.779,9.33 -12.815,19.18 -18.051,29.456l15.693,7.996c4.818,-9.454 10.37,-18.515 16.607,-27.1c6.237,-8.584 13.139,-16.665 20.642,-24.168l-12.454,-12.454Z" style="fill:#1c7c27;"/><path d="M446.211,349.974c-5.235,10.277 -11.271,20.126 -18.05,29.457c-6.779,9.331 -14.281,18.114 -22.437,26.269l-12.46,-12.458c7.503,-7.503 14.406,-15.583 20.642,-24.168c6.237,-8.584 11.79,-17.645 16.606,-27.1l15.699,8Z" style="fill:#1c7c27;"/><path d="M306.753,138.62c-5.832,-2.972 -11.889,-5.481 -18.115,-7.504c-6.225,-2.023 -12.6,-3.553 -19.066,-4.577l-1.954,12.341c5.819,0.922 11.556,2.299 17.159,4.12c5.603,1.82 11.054,4.078 16.304,6.753l5.672,-11.133Z" style="fill:#1c7c27;"/><path d="M230.453,373.449c-6.466,-1.024 -12.841,-2.554 -19.066,-4.577c-6.226,-2.023 -12.283,-4.532 -18.115,-7.504l5.675,-11.142c5.249,2.676 10.7,4.934 16.304,6.755c5.603,1.82 11.34,3.197 17.159,4.118l-1.957,12.35Z" style="fill:#1c7c27;"/><path d="M349.976,53.791c-10.277,-5.236 -20.949,-9.656 -31.918,-13.22c-10.969,-3.564 -22.201,-6.261 -33.592,-8.065l-2.755,17.396c10.48,1.66 20.813,4.141 30.905,7.419c10.091,3.279 19.909,7.346 29.364,12.163l7.996,-15.693Z" style="fill:#1c7c27;"/><path d="M215.557,467.489c-11.392,-1.803 -22.624,-4.499 -33.593,-8.063c-10.969,-3.564 -21.641,-7.985 -31.917,-13.222l7.998,-15.7c9.454,4.818 19.273,8.885 29.364,12.164c10.091,3.279 20.425,5.759 30.905,7.419l-2.757,17.402Z" style="fill:#1c7c27;"/><path d="M138.64,306.752c2.971,5.833 6.397,11.423 10.245,16.719c3.847,5.295 8.105,10.281 12.734,14.909l8.835,-8.835c-4.165,-4.166 -7.998,-8.653 -11.46,-13.419c-3.463,-4.766 -6.546,-9.797 -9.221,-15.046l-11.133,5.672Z" style="fill:#1c7c27;"/><path d="M338.397,161.62c4.629,4.628 8.887,9.613 12.735,14.909c3.848,5.296 7.273,10.886 10.244,16.719l-11.14,5.678c-2.674,-5.25 -5.757,-10.281 -9.22,-15.047c-3.462,-4.766 -7.295,-9.253 -11.461,-13.418l8.842,-8.841Z" style="fill:#1c7c27;"/><path d="M53.811,349.975c5.236,10.276 11.272,20.125 18.051,29.456c6.779,9.33 14.281,18.114 22.437,26.269l12.454,-12.454c-7.503,-7.503 -14.405,-15.584 -20.642,-24.168c-6.237,-8.584 -11.789,-17.645 -16.607,-27.099l-15.693,7.996Z" style="fill:#1c7c27;"/><path d="M405.724,94.295c8.156,8.155 15.658,16.938 22.437,26.269c6.78,9.331 12.815,19.18 18.05,29.457l-15.699,8c-4.816,-9.454 -10.369,-18.516 -16.606,-27.1c-6.236,-8.584 -13.138,-16.665 -20.642,-24.168l12.46,-12.458Z" style="fill:#1c7c27;"/><path d="M269.572,373.457c6.466,-1.024 12.841,-2.555 19.066,-4.578c6.226,-2.023 12.283,-4.531 18.115,-7.503l-5.672,-11.134c-5.25,2.675 -10.701,4.933 -16.304,6.753c-5.603,1.821 -11.34,3.198 -17.159,4.12l1.954,12.342Z" style="fill:#1c7c27;"/><path d="M193.272,138.628c5.832,-2.973 11.889,-5.482 18.115,-7.505c6.225,-2.023 12.6,-3.553 19.066,-4.576l1.957,12.349c-5.819,0.921 -11.556,2.298 -17.16,4.119c-5.603,1.82 -11.054,4.079 -16.303,6.754l-5.675,-11.141Z" style="fill:#1c7c27;"/><path d="M284.466,467.489c11.391,-1.804 22.623,-4.5 33.592,-8.064c10.969,-3.564 21.641,-7.985 31.918,-13.221l-7.997,-15.693c-9.454,4.817 -19.272,8.884 -29.363,12.163c-10.092,3.279 -20.425,5.76 -30.905,7.42l2.755,17.395Z" style="fill:#1c7c27;"/><path d="M150.047,53.791c10.276,-5.236 20.948,-9.657 31.917,-13.221c10.969,-3.564 22.201,-6.26 33.593,-8.064l2.757,17.403c-10.48,1.659 -20.814,4.14 -30.905,7.418c-10.091,3.279 -19.91,7.347 -29.364,12.164l-7.998,-15.7Z" style="fill:#1c7c27;"/><path d="M373.472,269.545c1.024,-6.465 1.539,-13.001 1.539,-19.547c-0,-6.546 -0.515,-13.082 -1.539,-19.547l-12.341,1.954c0.921,5.819 1.384,11.701 1.384,17.593c0,5.891 -0.463,11.773 -1.384,17.592l12.341,1.955Z" style="fill:#1c7c27;"/><path d="M126.559,269.545c-1.025,-6.465 -1.54,-13.001 -1.54,-19.547c0,-6.546 0.515,-13.082 1.54,-19.547l12.349,1.954c-0.922,5.819 -1.385,11.701 -1.385,17.593c-0,5.891 0.463,11.773 1.385,17.592l-12.349,1.955Z" style="fill:#1c7c27;"/><path d="M467.505,284.438c1.805,-11.391 2.711,-22.907 2.711,-34.44c-0,-11.534 -0.906,-23.049 -2.711,-34.441l-17.396,2.755c1.66,10.481 2.494,21.075 2.494,31.686c0,10.611 -0.834,21.205 -2.494,31.685l17.396,2.755Z" style="fill:#1c7c27;"/><path d="M32.517,284.438c-1.804,-11.391 -2.711,-22.907 -2.711,-34.44c-0,-11.534 0.907,-23.049 2.711,-34.441l17.404,2.755c-1.661,10.481 -2.495,21.075 -2.495,31.686c-0,10.611 0.834,21.205 2.495,31.685l-17.404,2.755Z" style="fill:#1c7c27;"/></g><g><path d="M193.245,138.628c-5.832,2.972 -11.422,6.397 -16.718,10.245c-5.296,3.847 -10.281,8.105 -14.91,12.734l8.836,8.835c4.166,-4.165 8.653,-7.997 13.419,-11.46c4.766,-3.463 9.797,-6.546 15.046,-9.221l-5.673,-11.133Z" style="fill:#c10004;"/><path d="M338.378,338.385c-4.629,4.63 -9.614,8.888 -14.909,12.735c-5.296,3.848 -10.886,7.273 -16.719,10.244l-5.678,-11.14c5.25,-2.674 10.281,-5.757 15.047,-9.219c4.766,-3.463 9.253,-7.296 13.418,-11.462l8.841,8.842Z" style="fill:#c10004;"/><path d="M150.023,53.8c-10.276,5.236 -20.125,11.271 -29.456,18.05c-9.331,6.779 -18.114,14.281 -26.27,22.437l12.454,12.454c7.503,-7.503 15.584,-14.405 24.169,-20.642c8.584,-6.237 17.645,-11.789 27.099,-16.606l-7.996,-15.693Z" style="fill:#c10004;"/><path d="M405.703,405.712c-8.155,8.156 -16.939,15.658 -26.269,22.437c-9.331,6.78 -19.18,12.815 -29.457,18.05l-8.001,-15.699c9.455,-4.816 18.516,-10.369 27.101,-16.605c8.584,-6.237 16.665,-13.139 24.167,-20.643l12.459,12.46Z" style="fill:#c10004;"/><path d="M338.383,161.607c-4.629,-4.629 -9.614,-8.887 -14.91,-12.734c-5.296,-3.848 -10.886,-7.273 -16.718,-10.245l-5.673,11.133c5.249,2.675 10.28,5.758 15.046,9.221c4.766,3.463 9.253,7.295 13.419,11.46l8.836,-8.835Z" style="fill:#c10004;"/><path d="M193.25,361.364c-5.833,-2.971 -11.423,-6.396 -16.719,-10.244c-5.295,-3.847 -10.28,-8.105 -14.909,-12.735l8.841,-8.842c4.165,4.166 8.652,7.999 13.418,11.462c4.766,3.462 9.797,6.545 15.047,9.219l-5.678,11.14Z" style="fill:#c10004;"/><path d="M405.703,94.287c-8.156,-8.156 -16.939,-15.658 -26.27,-22.437c-9.331,-6.779 -19.18,-12.814 -29.456,-18.05l-7.996,15.693c9.454,4.817 18.515,10.369 27.099,16.606c8.585,6.237 16.666,13.139 24.169,20.642l12.454,-12.454Z" style="fill:#c10004;"/><path d="M150.023,446.199c-10.277,-5.235 -20.126,-11.27 -29.457,-18.05c-9.33,-6.779 -18.114,-14.281 -26.269,-22.437l12.459,-12.46c7.502,7.504 15.583,14.406 24.167,20.643c8.585,6.236 17.646,11.789 27.101,16.605l-8.001,15.699Z" style="fill:#c10004;"/><path d="M126.541,269.561c1.024,6.465 2.555,12.84 4.577,19.066c2.023,6.225 4.532,12.282 7.504,18.115l11.133,-5.673c-2.674,-5.249 -4.932,-10.701 -6.753,-16.304c-1.82,-5.603 -3.198,-11.34 -4.119,-17.159l-12.342,1.955Z" style="fill:#c10004;"/><path d="M361.37,193.26c2.973,5.832 5.482,11.889 7.505,18.115c2.022,6.225 3.553,12.6 4.576,19.066l-12.349,1.957c-0.922,-5.819 -2.299,-11.556 -4.119,-17.159c-1.821,-5.603 -4.079,-11.055 -6.754,-16.304l11.141,-5.675Z" style="fill:#c10004;"/><path d="M32.508,284.454c1.804,11.391 4.501,22.624 8.065,33.592c3.564,10.969 7.985,21.641 13.221,31.918l15.693,-7.996c-4.817,-9.455 -8.884,-19.273 -12.163,-29.364c-3.279,-10.092 -5.76,-20.425 -7.42,-30.905l-17.396,2.755Z" style="fill:#c10004;"/><path d="M446.206,150.035c5.237,10.277 9.658,20.948 13.222,31.917c3.564,10.969 6.26,22.201 8.064,33.593l-17.403,2.758c-1.659,-10.481 -4.14,-20.814 -7.419,-30.906c-3.279,-10.091 -7.346,-19.909 -12.164,-29.363l15.7,-7.999Z" style="fill:#c10004;"/><path d="M230.453,373.461c6.465,1.024 13.001,1.538 19.547,1.538c6.546,-0 13.082,-0.514 19.547,-1.538l-1.955,-12.342c-5.818,0.922 -11.701,1.385 -17.592,1.385c-5.891,-0 -11.774,-0.463 -17.592,-1.385l-1.955,12.342Z" style="fill:#c10004;"/><path d="M230.453,126.547c6.465,-1.025 13.001,-1.54 19.547,-1.54c6.546,0 13.082,0.515 19.547,1.54l-1.955,12.35c-5.818,-0.923 -11.701,-1.386 -17.592,-1.386c-5.891,0 -11.774,0.463 -17.592,1.386l-1.955,-12.35Z" style="fill:#c10004;"/><path d="M215.56,467.493c11.391,1.805 22.907,2.711 34.44,2.711c11.533,-0 23.049,-0.906 34.44,-2.711l-2.755,-17.395c-10.48,1.659 -21.074,2.493 -31.685,2.493c-10.611,0 -21.205,-0.834 -31.685,-2.493l-2.755,17.395Z" style="fill:#c10004;"/><path d="M215.56,32.506c11.391,-1.805 22.907,-2.712 34.44,-2.712c11.533,-0 23.049,0.907 34.44,2.712l-2.755,17.403c-10.48,-1.661 -21.074,-2.495 -31.685,-2.495c-10.611,0 -21.205,0.834 -31.685,2.495l-2.755,-17.403Z" style="fill:#c10004;"/><path d="M361.378,306.742c2.972,-5.833 5.481,-11.89 7.504,-18.115c2.022,-6.226 3.553,-12.601 4.577,-19.066l-12.342,-1.955c-0.921,5.819 -2.299,11.556 -4.119,17.159c-1.821,5.603 -4.079,11.055 -6.753,16.304l11.133,5.673Z" style="fill:#c10004;"/><path d="M126.549,230.441c1.023,-6.466 2.554,-12.841 4.576,-19.066c2.023,-6.226 4.532,-12.283 7.505,-18.115l11.141,5.675c-2.675,5.249 -4.933,10.701 -6.754,16.304c-1.82,5.603 -3.197,11.34 -4.119,17.159l-12.349,-1.957Z" style="fill:#c10004;"/><path d="M446.206,349.964c5.236,-10.277 9.657,-20.949 13.221,-31.918c3.564,-10.968 6.261,-22.201 8.065,-33.592l-17.396,-2.755c-1.66,10.48 -4.141,20.813 -7.42,30.905c-3.279,10.091 -7.346,19.909 -12.163,29.364l15.693,7.996Z" style="fill:#c10004;"/><path d="M32.508,215.545c1.804,-11.392 4.5,-22.624 8.064,-33.593c3.564,-10.969 7.985,-21.64 13.222,-31.917l15.7,7.999c-4.818,9.454 -8.885,19.272 -12.164,29.363c-3.279,10.092 -5.76,20.425 -7.419,30.906l-17.403,-2.758Z" style="fill:#c10004;"/></g></svg>