<?xml version="1.0" encoding="UTF-8" standalone="no"?><!DOCTYPE svg PUBLIC "-//W3C//DTD SVG 1.1//EN" "http://www.w3.org/Graphics/SVG/1.1/DTD/svg11.dtd"><svg width="100%" height="100%" viewBox="0 0 1563 367" version="1.1" xmlns="http://www.w3.org/2000/svg" xmlns:xlink="http://www.w3.org/1999/xlink" xml:space="preserve" xmlns:serif="http://www.serif.com/" style="fill-rule:evenodd;clip-rule:evenodd;stroke-linejoin:round;stroke-miterlimit:2;"><path d="M1562.5,183.108c-64.877,9.534 -109.907,12.5 -234.375,12.5c0,16.053 -18.26,30.846 -30.192,30.695l-359.869,-0l-294.987,-23.807l-168.448,0l-162.741,162.741c-141.705,-0 -188.559,7.21 -230.134,-17.506c-51.388,-33.043 -58.287,-96.766 -81.754,-164.623c23.467,-67.857 30.366,-131.581 81.754,-164.623c41.575,-24.716 88.429,-17.506 230.134,-17.506l162.741,162.741l168.448,-0l294.987,-23.807l359.869,-0c11.932,-0.152 30.192,14.642 30.192,30.695c124.468,-0 169.498,2.966 234.375,12.5"/></svg>