<?xml version="1.0" encoding="UTF-8" standalone="no"?><!DOCTYPE svg PUBLIC "-//W3C//DTD SVG 1.1//EN" "http://www.w3.org/Graphics/SVG/1.1/DTD/svg11.dtd"><svg width="100%" height="100%" viewBox="0 0 209 209" version="1.1" xmlns="http://www.w3.org/2000/svg" xmlns:xlink="http://www.w3.org/1999/xlink" xml:space="preserve" xmlns:serif="http://www.serif.com/" style="fill-rule:evenodd;clip-rule:evenodd;stroke-linejoin:round;stroke-miterlimit:2;"><path d="M22.556,62.588c-6,12.53 -8.674,26.759 -7.995,41.579c0.651,24.471 11.152,46.349 27.612,61.993c16.118,15.32 38.029,24.532 61.994,23.951c23.484,-0.567 44.491,-10.644 59.53,-26.414c14.736,-15.452 23.533,-36.518 22.996,-59.53c-0.526,-22.549 -10.236,-42.709 -25.372,-57.155c-12.271,-11.711 -28.256,-19.47 -45.924,-21.503c-6.266,-0.61 -11.23,-5.791 -11.23,-12.087c-0,-0.131 -0,-0.147 -0,-0.178c-0,-0.44 0.023,-0.876 0.069,-1.309c0.327,-3.066 1.799,-5.916 4.148,-7.962c2.681,-2.335 6.241,-3.395 9.762,-2.906c22.863,3.752 43.241,14.68 58.477,30.643c17.973,18.833 29.005,44.401 28.35,72.457c-0.644,27.592 -12.198,52.411 -30.726,70.08c-18.212,17.368 -42.959,27.963 -70.08,27.309c-26.641,-0.646 -50.587,-11.854 -67.617,-29.772c-16.709,-17.581 -26.806,-41.48 -26.111,-67.617c0.695,-15.17 5.177,-29.161 11.971,-41.653c0.619,-1.138 1.255,-2.263 1.912,-3.377"/></svg>